<svg xmlns="http://www.w3.org/2000/svg" viewBox="0 0 500 500"><g id="freepik--background-complete--inject-30"><path d="M430.76,346.66l-13.13.27-6.66.12c-2.22,0-4.46,0-6.69.05h-.44v-.45l-.05-11.19V335h.5l13.24.06c4.41,0,8.83.11,13.24.16H431v.27c0,1.9-.08,3.78-.13,5.65Zm0,0-.14-5.66c-.05-1.86-.11-3.7-.13-5.53l.27.27c-4.41.05-8.83.16-13.24.16l-13.24.07.5-.5-.06,11.19-.44-.45c2.18,0,4.36,0,6.54.06l6.58.11Z" style="fill:#ebebeb"></path><path d="M416,360.77l-13.13.27-6.66.12c-2.22,0-4.46,0-6.69,0h-.45v-.45L389,349.58v-.51h.5l13.24.06c4.41,0,8.82.11,13.24.16h.27v.27c0,1.89-.09,3.78-.13,5.65Zm0,0-.14-5.66c-.05-1.86-.12-3.7-.14-5.53l.28.27c-4.42,0-8.83.16-13.24.16l-13.24.07.5-.5L390,360.77l-.44-.45c2.18,0,4.36,0,6.54.06l6.58.11Z" style="fill:#ebebeb"></path><path d="M445.53,360.77l-13.12.27-6.66.12c-2.23,0-4.47,0-6.7,0h-.44v-.45l-.06-11.19v-.51h.5l13.24.06c4.41,0,8.83.11,13.24.16h.28v.27c0,1.89-.08,3.78-.13,5.65Zm0,0-.14-5.66c-.05-1.86-.11-3.7-.13-5.53l.27.27c-4.41,0-8.83.16-13.24.16l-13.24.07.5-.5-.05,11.19-.45-.45c2.18,0,4.36,0,6.55.06l6.58.11Z" style="fill:#ebebeb"></path><path d="M81,360.77,67.82,361l-6.66.12c-2.22,0-4.46,0-6.69,0H54v-.45L54,349.58v-.51h.5l13.24.06c4.41,0,8.83.11,13.24.16h.27v.27c0,1.89-.08,3.78-.13,5.65Zm0,0-.14-5.66c0-1.86-.11-3.7-.13-5.53l.27.27c-4.41,0-8.83.16-13.24.16l-13.24.07.5-.5-.06,11.19-.44-.45c2.18,0,4.36,0,6.54.06l6.58.11Z" style="fill:#ebebeb"></path><path d="M110.49,360.77,97.37,361l-6.66.12c-2.23,0-4.47,0-6.7,0h-.44v-.45l-.06-11.19v-.51H84l13.24.06c4.42,0,8.83.11,13.24.16h.28v.27c0,1.89-.09,3.78-.14,5.65Zm0,0-.14-5.66c0-1.86-.11-3.7-.13-5.53l.27.27c-4.41,0-8.82.16-13.24.16L84,350.08l.5-.5-.05,11.19-.45-.45c2.18,0,4.36,0,6.55.06l6.58.11Z" style="fill:#ebebeb"></path><path d="M256.51,283.74l-13.13.27-6.66.12c-2.23,0-4.46,0-6.69.05h-.45v-.45l-.05-11.18V272H230l13.24.06c4.41,0,8.82.11,13.24.16h.27v.27c0,1.89-.09,3.78-.13,5.65Zm0,0-.15-5.66c0-1.86-.11-3.7-.13-5.53l.28.27c-4.42.05-8.83.16-13.24.16L230,273l.49-.49-.05,11.18-.44-.44c2.18,0,4.35,0,6.54,0l6.58.12Z" style="fill:#ebebeb"></path><path d="M241.73,297.84l-13.12.28-6.66.12c-2.23,0-4.46,0-6.7.05h-.44v-.45l-.06-11.18v-.51h.5l13.24.06c4.42,0,8.83.11,13.24.16H242v.27c0,1.89-.09,3.78-.13,5.65Zm0,0-.14-5.65c0-1.86-.11-3.7-.13-5.53l.27.27c-4.41.05-8.82.16-13.24.16l-13.24.06.5-.49-.05,11.18-.45-.44c2.19,0,4.36,0,6.55.05l6.58.12Z" style="fill:#ebebeb"></path><path d="M271.28,297.84l-13.13.28-6.66.12c-2.22,0-4.46,0-6.69.05h-.45v-.45l0-11.18v-.51h.5l13.24.06c4.41,0,8.82.11,13.24.16h.27v.27c0,1.89-.09,3.78-.13,5.65Zm0,0-.14-5.65c-.05-1.86-.12-3.7-.14-5.53l.28.27c-4.42.05-8.83.16-13.24.16l-13.24.06.5-.49-.06,11.18-.44-.44c2.18,0,4.36,0,6.54.05l6.58.12Z" style="fill:#ebebeb"></path><path d="M429.23,62.38l-13.13.28-6.66.11c-2.22,0-4.46,0-6.69.06h-.45v-.45l-.05-11.19v-.5h.5l13.24.06c4.41,0,8.82.12,13.24.17h.27v.27c0,1.9-.08,3.79-.13,5.65Zm0,0-.14-5.65c0-1.87-.12-3.71-.13-5.54l.27.27c-4.42,0-8.83.16-13.24.17l-13.24.06.5-.5-.06,11.19-.44-.45c2.18,0,4.36,0,6.54.06l6.58.11Z" style="fill:#ebebeb"></path><path d="M444,76.49l-13.13.28-6.66.11c-2.22.05-4.46,0-6.69.05h-.44v-.45L417,65.3v-.5h.5l13.24.06c4.41,0,8.83.12,13.24.17h.28v.27c0,1.9-.08,3.79-.13,5.65Zm0,0-.14-5.65c-.05-1.87-.11-3.71-.13-5.54l.27.27c-4.41.05-8.83.16-13.24.17l-13.24.06.5-.5L418,76.49l-.44-.45c2.18,0,4.36,0,6.54.06l6.58.11Z" style="fill:#ebebeb"></path><path d="M82.48,62.39l-13.12.28-6.67.11c-2.22,0-4.46,0-6.69.06h-.44v-.45l0-11.19v-.5H56l13.24.07c4.41,0,8.83.11,13.24.16h.28v.27c0,1.9-.08,3.79-.13,5.66Zm0,0-.14-5.65c0-1.87-.11-3.71-.13-5.54l.27.27c-4.41.06-8.83.16-13.24.17L56,51.7l.5-.5,0,11.19L56,62c2.18,0,4.36,0,6.55,0l6.58.11Z" style="fill:#ebebeb"></path></g><g id="freepik--Board--inject-30"><rect x="47.58" y="53.73" width="302.75" height="223.38" style="fill:#fff"></rect><path d="M350.58,277.36H47.33V53.48H350.58Zm-302.75-.5H350.08V54H47.83Z" style="fill:#263238"></path><rect x="36.5" y="44.83" width="324.92" height="16.55" style="fill:#37474f"></rect><rect x="77.05" y="236.58" width="6.98" height="6.98" style="fill:#dbdbdb"></rect><rect x="88.88" y="236.58" width="37.61" height="2.06" style="fill:#c7c7c7"></rect><rect x="88.88" y="241.5" width="49.41" height="2.06" style="fill:#c7c7c7"></rect><rect x="77.05" y="249.81" width="6.98" height="6.98" style="fill:#a6a6a6"></rect><rect x="88.88" y="249.81" width="28.57" height="2.06" style="fill:#c7c7c7"></rect><rect x="88.88" y="254.73" width="49.41" height="2.06" style="fill:#c7c7c7"></rect><rect x="169.36" y="148.85" width="6.98" height="6.98" style="fill:#a6a6a6"></rect><rect x="181.2" y="148.85" width="68.57" height="2.06" style="fill:#c7c7c7"></rect><rect x="181.2" y="153.77" width="89.41" height="2.06" style="fill:#c7c7c7"></rect><rect x="169.36" y="166.38" width="6.98" height="6.98" style="fill:#dbdbdb"></rect><rect x="181.2" y="166.38" width="116.46" height="2.06" style="fill:#c7c7c7"></rect><rect x="181.2" y="171.3" width="89.41" height="2.06" style="fill:#c7c7c7"></rect><rect x="169.36" y="113.78" width="6.98" height="6.98" style="fill:#dbdbdb"></rect><rect x="181.2" y="113.78" width="116.46" height="2.06" style="fill:#c7c7c7"></rect><rect x="181.2" y="118.7" width="89.41" height="2.06" style="fill:#c7c7c7"></rect><rect x="169.36" y="131.32" width="6.98" height="6.98" style="fill:#dbdbdb"></rect><rect x="181.2" y="131.32" width="116.46" height="2.06" style="fill:#c7c7c7"></rect><rect x="181.2" y="136.24" width="89.41" height="2.06" style="fill:#c7c7c7"></rect><rect x="169.36" y="131.32" width="6.98" height="6.98" style="fill:#dbdbdb"></rect><rect x="181.2" y="131.32" width="77.61" height="2.06" style="fill:#c7c7c7"></rect><rect x="181.2" y="136.24" width="89.41" height="2.06" style="fill:#c7c7c7"></rect><rect x="223.9" y="207.61" width="9.81" height="49.84" style="fill:#38E0BE"></rect><rect x="240.76" y="215.89" width="9.81" height="41.56" style="fill:#38E0BE"></rect><rect x="257.62" y="231" width="9.81" height="26.45" style="fill:#38E0BE"></rect><rect x="274.48" y="215.17" width="9.81" height="42.29" style="fill:#38E0BE"></rect><rect x="291.34" y="222.11" width="9.81" height="35.34" style="fill:#38E0BE"></rect><rect x="308.19" y="200.66" width="9.81" height="56.79" style="fill:#38E0BE"></rect><path d="M218.22,197.2l.11,15.07.06,15.06.08,30.12-.25-.25c23.82-.07,47.65,0,71.47.05l19.87.06,17.63.14-17.63.15-19.87,0c-23.82,0-47.65.12-71.47.05H218v-.25l.08-30.12,0-15.06Z" style="fill:#a6a6a6"></path><path d="M216.05,200.66a8.82,8.82,0,0,1,4.33,0,8.51,8.51,0,0,1-4.33,0Z" style="fill:#a6a6a6"></path><path d="M216.05,206.64a8.5,8.5,0,0,1,2.17-.28,7.63,7.63,0,0,1,2.16.28,8.51,8.51,0,0,1-4.33,0Z" style="fill:#a6a6a6"></path><path d="M216.05,212.62a8.51,8.51,0,0,1,4.33,0,8.51,8.51,0,0,1-4.33,0Z" style="fill:#a6a6a6"></path><path d="M216.05,218.6a8.51,8.51,0,0,1,4.33,0,8.51,8.51,0,0,1-4.33,0Z" style="fill:#a6a6a6"></path><path d="M216.05,224.58a8.51,8.51,0,0,1,4.33,0,8.51,8.51,0,0,1-4.33,0Z" style="fill:#a6a6a6"></path><path d="M216.05,230.56a8.51,8.51,0,0,1,4.33,0,8.51,8.51,0,0,1-4.33,0Z" style="fill:#a6a6a6"></path><path d="M216.05,236.54a8.51,8.51,0,0,1,4.33,0,7.63,7.63,0,0,1-2.16.28A8.5,8.5,0,0,1,216.05,236.54Z" style="fill:#a6a6a6"></path><path d="M216.05,242.52a8.51,8.51,0,0,1,4.33,0,8.82,8.82,0,0,1-4.33,0Z" style="fill:#a6a6a6"></path><path d="M216.05,248.5a8.51,8.51,0,0,1,4.33,0,8.82,8.82,0,0,1-4.33,0Z" style="fill:#a6a6a6"></path><path d="M99.46,207.61a12.18,12.18,0,1,1-1.61-6.05A12,12,0,0,1,99.46,207.61Z" style="fill:#a6a6a6"></path><path d="M97.85,201.56l-10.56,6.05V195.43A12.16,12.16,0,0,1,97.85,201.56Z" style="fill:#dbdbdb"></path><path d="M95.71,207.61a8.43,8.43,0,1,1-8.42-8.42A8.42,8.42,0,0,1,95.71,207.61Z" style="fill:#fff"></path><rect x="83.78" y="205.74" width="7.01" height="0.99" style="fill:#263238"></rect><rect x="82.04" y="208.49" width="10.48" height="0.99" style="fill:#a6a6a6"></rect><path d="M133.54,207.61a11.56,11.56,0,0,1-.14,1.78,12,12,0,1,1,.14-1.78Z" style="fill:#a6a6a6"></path><path d="M133.54,207.61a11.56,11.56,0,0,1-.14,1.78l-12-1.78V195.43a12.18,12.18,0,0,1,12.18,12.18Z" style="fill:#dbdbdb"></path><path d="M129.78,207.61a8.42,8.42,0,1,1-8.42-8.42A8.42,8.42,0,0,1,129.78,207.61Z" style="fill:#fff"></path><rect x="117.85" y="205.74" width="7.01" height="0.99" style="fill:#263238"></rect><rect x="116.12" y="208.49" width="10.48" height="0.99" style="fill:#a6a6a6"></rect><path d="M167.85,207.61a12.18,12.18,0,1,1-1.61-6.05A12.16,12.16,0,0,1,167.85,207.61Z" style="fill:#a6a6a6"></path><path d="M167.85,207.61A12.16,12.16,0,0,1,160,219l-4.36-11.37V195.43a12.18,12.18,0,0,1,12.18,12.18Z" style="fill:#dbdbdb"></path><path d="M164.09,207.61a8.42,8.42,0,1,1-8.42-8.42A8.42,8.42,0,0,1,164.09,207.61Z" style="fill:#fff"></path><rect x="152.16" y="205.74" width="7.01" height="0.99" style="fill:#263238"></rect><rect x="150.43" y="208.49" width="10.48" height="0.99" style="fill:#a6a6a6"></rect><path d="M202,207.61a12.18,12.18,0,1,1-1.61-6.05A12.15,12.15,0,0,1,202,207.61Z" style="fill:#a6a6a6"></path><path d="M202,207.61a12.17,12.17,0,0,1-20.08,9.26l7.9-9.26V195.43a12.18,12.18,0,0,1,10.57,6.13A12,12,0,0,1,202,207.61Z" style="fill:#dbdbdb"></path><path d="M198.21,207.61a8.42,8.42,0,1,1-8.42-8.42A8.42,8.42,0,0,1,198.21,207.61Z" style="fill:#fff"></path><rect x="186.29" y="205.74" width="7.01" height="0.99" style="fill:#263238"></rect><rect x="184.55" y="208.49" width="10.48" height="0.99" style="fill:#a6a6a6"></rect><rect x="47.78" y="71.84" width="302.36" height="21.99" style="fill:#38E0BE"></rect><path d="M73.27,79.39a.67.67,0,0,1,.68-.68.7.7,0,0,1,.7.68v7.29a.69.69,0,0,1-.7.68.67.67,0,0,1-.68-.68Z" style="fill:#fff"></path><path d="M78.32,86.68a.68.68,0,1,1-1.35,0V79.5h0a.7.7,0,0,1,.27-.57.68.68,0,0,1,.94.15l4,5.52V79.5a.67.67,0,0,1,.66-.67.69.69,0,0,1,.68.67v7.18a.69.69,0,0,1-.68.68.67.67,0,0,1-.5-.24L82.27,87l-4-5.49Z" style="fill:#fff"></path><path d="M91.66,80.08h-2v6.6a.68.68,0,0,1-1.36,0v-6.6h-2a.69.69,0,0,1-.68-.69.67.67,0,0,1,.68-.68h5.28a.68.68,0,0,1,.68.68A.7.7,0,0,1,91.66,80.08Z" style="fill:#fff"></path><path d="M94.39,86.68V79.39a.67.67,0,0,1,.67-.68h4a.69.69,0,0,1,.68.68.7.7,0,0,1-.68.69H95.76v2.26h2.88a.69.69,0,0,1,0,1.38H95.76V86h3.35a.69.69,0,0,1,0,1.37h-4s0,0,0,0h0A.67.67,0,0,1,94.39,86.68Z" style="fill:#fff"></path><path d="M107.69,86.34a.68.68,0,0,1-.43.86,1.21,1.21,0,0,1-.28,0h0a.91.91,0,0,1-.48-.14,1.27,1.27,0,0,1-.4-.43,3.37,3.37,0,0,1-.25-1.48,1.15,1.15,0,0,0-.15-.53,1.27,1.27,0,0,0-.37-.36,2.13,2.13,0,0,0-.7-.3h-1.45v2.68a.69.69,0,0,1-.7.68.68.68,0,0,1-.68-.68V79.39a.67.67,0,0,1,.68-.68h2.22a2.64,2.64,0,0,1,2.64,2.66,2.61,2.61,0,0,1-1,2,2.1,2.1,0,0,1,.43.46,2.34,2.34,0,0,1,.41,1.34,2.55,2.55,0,0,0,.05.73A.67.67,0,0,1,107.69,86.34Zm-1.73-5a1.28,1.28,0,0,0-1.27-1.29h-1.52v2.55h1.52A1.27,1.27,0,0,0,106,81.37Z" style="fill:#fff"></path><path d="M111.06,86.68a.68.68,0,1,1-1.35,0V79.5h0a.7.7,0,0,1,.27-.57.68.68,0,0,1,.94.15l4,5.52V79.5a.68.68,0,0,1,.67-.67.69.69,0,0,1,.68.67v7.18a.69.69,0,0,1-.68.68.71.71,0,0,1-.51-.24s0-.05-.06-.08l-4-5.49Z" style="fill:#fff"></path><path d="M123.64,85.32h-3l-.6,1.61a.71.71,0,0,1-.65.43.59.59,0,0,1-.23,0,.69.69,0,0,1-.41-.88l2.73-7.29a.69.69,0,0,1,.66-.43.68.68,0,0,1,.65.43l2.73,7.29a.69.69,0,0,1-.4.88.61.61,0,0,1-.24,0,.67.67,0,0,1-.63-.43Zm-.5-1.36-1-2.65-1,2.65Z" style="fill:#fff"></path><path d="M131.27,80.08h-2v6.6a.68.68,0,1,1-1.36,0v-6.6h-2a.68.68,0,0,1-.68-.69.67.67,0,0,1,.68-.68h5.27a.67.67,0,0,1,.68.68A.69.69,0,0,1,131.27,80.08Z" style="fill:#fff"></path><path d="M134.08,79.39a.67.67,0,0,1,.68-.68.69.69,0,0,1,.7.68v7.29a.69.69,0,0,1-.7.68.67.67,0,0,1-.68-.68Z" style="fill:#fff"></path><path d="M144.59,79.78a4.55,4.55,0,0,1,1.25,3.13A4.49,4.49,0,0,1,144.59,86a4,4,0,0,1-3,1.32,4.19,4.19,0,0,1-3-1.32,4.51,4.51,0,0,1-1.22-3.13,4.57,4.57,0,0,1,1.22-3.13,4.15,4.15,0,0,1,3-1.32A4,4,0,0,1,144.59,79.78Zm-.16,3.13a3.17,3.17,0,0,0-.84-2.16,2.66,2.66,0,0,0-4,0,3.13,3.13,0,0,0-.84,2.16,3.08,3.08,0,0,0,.84,2.15,2.64,2.64,0,0,0,4,0A3.13,3.13,0,0,0,144.43,82.91Z" style="fill:#fff"></path><path d="M149.32,86.68a.68.68,0,1,1-1.35,0V79.5h0a.67.67,0,0,1,1.22-.42l4,5.52V79.5a.68.68,0,0,1,.67-.67.69.69,0,0,1,.68.67v7.18a.67.67,0,0,1-1.19.44.21.21,0,0,1-.06-.08l-4-5.49Z" style="fill:#fff"></path><path d="M161.91,85.32h-3l-.61,1.61a.69.69,0,0,1-.64.43.64.64,0,0,1-.24,0,.69.69,0,0,1-.4-.88l2.73-7.29a.71.71,0,0,1,1.31,0l2.73,7.29a.69.69,0,0,1-.41.88.56.56,0,0,1-.23,0,.66.66,0,0,1-.63-.43ZM161.4,84l-1-2.65-1,2.65Z" style="fill:#fff"></path><path d="M165.49,86.68V79.39a.67.67,0,0,1,.68-.68.69.69,0,0,1,.69.68V86h3.35a.69.69,0,0,1,0,1.37h-4A.67.67,0,0,1,165.49,86.68Z" style="fill:#fff"></path><path d="M176.16,86.68V79.39a.68.68,0,0,1,.68-.68h1.76a2.35,2.35,0,0,1,2.34,2.35,2.32,2.32,0,0,1-.47,1.41,2.64,2.64,0,0,1-1.39,4.89h-2.19a0,0,0,0,1,0,0h0A.69.69,0,0,1,176.16,86.68Zm1.37-4.62h1.07a1,1,0,0,0,1-1,1,1,0,0,0-1-1h-1.07Zm0,3.93h1.55a1.28,1.28,0,0,0,0-2.56h-1.55Z" style="fill:#fff"></path><path d="M187.09,87.36a3.56,3.56,0,0,1-3.57-3.57v-4.4a.67.67,0,0,1,.68-.68.69.69,0,0,1,.69.68v4.4a2.2,2.2,0,1,0,4.4,0v-4.4a.68.68,0,0,1,.69-.68.67.67,0,0,1,.68.68v4.4A3.57,3.57,0,0,1,187.09,87.36Z" style="fill:#fff"></path><path d="M193.3,85.21a.65.65,0,0,1,.9-.09,4.06,4.06,0,0,0,2.37,1,2.68,2.68,0,0,0,1.54-.46,1.11,1.11,0,0,0,.53-.89.69.69,0,0,0-.11-.4,1.17,1.17,0,0,0-.37-.37,5.13,5.13,0,0,0-1.69-.58h0a6.73,6.73,0,0,1-1.59-.48,2.64,2.64,0,0,1-1.15-1,1.89,1.89,0,0,1-.29-1,2.27,2.27,0,0,1,1-1.8,3.67,3.67,0,0,1,2.14-.66,4.83,4.83,0,0,1,2.7,1,.64.64,0,0,1,.17.88.62.62,0,0,1-.88.18,3.57,3.57,0,0,0-2-.79,2.38,2.38,0,0,0-1.38.42,1,1,0,0,0-.47.78.63.63,0,0,0,.08.35,1.33,1.33,0,0,0,.34.32,4.19,4.19,0,0,0,1.54.54h0a7.72,7.72,0,0,1,1.7.52,2.92,2.92,0,0,1,1.24,1,2.07,2.07,0,0,1,.3,1,2.41,2.41,0,0,1-1.07,1.92,3.88,3.88,0,0,1-2.28.7,5.31,5.31,0,0,1-3.17-1.24A.66.66,0,0,1,193.3,85.21Z" style="fill:#fff"></path><path d="M201.91,79.39a.67.67,0,0,1,.68-.68.69.69,0,0,1,.69.68v7.29a.68.68,0,0,1-.69.68.67.67,0,0,1-.68-.68Z" style="fill:#fff"></path><path d="M207,86.68a.67.67,0,1,1-1.34,0V79.5h0a.67.67,0,0,1,.27-.57.68.68,0,0,1,.94.15l4,5.52V79.5a.68.68,0,0,1,.67-.67.69.69,0,0,1,.68.67v7.18a.69.69,0,0,1-.68.68.71.71,0,0,1-.51-.24s-.05-.05-.06-.08l-4-5.49Z" style="fill:#fff"></path><path d="M214.33,86.68V79.39a.67.67,0,0,1,.68-.68h4a.69.69,0,0,1,.68.68.7.7,0,0,1-.68.69H215.7v2.26h2.88a.69.69,0,0,1,0,1.38H215.7V86h3.35a.69.69,0,0,1,0,1.37h-4s0,0,0,0h0A.67.67,0,0,1,214.33,86.68Z" style="fill:#fff"></path><path d="M221.39,85.21a.65.65,0,0,1,.9-.09,4.06,4.06,0,0,0,2.36,1,2.69,2.69,0,0,0,1.55-.46,1.11,1.11,0,0,0,.53-.89.77.77,0,0,0-.11-.4,1.43,1.43,0,0,0-.37-.37,5.2,5.2,0,0,0-1.7-.58h0a6.81,6.81,0,0,1-1.6-.48,2.7,2.7,0,0,1-1.15-1,2,2,0,0,1-.28-1,2.27,2.27,0,0,1,1-1.8,3.65,3.65,0,0,1,2.14-.66,4.83,4.83,0,0,1,2.69,1,.64.64,0,0,1,.18.88.62.62,0,0,1-.88.18,3.6,3.6,0,0,0-2-.79,2.44,2.44,0,0,0-1.39.42,1,1,0,0,0-.47.78.63.63,0,0,0,.09.35,1.12,1.12,0,0,0,.33.32,4.32,4.32,0,0,0,1.55.54h0a7.82,7.82,0,0,1,1.71.52,2.92,2.92,0,0,1,1.24,1,2.07,2.07,0,0,1,.29,1,2.4,2.4,0,0,1-1.06,1.92,3.91,3.91,0,0,1-2.29.7,5.28,5.28,0,0,1-3.16-1.24A.66.66,0,0,1,221.39,85.21Z" style="fill:#fff"></path><path d="M229.52,85.21a.65.65,0,0,1,.9-.09,4,4,0,0,0,2.36,1,2.65,2.65,0,0,0,1.54-.46,1.12,1.12,0,0,0,.54-.89.7.7,0,0,0-.12-.4,1.17,1.17,0,0,0-.37-.37,5.13,5.13,0,0,0-1.69-.58h0a6.73,6.73,0,0,1-1.59-.48,2.64,2.64,0,0,1-1.15-1,2,2,0,0,1-.28-1,2.27,2.27,0,0,1,1-1.8,3.64,3.64,0,0,1,2.13-.66,4.83,4.83,0,0,1,2.7,1,.64.64,0,0,1,.17.88.62.62,0,0,1-.88.18,3.57,3.57,0,0,0-2-.79,2.4,2.4,0,0,0-1.38.42,1,1,0,0,0-.47.78.56.56,0,0,0,.09.35,1.12,1.12,0,0,0,.33.32,4.25,4.25,0,0,0,1.55.54h0a8,8,0,0,1,1.71.52,2.89,2.89,0,0,1,1.23,1,2,2,0,0,1,.3,1,2.43,2.43,0,0,1-1.06,1.92,3.91,3.91,0,0,1-2.29.7,5.31,5.31,0,0,1-3.17-1.24A.66.66,0,0,1,229.52,85.21Z" style="fill:#fff"></path><path d="M241.36,82.91a4.54,4.54,0,0,1,4.54-4.45,4.61,4.61,0,0,1,2.86,1,.71.71,0,0,1-.87,1.12,3.09,3.09,0,0,0-2-.68,3.33,3.33,0,0,0-2.23.89,3.08,3.08,0,0,0-.9,2.15,3,3,0,0,0,.9,2.15,3.28,3.28,0,0,0,2.23.89,3.08,3.08,0,0,0,2-.68.75.75,0,0,1,1,.14.74.74,0,0,1-.12,1,4.67,4.67,0,0,1-2.86,1A4.53,4.53,0,0,1,241.36,82.91Z" style="fill:#fff"></path><path d="M257.86,79.78a4.59,4.59,0,0,1,1.25,3.13A4.54,4.54,0,0,1,257.86,86a4.07,4.07,0,0,1-3,1.32,4.17,4.17,0,0,1-3-1.32,4.47,4.47,0,0,1-1.23-3.13,4.53,4.53,0,0,1,1.23-3.13,4.13,4.13,0,0,1,3-1.32A4,4,0,0,1,257.86,79.78Zm-.16,3.13a3.22,3.22,0,0,0-.84-2.16,2.67,2.67,0,0,0-4,0,3.13,3.13,0,0,0-.84,2.16,3.08,3.08,0,0,0,.84,2.15,2.65,2.65,0,0,0,4,0A3.17,3.17,0,0,0,257.7,82.91Z" style="fill:#fff"></path><path d="M262.59,86.68a.68.68,0,1,1-1.35,0V79.5h0a.7.7,0,0,1,.27-.57.68.68,0,0,1,.94.15l4,5.52V79.5a.68.68,0,0,1,.67-.67.69.69,0,0,1,.68.67v7.18a.69.69,0,0,1-.68.68.71.71,0,0,1-.51-.24s-.05-.05-.06-.08l-4-5.49Z" style="fill:#fff"></path><path d="M270.76,86.68V79.39a.68.68,0,0,1,.68-.68h4a.69.69,0,0,1,0,1.37h-3.35v2.26H275a.69.69,0,0,1,0,1.38h-2.88v3a.69.69,0,0,1-1.37,0Z" style="fill:#fff"></path><path d="M278.24,86.68V79.39a.67.67,0,0,1,.68-.68H283a.69.69,0,0,1,.68.68.7.7,0,0,1-.68.69h-3.35v2.26h2.88a.69.69,0,0,1,0,1.38h-2.88V86H283a.69.69,0,0,1,0,1.37h-4s0,0,0,0h0A.68.68,0,0,1,278.24,86.68Z" style="fill:#fff"></path><path d="M291.55,86.34a.69.69,0,0,1-.43.86,1.21,1.21,0,0,1-.28,0h0a.91.91,0,0,1-.48-.14,1.27,1.27,0,0,1-.4-.43,3.35,3.35,0,0,1-.26-1.48,1,1,0,0,0-.14-.53,1.2,1.2,0,0,0-.38-.36,2,2,0,0,0-.69-.3H287v2.68a.69.69,0,0,1-.7.68.68.68,0,0,1-.68-.68V79.39a.67.67,0,0,1,.68-.68h2.22a2.64,2.64,0,0,1,2.64,2.66,2.61,2.61,0,0,1-1,2,2.37,2.37,0,0,1,.43.46,2.34,2.34,0,0,1,.41,1.34,2.55,2.55,0,0,0,.05.73A.69.69,0,0,1,291.55,86.34Zm-1.73-5a1.28,1.28,0,0,0-1.27-1.29H287v2.55h1.52A1.27,1.27,0,0,0,289.82,81.37Z" style="fill:#fff"></path><path d="M293.56,86.68V79.39a.67.67,0,0,1,.68-.68h4a.69.69,0,0,1,.68.68.7.7,0,0,1-.68.69h-3.35v2.26h2.88a.69.69,0,0,1,0,1.38h-2.88V86h3.35a.69.69,0,0,1,0,1.37h-4s0,0,0,0h0A.67.67,0,0,1,293.56,86.68Z" style="fill:#fff"></path><path d="M302.25,86.68a.68.68,0,1,1-1.35,0V79.5h0a.7.7,0,0,1,.27-.57.68.68,0,0,1,.94.15l4,5.52V79.5a.67.67,0,0,1,.66-.67.69.69,0,0,1,.68.67v7.18a.67.67,0,0,1-1.18.44L306.2,87l-3.95-5.49Z" style="fill:#fff"></path><path d="M310,82.91a4.54,4.54,0,0,1,4.54-4.45,4.58,4.58,0,0,1,2.85,1,.71.71,0,1,1-.86,1.12,3.13,3.13,0,0,0-2-.68,3.29,3.29,0,0,0-2.23.89,3.08,3.08,0,0,0-.9,2.15,3,3,0,0,0,.9,2.15,3.24,3.24,0,0,0,2.23.89,3.1,3.1,0,0,0,2-.68.75.75,0,0,1,1,.14.73.73,0,0,1-.13,1,4.64,4.64,0,0,1-2.85,1A4.52,4.52,0,0,1,310,82.91Z" style="fill:#fff"></path><path d="M320,86.68V79.39a.67.67,0,0,1,.68-.68h4a.69.69,0,0,1,.68.68.7.7,0,0,1-.68.69h-3.35v2.26h2.88a.69.69,0,0,1,0,1.38h-2.88V86h3.35a.69.69,0,0,1,0,1.37h-4s0,0,0,0h0A.68.68,0,0,1,320,86.68Z" style="fill:#fff"></path><rect x="43.37" y="61.39" width="0.97" height="125" style="fill:#263238"></rect><polygon points="42.13 190.92 45.58 190.92 44.72 185.95 42.99 185.95 42.13 190.92" style="fill:#263238"></polygon><rect x="39.86" y="61.39" width="0.97" height="180.83" style="fill:#263238"></rect><polygon points="38.62 245.86 42.08 245.86 41.21 240.9 39.49 240.9 38.62 245.86" style="fill:#263238"></polygon><path d="M147,144.56a37.14,37.14,0,0,1-7.13,21.95h0a37.33,37.33,0,1,1-30.19-59.27c1,0,2,0,3,.12a37.07,37.07,0,0,1,16.33,5.29,37.45,37.45,0,0,1,10,8.84,38.56,38.56,0,0,1,2.33,3.31A37.19,37.19,0,0,1,147,144.56Z" style="fill:#455a64"></path><g style="opacity:0.2"><path d="M117.77,162.18c-.47,1.26.31,1.31.36,1.83s0,1.52-1.51,3-4,1.2-4.55,1.83-1.41,3.3-2.67,4.18-1.46.37-3.24.74-3.13,2.66-3.66,3.76.11,2.93-1.15,3-1.83-2.67-3-4.13a9.78,9.78,0,0,1-1.88-4.5c-.37-1.72.21-5.33,0-6.74s-4-3.92-5.33-5.65-3.24-5.17-3.14-6.32a4.71,4.71,0,0,1,1.57-2.88c.63-.47.37-.73.47-1.15s.63-.52.73-1a3.17,3.17,0,0,0-.83-2.35c-.53-.27-.89.62-1.21.47s-1.25-1.26-1.62-1.36-.26.68-.78-.32-.79-3.5-1.2-3.92-.74.73-1.73,0-1.41-2.14-1.83-2.35-1,.05-1.42-.78.38-2.36,0-2.2-1.19,1.36-1.4.21,1-5,.84-7.11a8.34,8.34,0,0,1,2-6.06s.21-1.15.42-1.89,4.7-3.66,5.23-4.49a4.05,4.05,0,0,0,.37-1.49,37.16,37.16,0,0,1,22.1-7.24c1,0,2,0,3,.12l.1.14a4.45,4.45,0,0,0,2.27,1.43c1.32.49,1.64,1.11,1.36,1.64a1.35,1.35,0,0,1-1.26.66c-.52,0-1-.25-1.56.1s-1.12,2.23-1.85,2.34-2-1.68-2.3-2.2.63-1.64.2-2.16-1.18-.42-2.36-.52-3.94.35-3.84.8,4-.07,4.15.84-2.89,2.44-3.41,2.3-1.22-1-2-1.15-1.4.52-1.88.59-1-.52-1.78-.38-.91.76-1.29,1-1.29.24-1.39.8,1.15.87,1.46,1.22-.38,1.53-.07,1.77,2.26-1.46,2.75-1.88.91-2.23,2-2.19,1.4,1.81,1.75,2,1.11-.41,2.26-.17,2,2.75,2.16,3.52.7,1.53.28,1.85a3,3,0,0,1-2.54-.7c-.25-.49,1.25-1.22,1.15-1.39a1.49,1.49,0,0,0-1.43-.15c-.45.27-.66.84-1.15,1s-1.78-1.32-2.13-.9.35,1.74.7,2,1.64.49,1.74.84-.87,1.11-2,1-2.16-1-2.62-.59-.21,1.4-.52,1.74-2,.11-2.86,1-1.22,2.27-2,3-1.22-.21-2.34.87S91.07,131,91,131.86s0,1.5-.28,1.39-.66-.83-.77-1.29.25-1.22.25-1.49a5,5,0,0,0-2.55-1.85c-.94-.14-1.78.63-2.47,1.18s-2,.46-2.41.91-.8,4.46-.45,5.4.8.94,1.92.45.48-1.42,1.15-1.22a1.57,1.57,0,0,1,1,1.47c0,.56-1.33,1.88-1.15,2.26s1.32-.07,1.88.11.83.52.66,1.95-.07,2.54.77,3,1.3-.67,1.67-.52.89,1,1.41.94.26-.52,1.26-.83.62-.53.83-1.15a1.15,1.15,0,0,1,1.52-.84c.68.31.21.78.26,1.31s1.25.57,2.2.89,1.46,0,3.34.62,2,2.51,2.77,2.83,3.4-.21,5.28,1.15,1.36,3.86,2.3,4.6,4.45,1.72,5.8,2,1.57-.68,2.67-.42a2.33,2.33,0,0,1,2.09,2.1C122.32,158.13,118.24,160.93,117.77,162.18Z"></path><path d="M89.68,135.45c0,.3.9.42,1.95,1s1.43,2.34,2,2.3.38-.84.59-1a.67.67,0,0,0,0-1.11c-.56-.45-1.1-1.43-2.12-1.57s-1.19-.56-1.65-.52A.78.78,0,0,0,89.68,135.45Z"></path><path d="M95.43,138.38c-.16.42,0,.73,1.11,1s2.16-.28,1.82-.51-.88-.12-.67-.5.14-.94-.76-.84S95.57,138,95.43,138.38Z"></path><path d="M99.33,138.5c-.38.05-.59.71-.21,1.13s.39.35.84,0,1.15-.52,1-.87S99.71,138.44,99.33,138.5Z"></path><path d="M102.36,139.92c.17-.52,1,0,1.43.55a2.22,2.22,0,0,1,0,1.95c-.21.59-.35,1.29-.83,1s0-1.11,0-1.6S102.22,140.35,102.36,139.92Z"></path><path d="M117.38,110.84c-.18.44.67.6,1.15.88s.88.45,1.15,0a.76.76,0,0,0-.48-1.08C118.81,110.53,117.56,110.43,117.38,110.84Z"></path><path d="M124,114.92c.32.34.87.28,1.26.77s.24,1.32.73,1.57.83,0,.87-.35-.7-1.22-.63-1.4,1,.25,1.22.77-.21,1.26.28,1.4.38-.49.59-.63.66-.07.63-.49a3.11,3.11,0,0,0-1-1.64,3.89,3.89,0,0,0-1.56-.83,2.33,2.33,0,0,0-1.89.27C124,114.68,123.77,114.71,124,114.92Z"></path><path d="M139.05,121.49a.65.65,0,0,1-.2.37c-.73.52-1.6-1.29-2.61-1.64s-1.46-1.64-1.67-1.36-.14.66-.46,1.12-.76.34-1,1.22,1,2.47.69,3-.62.35-1.18.32-.45.45-1.18.24-.11-1.12-1.26-2.2-1.53-1.28-1.29-1.77-.1-1.19.42-1.26.94.7,1.29.91.8-.42.83-1-1.22-1.32-1.67-1.75a3.13,3.13,0,0,1-.31-2.33c.17-.31.69-.2.83-1,.09-.45-.63-1.2-1.23-1.75A37.45,37.45,0,0,1,139.05,121.49Z"></path><path d="M144.25,152.74c.11-1.12-.45-1.19.11-3.25a6,6,0,0,0-1-4.7c-.42-.45-1.33-.31-2.06.14s-.21.8-.7,1-1-.1-1.42-.06-.88,1.18-1.85,1.15-1.6-1.43-2.34-2.43-2.23-1.62-2.71-2.84.45-3.1.24-4.53-1.15-1.11-1.33-1.91.14-.42.39-1.19-.28-1.18.21-2.51,1.36-2,1.15-2.58a10.18,10.18,0,0,1-.91-2.26c0-.7.66-.67,2-1.64s1.67-.91,2.68-.56a15,15,0,0,0,2.23.63c.59.1,1.4,1.64,1.64,1.57s.28-.53.38-1.19a1.56,1.56,0,0,1,.44-.75,37.36,37.36,0,0,1-1.48,41.71C143.46,161.08,144.15,153.85,144.25,152.74Z"></path></g><path d="M138.62,168.17a37.33,37.33,0,1,1-28.91-60.93c1,0,2,0,3,.12l.83.08a34.2,34.2,0,1,0,25,60.73Z" style="opacity:0.1"></path><path d="M147,144.56a37.14,37.14,0,0,1-7.13,21.95h0a37.48,37.48,0,0,1-13.4,11.4,37.77,37.77,0,0,0,11.77-10.55h0a37.56,37.56,0,0,0,1.48-42,36.86,36.86,0,0,0-2.34-3.33A37.44,37.44,0,0,0,111,107.87c-1-.09-2-.13-3.06-.13a37.62,37.62,0,0,0-9,1.09,37.12,37.12,0,0,1,10.82-1.59c1,0,2,0,3,.12a37.07,37.07,0,0,1,16.33,5.29,37.45,37.45,0,0,1,10,8.84,38.56,38.56,0,0,1,2.33,3.31A37.19,37.19,0,0,1,147,144.56Z" style="fill:#fff;opacity:0.30000000000000004"></path></g><g id="freepik--character-3--inject-30"><path d="M372.48,229.21s-.92,9.23-2.3,23.11c-.19,1.81-.37,3.69-.57,5.65v0c0,.18,0,.36-.07.56v0c-1.8,18-4.2,41.57-6.44,63.13-.07.62-.14,1.23-.2,1.85v0c-.07.7-.15,1.38-.22,2.06v0c-.09.85-.17,1.7-.27,2.53l-.33,3.2c-.16,1.58-.33,3.15-.49,4.7-.07.51-.12,1-.17,1.54-.1,1-.22,2-.32,3l-.78,7.25q-.15,1.4-.3,2.76c-.14,1.36-.28,2.68-.43,4-.09.86-.19,1.7-.28,2.53-.05.41-.09.81-.13,1.22s-.1.8-.14,1.2c-.08.78-.17,1.55-.26,2.3q-.06.57-.12,1.11c0,.32-.07.63-.1.94-.11.94-.21,1.84-.31,2.7-.07.58-.13,1.13-.2,1.67s-.12,1.06-.19,1.57c-.16,1.35-.31,2.57-.44,3.66-.29,2.36-.53,4-.69,4.89a21.42,21.42,0,0,0-.08,3.75v.06c0,.28,0,.58,0,.89s0,.34,0,.52a.33.33,0,0,0,0,.1c0,.58.05,1.2.08,1.86,0,.89.08,1.83.12,2.85l0,.77v.07c0,.78.07,1.59.11,2.43.06,1.76.12,3.65.17,5.68,0,.66,0,1.34,0,2,.06,3.11.09,6.49.05,10.09v.08c0,.58,0,1.16,0,1.75,0,.17,0,.34,0,.51h-54.6c0-3.63.09-7.12.14-10.41.22-11.18.58-20.12,1.13-24.67,1.95-16,11.86-93.5,16.46-129.35,1.31-10.21,2.18-17.05,2.32-18.11,0-.1,0-.15,0-.15Z" style="fill:#d3766a"></path><path d="M372.48,229.21s-.92,9.23-2.3,23.11c-.19,1.81-.37,3.69-.57,5.65v0c0,.18,0,.36-.07.56v0c-1.8,18-4.2,41.57-6.44,63.13-.07.6-.13,1.21-.2,1.8v.09c-.07.7-.15,1.38-.22,2.06v0c-.09.85-.17,1.7-.27,2.53l-.33,3.2c-.17,1.58-.34,3.15-.49,4.7-.07.51-.12,1-.17,1.54-.11,1-.22,2-.32,3l-.78,7.25q-.15,1.4-.3,2.76c-.15,1.36-.3,2.68-.43,4-.09.86-.19,1.7-.28,2.53-.05.41-.09.81-.13,1.22s-.1.8-.14,1.2c-.09.78-.17,1.55-.26,2.3q-.06.57-.12,1.11c0,.32-.07.63-.1.94-.12.94-.22,1.84-.31,2.7-.08.58-.14,1.13-.2,1.67s-.12,1.06-.19,1.57c-.16,1.35-.31,2.57-.44,3.66-.31,2.36-.55,4-.7,4.89a20.74,20.74,0,0,0-.07,3.75v.06c0,.28,0,.58,0,.89s0,.34,0,.52a.33.33,0,0,0,0,.1c0,.58.05,1.2.08,1.86q0,1.32.12,2.85l0,.77v.07c0,.78.07,1.59.11,2.43.06,1.76.12,3.65.17,5.68,0,.66,0,1.34,0,2,.06,3.11.09,6.49.05,10.09v.08c0,.58,0,1.16,0,1.75v.52h-4.77l-.31-2-10.62-65.18v0l-.18-1h0L334.29,300h0l-.17-1h0l-5.78-35.46h0l-.07-.48h0l-2.45-15-1.32-8.16h0l0-.14-.32-2-1.39-8.49Z" style="fill:#263238"></path><path d="M408.93,411.9H357.15c-.06-.75-.13-1.49-.2-2.23-1.06-12.35-1.81-22.36-1.92-27.36-.11-4.68-1.21-24-2.42-44.21-.06-1.14-.13-2.28-.2-3.42-1.49-24.86-3.06-49.92-3.06-49.92-1.89-1.05-3.64-1.95-5.22-2.71L344,282a79.93,79.93,0,0,0-8.37-3.59l-.15-.05-.76-.26a158.36,158.36,0,0,1-6-19.19,2.12,2.12,0,0,1-.09-.31c-.91-3.62-1.72-7.2-2.44-10.54-.64-3-1.2-5.84-1.67-8.34a.68.68,0,0,0,0-.14c-.13-.64-.24-1.25-.34-1.85-.82-4.46-1.31-7.57-1.42-8.34,0-.11,0-.16,0-.19h66a78,78,0,0,1,7.81,25.73,94.46,94.46,0,0,1-.16,26.54c4.63,38.45,9,87.08,9.45,98.59.06,1.68.76,8.81,1.81,18.92C408,402.86,408.44,407.22,408.93,411.9Z" style="fill:#d3766a"></path><path d="M322.7,229.16s-20.83,141.75-21.65,154.93-.36,16.75-.36,16.75,29.11,9.08,44.34,9.22c33.89.31,66.1-12.42,66.1-12.42s-13.76-115.87-13.86-116.15a80.22,80.22,0,0,0-7.31-52.4Z" style="fill:#37474f"></path><path d="M325.7,229.17l-10,87.77-5.27,45.82-1.28,11.46c-.39,3.83-.88,7.64-1.13,11.47-.25,5.75-.23,11.51-.1,17.28,0,0,0,0,0,0-.15-5.75-.2-11.51.05-17.26.24-3.84.71-7.66,1.1-11.48l1.25-11.47,5.11-45.83,10.26-87.74Z" style="fill:#455a64"></path><path d="M407.37,399h0c-1.49-8.94-2.61-17.95-3.82-26.95C402.2,362,401,351.83,399.7,341.7q-3.78-30.36-7.17-60.76v0a63.68,63.68,0,0,0,1.37-13.63,101.1,101.1,0,0,0-1.25-13.67,133.89,133.89,0,0,0-3-13.41c-1.07-3.74-2.25-7.46-3.64-11.11h0c1.41,3.64,2.61,7.36,3.67,11.1a131.35,131.35,0,0,1,3.06,13.41A101.18,101.18,0,0,1,394,267.28,63.45,63.45,0,0,1,392.7,281l7.19,60.73q1.83,15.19,3.74,30.37C404.81,381.05,405.89,390.06,407.37,399Z" style="fill:#455a64"></path><path d="M346.22,229.14l-3.58,90.61-2,47.6-.51,11.9c-.16,4-.4,7.92-.38,11.9,0,6.2.13,12.42.31,18.62h0c-.19-6.21-.33-12.41-.35-18.61,0-4,.2-7.94.34-11.92l.47-11.89,1.88-47.6,3.85-90.6Z" style="fill:#455a64"></path><path d="M398.78,401.75l0,0-5.82-57.39q-3.24-31.71-6.3-63.44v0a92.17,92.17,0,0,0-.12-13.6c-.3-4.53-.86-9.05-1.49-13.54s-1.41-9-2.24-13.44c-.72-3.76-1.49-7.52-2.34-11.24h0c.86,3.72,1.63,7.48,2.35,11.24.86,4.46,1.64,8.93,2.29,13.43s1.22,9,1.55,13.54a92.42,92.42,0,0,1,.15,13.62q3.22,31.71,6.34,63.42Z" style="fill:#455a64"></path><path d="M331,229.15l-7,90-3.66,46.7-.86,11.68c-.15,1.95-.27,3.9-.38,5.84l-.14,5.86-.38,16.48h0l.34-16.47.13-5.86c.11-1.94.22-3.9.36-5.85l.84-11.68,3.51-46.72,7.23-90Z" style="fill:#455a64"></path><path d="M338.6,229.14l-5.48,90.08-3,46.71-.75,11.69c-.2,3.89-.57,7.77-.62,11.68-.15,6.24-.14,12.48,0,18.71h0c-.13-6.23-.16-12.46,0-18.7,0-3.91.39-7.8.59-11.7l.71-11.67,2.85-46.72,5.75-90.07Z" style="fill:#455a64"></path><path d="M352.37,367.75c-.05,7.87-.2,15.74-.08,23.61q.09,9.28.3,18.56h0q-.22-9.27-.35-18.57c-.15-7.87,0-15.74,0-23.61l.26-47.2.77-91.42h0l-.51,91.42Z" style="fill:#455a64"></path><path d="M389.22,404.36h0l-4.93-58.3q-2.73-32-5.3-64h0a63.74,63.74,0,0,0-.25-6.9q-.25-3.43-.58-6.89-.64-6.88-1.39-13.77c-.9-8.45-1.89-16.92-2.91-25.38h0c1,8.45,2.05,16.91,3,25.38.51,4.58,1,9.17,1.44,13.76q.33,3.45.6,6.89a63.84,63.84,0,0,1,.27,6.92q2.72,32,5.33,64Z" style="fill:#455a64"></path><path d="M377.34,407h0l-4.55-88.39-1.12-23.12-.57-11.54-.7-11.56-2.65-43.23h0l2.78,43.23.74,11.54.59,11.56,1.2,23.11Z" style="fill:#455a64"></path><polygon points="364.83 408.9 364.82 408.9 362.52 319.26 360.48 229.12 362.8 319.26 364.83 408.9" style="fill:#455a64"></polygon><path d="M398.1,255,320,247.43c1.63-11.16,2.67-18.26,2.67-18.26l67.26-.08A79.66,79.66,0,0,1,398.1,255Z" style="fill:#263238"></path><path d="M339.05,105.76c-9.09,5.69-14,17.34-14,17.34s-9.9,10.61-9.42,17.69a12.4,12.4,0,0,0,5.83,9.93l.13-3.83s1.31,5.26,8.84,9,18.62,3.66,24.73,2.14a21.59,21.59,0,0,0,9.66-5.25l-3.27,4.87s7.79,1.48,14.26-5.69-4-22-4.57-24.8,2.26-21.67-18-22.91C353.28,104.23,345.31,101.84,339.05,105.76Z" style="fill:#263238"></path><path d="M318.77,149.6a12.75,12.75,0,0,1-3.93-6.58,11.7,11.7,0,0,1,.43-7.59c1.23-2.88,3.42-5.16,5.54-7.39s4.58-4.46,6.73-6.81c.12-.13-.07-.3-.21-.21a72,72,0,0,0-6.3,5.29,33.62,33.62,0,0,0-5.32,5.67,12.64,12.64,0,0,0-2.45,6.63,12.21,12.21,0,0,0,1.27,5.69,26.15,26.15,0,0,0,4.1,5.44C318.72,149.85,318.88,149.69,318.77,149.6Z" style="fill:#263238"></path><path d="M379.4,143.85c-.79-7.36-5.94-13.09-8.32-19.89-1.29-3.69-2-7.62-4-11-.06-.1-.22,0-.17.09,1.59,3,2.15,6.33,3.06,9.57a50.78,50.78,0,0,0,4,9.37c2.81,5.52,6.19,12.06,3.82,18.35-1.09,2.9-3.61,5.82-6.9,6-.13,0-.1.22,0,.2a9.84,9.84,0,0,0,6.58-4.16A12.55,12.55,0,0,0,379.4,143.85Z" style="fill:#263238"></path><path d="M379.26,145.76a12.82,12.82,0,0,0,0-7.8,18.18,18.18,0,0,0-4.39-6.47c-2.07-2.18-4.29-4.31-5.26-7.24,0-.12-.22,0-.18.08,1.49,4.81,5.72,7.85,8.07,12.14,2.69,4.91,1.33,10.86-2.22,15a21.26,21.26,0,0,1-8.13,5.61c-.05,0,0,.1,0,.08C372.47,155.14,377.59,151.41,379.26,145.76Z" style="fill:#263238"></path><path d="M345.86,168.86c-8.55,11.63-29.61,42-45.73,40.52-13.79-1.31-41-12.59-46.79-15-2.69-1.09,10.86-31.28,17.27-28.78,10.19,4,19.79,11.31,30.62,13.11,4.43.74,14.22-7.06,35.57-19C348.31,153.35,351.56,161.09,345.86,168.86Z" style="fill:#d3766a"></path><path d="M265.06,197.45c-7.76-.29-22.32-7.33-30.93-12.75-4.55-2.86-16-12.55-14.78-15.24,1.15-2.46,5.44-.73,5.44-.73s-5-5.48-3.64-7.69c1.95-3.22,7.33.76,7.33.76s-5-4.6-3.09-7.85,7.7,1.08,7.7,1.08-4.76-4-1.93-6c3.41-2.35,11.39,5.92,16.87,8.25,1.25.53,22.84,12.66,22.84,12.66Z" style="fill:#d3766a"></path><path d="M224.76,168.84a63.14,63.14,0,0,0,15.73,9.31c1.6.69,3.24,1.28,4.84,1.94a.06.06,0,0,0,0-.11,86.13,86.13,0,0,1-8.17-4.19c-2.64-1.46-5.23-3-7.84-4.53-1.49-.85-3-1.75-4.43-2.62C224.81,168.57,224.65,168.75,224.76,168.84Z" style="fill:#263238"></path><path d="M228.26,161.77c1.09.92,2.19,1.8,3.36,2.61s2.48,1.62,3.76,2.36a75.48,75.48,0,0,0,7.75,3.85c1.52.66,3.09,1.19,4.65,1.75.11,0,.16-.12.05-.17-2.64-1.14-5.22-2.5-7.76-3.84s-5-2.78-7.44-4.24l-4.23-2.49C228.29,161.54,228.16,161.69,228.26,161.77Z" style="fill:#263238"></path><path d="M232.87,154.86a62.38,62.38,0,0,0,8.15,5.9,86.31,86.31,0,0,0,9,4.86c.07,0,.12-.05.06-.09-2.83-1.82-5.7-3.6-8.54-5.43s-5.67-3.62-8.58-5.32C232.89,154.75,232.82,154.82,232.87,154.86Z" style="fill:#263238"></path><path d="M273.55,168.73s-3.8-9.19-7.19-12.28-19.09-9.71-20.07-6c-1.26,4.77,7.39,10.59,11.88,12.84,0,0-2.92,11.05,2.68,16.67S273.55,168.73,273.55,168.73Z" style="fill:#d3766a"></path><path d="M246.34,151.94c1.69,5.75,7.69,8.29,11.94,10.83a.56.56,0,0,1,.2.79c-1,4.76-1,12,2.09,16.4.09.13,0,.27-.14.15-3.85-4.26-4.27-11.46-2.93-16.56-4.39-2.53-10.35-5.37-11.21-11.6C246.28,151.91,246.33,151.9,246.34,151.94Z" style="fill:#263238"></path><path d="M276.93,166.3l-14.11,36.4s29.21,10.2,42.42,7.9,31.76-26.81,39.95-39c8.93-13.3,2.34-19.17-12-10.83S303,178,301.61,178,276.93,166.3,276.93,166.3Z" style="fill:#37474f"></path><path d="M283.24,170.45a40.11,40.11,0,0,1-1.3,4.39c-.46,1.46-.89,2.93-1.37,4.38-.92,2.8-1.91,5.57-2.93,8.33a174.72,174.72,0,0,1-6.83,16.36c-.05.11-.24,0-.2-.09,2-5.66,4.22-11.22,6.32-16.84,1-2.76,2.05-5.53,3.07-8.29.52-1.38,1.07-2.75,1.57-4.14a43.21,43.21,0,0,1,1.55-4.16C283.15,170.31,283.26,170.37,283.24,170.45Z" style="fill:#263238"></path><path d="M297.06,210.78a34,34,0,0,0,8.18-.18c13.21-2.3,31.76-26.82,39.95-39,5.25-7.83,5.14-13.09,1.21-14.38C335,169.3,312.12,193.71,297.06,210.78Z" style="fill:#263238"></path><path d="M320.82,238.68s50.45,2.18,71.8-.35c0,0-14.61-61.65-30.16-78.27-7.08-7.56-14-6.4-19.86-1.54-1.46,1.22-19.59,24.23-21.13,32.26-1.36,7.09,4.4,14.95,4.4,14.95Z" style="fill:#ebebeb"></path><polygon points="347.85 174.1 345.18 168.49 340.64 172.78 341.43 176.91 345.81 177.39 347.85 174.1" style="fill:#38E0BE"></polygon><polygon points="345.81 177.39 344.71 219.3 335.28 237.84 329.11 219.31 341.43 176.91 345.81 177.39" style="fill:#38E0BE"></polygon><path d="M343.18,157.79s-7.77,20.89-8.24,26.25,1.94,25.51,1.94,25.51,11.82-21.26,14.68-28.14C356,170.72,357,155.85,357,155.85s4.43,2,10.25,10c7.78,10.66,21.83,50.76,26.43,73.09l-53.12,7.63-5.28-8.73-3.62,8.73-12.6-7,6.81-33.82s-6.59-7.17-3.82-16.87C325.05,178.31,343.18,157.79,343.18,157.79Z" style="fill:#37474f"></path><path d="M336.87,209.51l-7.76-24.14,5.32-6.4-4.62-.9s12.09-18.76,13.35-20.26c-.29.79-7.75,21-8.22,26.23S336.74,208.42,336.87,209.51Z" style="fill:#263238"></path><path d="M353.72,180.57l2.29,8.09-19.12,20.88c.35-.65,11.85-21.36,14.67-28.13C356,170.73,357,155.85,357,155.85l2.07,23.21Z" style="fill:#263238"></path><path d="M325.45,181.09c1.09-1.64,2.2-3.28,3.36-4.87.19-.56.42-1.11.63-1.66a18.3,18.3,0,0,1,1.18-2.34,20,20,0,0,1-.87,2.46c-.11.23-.2.44-.3.67,1.16-1.57,2.36-3.12,3.59-4.63-2.27,3.63-4.74,7.13-7,10.73a50.55,50.55,0,0,0-3.18,5.52,16.33,16.33,0,0,0-.78,1.89,15.44,15.44,0,0,0,.46,10,34.18,34.18,0,0,0,1.92,5,.1.1,0,1,1-.18.1,48.47,48.47,0,0,1-2.31-5.08,17,17,0,0,1-1.09-5.28C320.54,188.47,323.15,185.05,325.45,181.09Z" style="fill:#263238"></path><path d="M336.88,209.55c0,2.37,0,4.73-.11,7.09s-.21,4.72-.32,7.08-.29,4.71-.48,7.06-.4,4.71-.69,7.06c0-2.37,0-4.73.11-7.09s.21-4.72.32-7.08.29-4.71.48-7.06S336.59,211.9,336.88,209.55Z" style="fill:#263238"></path><path d="M341.6,215.68a1.59,1.59,0,0,1-1.4,1.59,1.64,1.64,0,0,1-1.22-.37,1.63,1.63,0,0,1-.55-1.22,1.66,1.66,0,0,1,.55-1.22,1.69,1.69,0,0,1,1.22-.37A1.6,1.6,0,0,1,341.6,215.68Zm0,0a1.25,1.25,0,0,0-.45-1,1.27,1.27,0,0,0-.95-.26,1.23,1.23,0,0,0,0,2.43,1.31,1.31,0,0,0,1-.26A1.28,1.28,0,0,0,341.6,215.68Z" style="fill:#263238"></path><path d="M341.16,224.43a1.6,1.6,0,0,1-1.4,1.59,1.65,1.65,0,0,1-1.21-.37,1.6,1.6,0,0,1-.56-1.22,1.66,1.66,0,0,1,.55-1.22,1.69,1.69,0,0,1,1.22-.37A1.6,1.6,0,0,1,341.16,224.43Zm0,0a1.24,1.24,0,0,0-.44-1,1.22,1.22,0,1,0,0,1.9A1.24,1.24,0,0,0,341.16,224.43Z" style="fill:#263238"></path><path d="M340.72,233.18a1.6,1.6,0,0,1-1.4,1.59,1.65,1.65,0,0,1-1.21-.37,1.62,1.62,0,0,1,0-2.44,1.59,1.59,0,0,1,2.62,1.22Zm0,0a1.24,1.24,0,0,0-.44-1,1.22,1.22,0,1,0,0,1.9A1.24,1.24,0,0,0,340.72,233.18Z" style="fill:#263238"></path><polygon points="358.6 217.55 377.31 214.17 377.91 216.58 359.04 220 358.6 217.55" style="fill:#263238"></polygon><path d="M355.15,165.75c2.86,8,34.52,79.54,39.33,80.1,14.16,1.66,31,2.19,29.57-9.13-2.26-17.77-38.71-57.8-57.33-74.08C355.58,152.9,352.33,157.89,355.15,165.75Z" style="fill:#37474f"></path><path d="M385.72,232.34c-2.27-4.09-4.42-8.24-6.54-12.4S375,211.57,373,207.38s-4-8.46-5.88-12.73-3.74-8.57-5.38-13l12.16,25.24,6,12.67,3,6.35Z" style="fill:#263238"></path><path d="M361,184.54a10.87,10.87,0,0,1,2.47,2.1,10.42,10.42,0,0,1,1.83,2.68,15,15,0,0,1-2.38-2.18A14.21,14.21,0,0,1,361,184.54Z" style="fill:#263238"></path><polygon points="362.38 251.45 370.74 188.91 418.06 196.05 409.71 258.59 362.38 251.45" style="fill:#38E0BE"></polygon><polygon points="418.89 216.85 421.47 197.57 418.06 196.05 415.27 216.93 418.89 216.85" style="fill:#38E0BE"></polygon><g style="opacity:0.2"><polygon points="362.38 251.45 370.74 188.91 418.06 196.05 409.71 258.59 362.38 251.45"></polygon><polygon points="418.89 216.85 421.47 197.57 418.06 196.05 415.27 216.93 418.89 216.85"></polygon></g><polygon points="362.4 251.35 370.77 188.66 416.75 192.76 408.37 255.45 362.4 251.35" style="fill:#38E0BE"></polygon><polygon points="362.4 251.35 370.77 188.66 416.75 192.76 408.37 255.45 362.4 251.35" style="opacity:0.1"></polygon><path d="M368.31,205c-2.12,2.48-.32,5.35-.32,5.35a7,7,0,0,0-3.76,2.89c-1.43,2.49,1.85,5.83,1.85,5.83a8.55,8.55,0,0,0-3.48,3.67c-1.13,2.53,1.7,6.36,1.7,6.36a7.52,7.52,0,0,0-1,5.16c1,4.75,7.89,7.33,12.28,9s18.41,2.37,21.07,2.78L407.71,218s-17.51-13.17-22.95-14.43C380.17,202.54,370.69,202.22,368.31,205Z" style="fill:#d3766a"></path><path d="M405.64,216.49c5.15,3.15,20.92,15.72,18.32,23.25s-14.16,8-30.48,6Z" style="fill:#d3766a"></path><path d="M368.36,210c5.14-.05,10,1.43,15,2.62a.09.09,0,0,1-.05.18c-4.9-1.25-10-1.51-14.94-2.56A.12.12,0,0,1,368.36,210Z" style="fill:#263238"></path><path d="M366.31,218.75a14,14,0,0,1,3.43.76c1.19.36,2.37.73,3.55,1.12q3.54,1.17,7,2.52c.1,0,.07.21,0,.17-2.36-.77-4.72-1.51-7.11-2.19-1.19-.34-2.39-.67-3.58-1a15.55,15.55,0,0,1-3.35-1.06A.18.18,0,0,1,366.31,218.75Z" style="fill:#263238"></path><path d="M364.4,229.15a9.4,9.4,0,0,1,3,.85l3.21,1.12c2.15.73,4.29,1.47,6.46,2.13.11,0,.07.2,0,.17-2.21-.66-4.42-1.29-6.63-2l-3.23-1a8.86,8.86,0,0,1-2.85-1.18A.06.06,0,0,1,364.4,229.15Z" style="fill:#263238"></path><path d="M405.64,216.49c5.15,3.15,20.92,15.72,18.32,23.25s-13.67,9.95-29.14,9.26Z" style="fill:#37474f"></path><path d="M406.26,216.67a46.3,46.3,0,0,1,5.19,3.55l1.24,1,.52.26c.73.37,1.44.77,2.13,1.21a36.67,36.67,0,0,1,3.81,2.85c.09.07,0,.2-.11.14a32.22,32.22,0,0,0-4-2.62l-.55-.29c.7.62,1.38,1.27,2,1.94a60.5,60.5,0,0,1,4.84,5.66c.07.09-.08.19-.15.1-2.73-3.5-14-12.45-15.2-13.53S405.34,216.08,406.26,216.67Z" style="fill:#263238"></path><path d="M356.5,160c-.37,1.31-5.83,8.15-11.89,7.58-2-.2-2.7-9.53-2.7-9.53l-.15-.81-2-11.31,13.55-7.79,1.95-1s.33,3.13.71,7c0,.18,0,.36.05.55s.06.43.07.64c.07.58.13,1.18.18,1.77s.08.89.1,1.36.07.94.1,1.42A73,73,0,0,1,356.5,160Z" style="fill:#d3766a"></path><path d="M356,144.12a23,23,0,0,1-14.25,13.1l-2-11.31,13.55-7.79,1.95-1S355.63,140.22,356,144.12Z" style="fill:#263238"></path><path d="M327.37,123.82c-5,19.52,6.17,24.69,10.38,25.76,3.83,1,17,3.76,23.91-15.14s-.56-27.38-9.19-30S332.32,104.3,327.37,123.82Z" style="fill:#d3766a"></path><path d="M333.53,121.16c.47,0,.92,0,1.39,0a2.24,2.24,0,0,0,1.42-.25.71.71,0,0,0,.2-.85,1.77,1.77,0,0,0-1.61-.8,2.66,2.66,0,0,0-1.81.53A.77.77,0,0,0,333.53,121.16Z" style="fill:#263238"></path><path d="M347.08,124.36c-.44-.16-.83-.38-1.26-.58a2.28,2.28,0,0,1-1.17-.84.72.72,0,0,1,.2-.86,1.78,1.78,0,0,1,1.8,0,2.65,2.65,0,0,1,1.39,1.27A.77.77,0,0,1,347.08,124.36Z" style="fill:#263238"></path><path d="M342.86,128.46s.09.09.08.15c-.39,1.32-.6,2.89.49,3.64,0,0,0,.09,0,.07C342,131.74,342.29,129.65,342.86,128.46Z" style="fill:#263238"></path><path d="M344.4,127.38c2.18.38,1.26,4.71-.76,4.36S342.58,127.06,344.4,127.38Z" style="fill:#263238"></path><path d="M345.2,127.79c.33.33.61.84,1.05,1a1.63,1.63,0,0,0,1.45-.57c.05,0,.08,0,.07.07-.17.83-.67,1.62-1.58,1.55s-1.27-.92-1.29-1.8C344.89,127.86,345.07,127.66,345.2,127.79Z" style="fill:#263238"></path><path d="M335.1,126.38c0-.06-.11,0-.12.09-.24,1.36-.73,2.87-2,3.06a0,0,0,0,0,0,.08C334.46,129.7,335.1,127.7,335.1,126.38Z" style="fill:#263238"></path><path d="M334.19,124.73c-2.12-.61-3.18,3.69-1.21,4.25S336,125.24,334.19,124.73Z" style="fill:#263238"></path><path d="M333.23,124.79c-.4.14-.84.47-1.25.4s-.71-.64-.9-1.16c0,0-.06,0-.08,0-.22.82-.16,1.74.59,2.1s1.39-.26,1.78-1C333.45,125,333.39,124.73,333.23,124.79Z" style="fill:#263238"></path><path d="M339.62,139.44c-.37.27-.77.65-1.27.61a3.63,3.63,0,0,1-1.39-.59s-.09,0-.07.06a1.81,1.81,0,0,0,1.59,1,1.45,1.45,0,0,0,1.26-1C339.78,139.45,339.68,139.4,339.62,139.44Z" style="fill:#263238"></path><path d="M334.94,136.09a5.58,5.58,0,0,0,1.66,2.29,2.5,2.5,0,0,0,1.44.52c1.15,0,1.46-.93,1.51-1.82a5.9,5.9,0,0,0-.11-1.41A7.27,7.27,0,0,1,334.94,136.09Z" style="fill:#263238"></path><path d="M336.6,138.38a2.5,2.5,0,0,0,1.44.52c1.15,0,1.46-.93,1.51-1.82A2.61,2.61,0,0,0,336.6,138.38Z" style="fill:#ff9cbd"></path><path d="M335.13,133.34s-.73,1.94-.95,2.88c0,.09.2.18.52.27,0,0,0,0,0,0a4.57,4.57,0,0,0,4.72-.69c.09-.07,0-.2-.11-.16a6.9,6.9,0,0,1-4.35.25c0-.28,1.36-3.27,1.21-3.32a8.46,8.46,0,0,0-2.25,0c1.4-4.07,3.44-7.89,4.77-12a.13.13,0,0,0-.23-.12c-2.42,3.85-4.13,8.51-5.69,12.68C332.61,133.69,334.71,133.42,335.13,133.34Z" style="fill:#263238"></path><path d="M341.5,107.26s-.93,3,0,5.27c2,4.63,7.49,3.67,9.28,5.55s.91,5.21,2.43,7c2.09,2.42,5.12,1.65,5.41,3.23s1.12,6.62,3.09,7.34,12.58-32.06-13.58-32.15c0,0-3.52-1.62-9.2.94-6.27,2.82-9.38,12.79-9.38,12.79s.14-.13,1.07-.88c1.3-1,1.84-2.06,2.79-2.74,1.5-1.07,2.28-.61,3.83-1.64A17.05,17.05,0,0,0,341.5,107.26Z" style="fill:#263238"></path><path d="M342,105.84a17.42,17.42,0,0,0-.93,4,7.24,7.24,0,0,0,.38,3.9,5.43,5.43,0,0,0,2.9,2.46c1.22.51,2.59.7,3.9,1.3a4,4,0,0,1,1.69,1.39,5.24,5.24,0,0,1,.68,2,7.29,7.29,0,0,0,1.29,3.67,4.49,4.49,0,0,0,3.44,1.62c1.32.06,2.79-.24,4.05.39-1.31-.53-2.67-.12-4.05-.07a4.93,4.93,0,0,1-3.81-1.61A7.35,7.35,0,0,1,350,121a5,5,0,0,0-.62-1.81,3.47,3.47,0,0,0-1.46-1.14c-1.17-.56-2.55-.78-3.85-1.34a6.75,6.75,0,0,1-1.81-1.1,4.15,4.15,0,0,1-1.31-1.7,7.74,7.74,0,0,1-.25-4.15A17.49,17.49,0,0,1,342,105.84Z" style="fill:#263238"></path><path d="M341.41,107a14.1,14.1,0,0,1-1.42,3.55,6.71,6.71,0,0,1-2.75,2.76,9.41,9.41,0,0,1-1.83.62,3.13,3.13,0,0,0-1.45.89,9.64,9.64,0,0,1-1.21,1.49,4.18,4.18,0,0,1-1.69.89,4.64,4.64,0,0,0,1.47-1.12,9.34,9.34,0,0,0,1-1.56,3.33,3.33,0,0,1,1.67-1.16,10,10,0,0,0,1.73-.62,7.07,7.07,0,0,0,2.6-2.47A28.21,28.21,0,0,0,341.41,107Z" style="fill:#263238"></path><path d="M359.87,141.65a4.14,4.14,0,0,1-1,.08,2.78,2.78,0,0,1-.94-.13,2.73,2.73,0,0,1-1.09-.55,3.32,3.32,0,0,1-.65-.71,3.79,3.79,0,0,1-.57-1.24l2-5.13s5.36-5.49,7.92-3.48S363.38,141,359.87,141.65Z" style="fill:#d3766a"></path><path d="M364.13,132.88c.05,0,.05.08,0,.09-2.47.56-4,2.51-5.26,4.6a1.88,1.88,0,0,1,2.86-.06.08.08,0,0,1-.08.12,2.1,2.1,0,0,0-2.4.35,10.11,10.11,0,0,0-1.39,1.66c-.14.19-.5,0-.38-.21l0-.05C357.93,136.41,360.91,132.66,364.13,132.88Z" style="fill:#263238"></path><path d="M359.73,140.76a.93.93,0,0,1-1.2.55.94.94,0,1,1,.66-1.75A.93.93,0,0,1,359.73,140.76Z" style="fill:#fff"></path><path d="M361.85,139.68a.66.66,0,1,1-1.23-.46.66.66,0,1,1,1.23.46Z" style="fill:#fff"></path><path d="M341.74,157.46l3.81,9.06L356.7,154.8l3.27,3.66s-10.8,18.5-10.88,17.68l-3.88-7.81-5.34,5.56.22-13.74Z" style="fill:#ebebeb"></path><path d="M339.59,167.09c.12-2.27.17-4.55.39-6.81,0-.08.13-.12.15,0,.49,2.17,0,10.84.05,12.92l0,0c.23-.24,5-4.89,5-4.82.83,1.24,3.68,6.92,3.88,7.44,1.7-2.94,8.26-13.63,10.29-16.42a.08.08,0,0,1,.14.08c-1.51,3.1-10.17,17.49-10.31,17.45a87.63,87.63,0,0,1-4.06-8.25c-.8,1-5.57,6.25-5.59,5.92A74.25,74.25,0,0,1,339.59,167.09Z" style="fill:#263238"></path></g><g id="freepik--speech-bubble--inject-30"><path d="M380.53,99.61a15.85,15.85,0,0,1-2.7-8.72c0-11,12.13-20,27.08-20s27.07,9,27.07,20-12.11,20-27.07,20a32.5,32.5,0,0,1-18.67-5.53l-9.33,2.37Z" style="fill:#fffefd"></path><path d="M380.53,99.61a15.5,15.5,0,0,1-.67-16.74,21.28,21.28,0,0,1,6-6.5,28.27,28.27,0,0,1,7.88-4A35.72,35.72,0,0,1,411.23,71a31.73,31.73,0,0,1,8.48,2.63A26.55,26.55,0,0,1,427,78.71a18.76,18.76,0,0,1,4.73,7.57,15.27,15.27,0,0,1,.08,8.93,18.5,18.5,0,0,1-4.61,7.64A26,26,0,0,1,420,108a34.83,34.83,0,0,1-17.29,3.19,32.26,32.26,0,0,1-16.58-5.63l.19,0-9.35,2.26-.23,0,.1-.2Zm0,0L377,107.78l-.13-.16,9.3-2.48.1,0,.09.06a31.78,31.78,0,0,0,16.35,5.29,36.31,36.31,0,0,0,8.65-.59,31.27,31.27,0,0,0,8.22-2.67,25.23,25.23,0,0,0,7-5A17.55,17.55,0,0,0,430.91,95a14.33,14.33,0,0,0-.11-8.38,17.76,17.76,0,0,0-4.45-7.19,25.42,25.42,0,0,0-7-4.9,30.71,30.71,0,0,0-8.23-2.6,38,38,0,0,0-8.65-.48,35.82,35.82,0,0,0-8.51,1.6c-5.49,1.74-10.64,5.13-13.69,10.09A15.53,15.53,0,0,0,378,91.36,15.89,15.89,0,0,0,380.53,99.61Z" style="fill:#263238"></path><circle cx="417.46" cy="90.89" r="2.81" style="fill:#263238"></circle><path d="M402.1,90.89a2.81,2.81,0,1,0,2.81-2.81A2.81,2.81,0,0,0,402.1,90.89Z" style="fill:#263238"></path><path d="M389.56,90.89a2.81,2.81,0,1,0,2.8-2.81A2.8,2.8,0,0,0,389.56,90.89Z" style="fill:#263238"></path></g><g id="freepik--Platform--inject-30"><rect x="316.76" y="247.44" width="147.29" height="13.81" style="fill:#dbdbdb"></rect><polygon points="459.02 412.04 321.79 412.04 326.11 274.71 326.64 261.25 326.64 261.24 453.62 261.24 453.62 261.25 459.02 412.04" style="fill:#dbdbdb"></polygon><polygon points="443.43 412.04 337.5 412.04 341.23 289.5 439.28 289.5 439.44 293.1 443.43 412.04" style="fill:#a6a6a6"></polygon><polygon points="443.5 412.04 341.76 412.04 345.27 293.1 439.61 293.1 443.5 412.04" style="fill:#c7c7c7"></polygon><polygon points="454.08 271.75 326.1 274.71 326.64 261.25 453.62 261.25 454.08 271.75" style="fill:#c7c7c7"></polygon><rect x="421.86" y="244.24" width="18.15" height="3.2" style="fill:#263238"></rect><polygon points="430.44 245.19 426.47 214.19 416.11 201.44 416.87 200.82 427.4 213.79 431.42 245.06 430.44 245.19" style="fill:#263238"></polygon><path d="M413.87,198.86c1.67-1.6,5.47,2.09,3.67,3.82S412.38,200.29,413.87,198.86Z" style="fill:#263238"></path><polygon points="35.95 412.04 89.47 411.8 142.98 411.71 250 411.54 357.02 411.71 410.53 411.8 464.05 412.04 410.53 412.29 357.02 412.38 250 412.54 142.98 412.37 89.47 412.29 35.95 412.04" style="fill:#263238"></polygon></g><g id="freepik--Mugs--inject-30"><path d="M247.27,429.93c0,1.72-8.63,3.11-19.28,3.11s-19.29-1.39-19.29-3.11,8.64-3.11,19.29-3.11S247.27,428.21,247.27,429.93Z" style="fill:#dbdbdb"></path><path d="M228,431.39c-1.23,0-12-.05-12-1.46s10.74-1.45,12-1.45,12,0,12,1.45S229.21,431.39,228,431.39Zm-11.42-1.46c.63.42,4.74,1,11.42,1s10.78-.54,11.41-1c-.63-.42-4.73-.95-11.41-.95S217.2,429.51,216.57,429.93Z" style="fill:#c7c7c7"></path><rect x="221.19" y="427.82" width="13.59" height="2.12" style="fill:#37474f"></rect><rect x="221.19" y="427.82" width="13.59" height="1.4" style="opacity:0.1"></rect><path d="M205.06,422.11a7.69,7.69,0,0,0,7.65,3.28,8.52,8.52,0,0,0,1.38-.4,9.37,9.37,0,0,0,1.92-1l-1.73-2.56a6.72,6.72,0,0,1-1,.58,4.52,4.52,0,0,1-5.69-1.67c-1.86-2.62-2.53-8.6-.64-10.9.13-.17.67-.44,2.86,0,.4.09.86.19,1.38.33a5.18,5.18,0,0,0,1.24.27l.06-1.54.15-1.53-.65-.17a20.32,20.32,0,0,0-3.09-.64c-1.61-.17-3.3,0-4.34,1.3C201.48,411.23,202.72,418.83,205.06,422.11Z" style="fill:#37474f"></path><path d="M214.28,421.42a6.72,6.72,0,0,1-1,.58l.83,3a9.37,9.37,0,0,0,1.92-1Z" style="opacity:0.1"></path><path d="M208.88,406.18l.91,3.28c.4.09.86.19,1.38.33a5.18,5.18,0,0,0,1.24.27l.06-1.54.15-1.53-.65-.17A20.32,20.32,0,0,0,208.88,406.18Z" style="opacity:0.1"></path><path d="M246.07,402.17s-1.63,13.85-4.45,19.69-6.75,6.48-9.19,6.48h-8.89c-2.44,0-6.37-.66-9.19-6.48s-4.44-19.69-4.44-19.69Z" style="fill:#37474f"></path><path d="M244.32,412.83l-.39,1.76H212c-.13-.59-.26-1.17-.38-1.76Z" style="opacity:0.1"></path><path d="M243.5,416.35c-.35,1.31-.71,2.57-1.12,3.67H213.59c-.4-1.1-.77-2.36-1.11-3.67Z" style="opacity:0.1"></path><path d="M259.5,429.93c0,1.72,8.64,3.11,19.29,3.11s19.28-1.39,19.28-3.11-8.63-3.11-19.28-3.11S259.5,428.21,259.5,429.93Z" style="fill:#dbdbdb"></path><path d="M278.79,431.39c-1.23,0-12-.05-12-1.46s10.74-1.45,12-1.45,12,0,12,1.45S280,431.39,278.79,431.39Zm-11.42-1.46c.63.42,4.74,1,11.42,1s10.78-.54,11.42-1c-.64-.42-4.74-.95-11.42-.95S268,429.51,267.37,429.93Z" style="fill:#c7c7c7"></path><rect x="271.99" y="427.82" width="13.59" height="2.12" style="fill:#455a64"></rect><rect x="271.99" y="427.82" width="13.59" height="1.4" style="opacity:0.1"></rect><path d="M301.72,422.11a7.72,7.72,0,0,1-7.66,3.28,8.52,8.52,0,0,1-1.38-.4,9.37,9.37,0,0,1-1.92-1l1.73-2.56a6.72,6.72,0,0,0,1,.58,4.5,4.5,0,0,0,5.69-1.67c1.86-2.62,2.53-8.6.64-10.9-.12-.17-.67-.44-2.86,0-.4.09-.86.19-1.38.33a5.08,5.08,0,0,1-1.24.27l-.06-1.54-.15-1.53.65-.17a20.32,20.32,0,0,1,3.09-.64c1.61-.17,3.3,0,4.34,1.3C305.29,411.23,304.05,418.83,301.72,422.11Z" style="fill:#455a64"></path><path d="M292.49,421.42a6.72,6.72,0,0,0,1,.58l-.83,3a9.37,9.37,0,0,1-1.92-1Z" style="opacity:0.1"></path><path d="M297.89,406.18l-.91,3.28c-.4.09-.86.19-1.38.33a5.08,5.08,0,0,1-1.24.27l-.06-1.54-.15-1.53.65-.17A20.32,20.32,0,0,1,297.89,406.18Z" style="opacity:0.1"></path><path d="M260.7,402.17s1.64,13.85,4.45,19.69,6.75,6.48,9.19,6.48h8.89c2.44,0,6.37-.66,9.19-6.48s4.45-19.69,4.45-19.69Z" style="fill:#455a64"></path><path d="M262.46,412.83c.12.59.25,1.17.38,1.76h31.89l.39-1.76Z" style="opacity:0.1"></path><path d="M263.28,416.35c.34,1.31.71,2.57,1.11,3.67h28.79c.41-1.1.77-2.36,1.12-3.67Z" style="opacity:0.1"></path></g><g id="freepik--character-2--inject-30"><path d="M353,354.88c-38.53,26.71-63.61,67.68-61,80.16,2.79,13.2,39.08-16.63,40.38-19.44,2.28-4.92,21-31.15,30.34-50.19C372.46,345.48,363.29,347.73,353,354.88Z" style="fill:#ad6359"></path><path d="M320.13,411.22C308.34,414.48,290.91,424,292,435c1.18,12,33.48,12.61,33.48,12.61Z" style="fill:#ad6359"></path><path d="M370.5,408.76c.44,4.25-10.12,4.46-10.12,4.46a7.88,7.88,0,0,1,3.61,3.95c1.1,3.06-3.2,6.12-3.2,6.12a9.81,9.81,0,0,1,3.15,4.79c.76,3-3.14,6.74-3.14,6.74a8.57,8.57,0,0,1,.12,5.95c-2,5.09-10.24,6.6-15.45,7.62s-21-1-24-1.06l-6.82-33.42s22.1-11.21,28.4-11.54C348.36,402.1,369.82,402.27,370.5,408.76Z" style="fill:#ad6359"></path><path d="M360.28,413.1c-5.72-1.06-11.68-.75-17.42-.39-.13,0-.11.2,0,.19,5.71-.42,11.67.68,17.39.48C360.42,413.38,360.43,413.13,360.28,413.1Z" style="fill:#263238"></path><path d="M360.59,422.88a15,15,0,0,0-4,.17q-2.08.24-4.17.54c-2.79.41-5.56.88-8.31,1.43-.13,0-.12.22,0,.2,2.77-.4,5.55-.76,8.34-1l4.19-.4a17.87,17.87,0,0,0,3.93-.52A.2.2,0,0,0,360.59,422.88Z" style="fill:#263238"></path><path d="M360.68,434.83a10.5,10.5,0,0,0-3.56.35l-3.79.61c-2.53.4-5.07.79-7.61,1.1a.1.1,0,0,0,0,.2c2.58-.3,5.17-.57,7.75-.89,1.27-.15,2.54-.32,3.81-.49a10.06,10.06,0,0,0,3.4-.75C360.76,434.93,360.73,434.84,360.68,434.83Z" style="fill:#263238"></path><path d="M328.89,450.56l4.48-36.79s27.09-39.11,31.63-52.09,2.05-18.43-19.72-1.88c-22.27,16.93-43.83,44.82-53,63.31-2.76,5.56-3.7,12.92.95,16.81C303.67,448.69,328.89,450.56,328.89,450.56Z" style="fill:#38E0BE"></path><path d="M353.42,383.52c-3.54,4.7-6.81,9.61-10,14.56-1.56,2.41-8.68,12.35-9.8,15-.05.11.12.21.2.12,1.81-2.15,9-12,10.58-14.52l2.51-4c.88-.83,1.75-1.68,2.55-2.6a39.23,39.23,0,0,0,3.2-4.07c0-.08-.06-.17-.12-.1-1.18,1.27-2.28,2.61-3.46,3.88L348,393c1.95-3.07,3.88-6.16,5.73-9.29C353.85,383.51,353.56,383.34,353.42,383.52Z" style="fill:#263238"></path><path d="M386.47,353.11c39.37,25.46,65.77,65.59,63.53,78.15-2.36,13.29-39.59-15.36-41-18.12-2.44-4.85-22-30.46-31.94-49.19C366.68,344.35,375.93,346.3,386.47,353.11Z" style="fill:#ad6359"></path><path d="M421.11,408.36c11.89,2.88,29.62,11.8,28.89,22.9C449.22,443.27,417,445,417,445Z" style="fill:#ad6359"></path><path d="M370.69,407.53c-.31,4.26,10.26,4.13,10.26,4.13a7.83,7.83,0,0,0-3.48,4.07c-1,3.09,3.39,6,3.39,6a9.74,9.74,0,0,0-3,4.88c-.66,3.06,3.36,6.64,3.36,6.64a8.53,8.53,0,0,0,.07,5.95c2.18,5,10.44,6.27,15.69,7.12s20.92-1.66,23.95-1.84l5.73-33.62s-22.44-10.49-28.75-10.61C392.61,400.16,371.16,401,370.69,407.53Z" style="fill:#ad6359"></path><path d="M381.05,411.54c5.67-1.24,11.64-1.13,17.39-1,.13,0,.12.21,0,.2-5.73-.24-11.65,1.05-17.37,1A.14.14,0,0,1,381.05,411.54Z" style="fill:#263238"></path><path d="M381.05,421.32a15,15,0,0,1,4,.05c1.4.11,2.8.24,4.19.4,2.8.32,5.58.7,8.36,1.16.12,0,.12.22,0,.2-2.79-.31-5.58-.58-8.37-.77-1.4-.1-2.8-.18-4.2-.26a18.07,18.07,0,0,1-4-.39A.2.2,0,0,1,381.05,421.32Z" style="fill:#263238"></path><path d="M381.35,433.27a10.46,10.46,0,0,1,3.56.23c1.27.17,2.54.34,3.82.49,2.54.32,5.08.63,7.63.85a.1.1,0,0,1,0,.2c-2.59-.21-5.19-.39-7.78-.63l-3.82-.37a9.88,9.88,0,0,1-3.42-.64A.07.07,0,0,1,381.35,433.27Z" style="fill:#263238"></path><path d="M413.62,448,408,411.34s-28.33-38.22-33.29-51S372,342,394.32,357.79c22.8,16.19,45.25,43.37,55,61.56,2.94,5.47,4.11,12.79-.4,16.83C438.77,445.29,413.62,448,413.62,448Z" style="fill:#38E0BE"></path><path d="M386.94,381.75c3.69,4.59,7.12,9.39,10.47,14.23,1.64,2.36,9.08,12.06,10.28,14.68.05.1-.11.21-.19.12-1.89-2.09-9.39-11.74-11.05-14.17-.88-1.29-1.75-2.58-2.64-3.87-.91-.81-1.8-1.63-2.63-2.52a39.53,39.53,0,0,1-3.33-4c-.05-.07.06-.16.12-.1,1.22,1.23,2.36,2.54,3.58,3.77l1.12,1.13c-2.05-3-4.08-6-6-9.1A.18.18,0,0,1,386.94,381.75Z" style="fill:#263238"></path><path d="M366.24,363.3c4.69.62,9.78-6.43,10.6-12.46.06-.44-.84-4.46-1.83-9.43-.59-3-1.18-6.4-1.49-9.52l-19.09,6.71a50,50,0,0,1,3.09,11.79,8,8,0,0,1,0,1.3c0,.06,0,.13,0,.21C357.35,354.37,361.7,362.69,366.24,363.3Z" style="fill:#ad6359"></path><path d="M381.47,305.94c2.28,8.38-1.75,29.05-7.82,34.21-8.79,7.49-22.82,7.8-29.09-2.68-6.08-10.17-.64-36.24,6.1-40.89C360.59,289.72,378.11,293.57,381.47,305.94Z" style="fill:#ad6359"></path><path d="M370.19,344.85c-8.17,2.76-17.35-6.89-17.79-8.17-.78-2.25-3.51-18.9-3.51-18.9s-4.22.55-2.79-11.86c0,0-8.29-18.85-3.7-19.73,1.47-.28,5.25,3.1,5.25,3.1s0-4,2.05-4.09,5.19,4.55,5.19,4.55,15.4.51,18.12,1.67c6.84,2.91,9.57,10.72,9.57,10.72a10,10,0,0,1,6.42,8.48C389.9,317.45,383.58,340.33,370.19,344.85Z" style="fill:#263238"></path><path d="M347.54,321.61s5.32-7.28,8.63-5.37-.79,12.54-4.75,13.92a4,4,0,0,1-5.32-2.26Z" style="fill:#ad6359"></path><path d="M354.92,319.26c.06,0,.07.08,0,.1-2.78,1.06-4.29,3.59-5.36,6.22.84-1,2-1.54,3.32-.53.07.05,0,.16-.08.14a2.48,2.48,0,0,0-2.73.81,12,12,0,0,0-1.34,2.16c-.13.24-.57.1-.48-.18l0-.06C348.3,324.4,351.14,319.53,354.92,319.26Z" style="fill:#263238"></path><path d="M333.44,440.86c1.28,1.13,84.14-.43,84.26-.6,1-1.41-14.6-71.87-34.8-88.86-9.07-7.62-24.5-4.26-29.46,6.38C339,388.74,332.29,439.8,333.44,440.86Z" style="fill:#38E0BE"></path><path d="M370.39,347.27h1.08a19,19,0,0,1,6.67,1.31H363.77A21.06,21.06,0,0,1,370.39,347.27ZM357.93,352h25.61c-.21-.2-.43-.38-.64-.56s-.64-.52-1-.75H359.68A18.54,18.54,0,0,0,357.93,352Zm-3.09,3.38h31.91c-.37-.45-.75-.89-1.13-1.31H355.85C355.49,354.45,355.16,354.89,354.84,355.34ZM353,358.73h36.33c-.31-.45-.63-.89-.95-1.32H353.62l-.18.37C353.29,358.09,353.15,358.41,353,358.73Zm-1.49,3.38h40c-.27-.45-.55-.89-.83-1.32H352.08C351.9,361.23,351.71,361.67,351.52,362.11Zm-1.37,3.38h43.38l-.75-1.32H350.67Zm-1.28,3.38h46.46l-.68-1.31h-45.3C349.19,368,349,368.43,348.87,368.87Zm-1.21,3.38H397l-.63-1.31H348.11Zm-1.14,3.39h52c-.19-.45-.39-.89-.59-1.32H347C346.81,374.76,346.66,375.2,346.52,375.64ZM345.44,379H400l-.57-1.32h-53.6C345.72,378.14,345.58,378.58,345.44,379Zm-1,3.38h57c-.17-.44-.35-.88-.53-1.32H344.82C344.68,381.52,344.55,382,344.42,382.4Zm-1,3.38h59.26c-.16-.44-.33-.88-.5-1.31h-58.4Zm-.93,3.38H404c-.15-.44-.31-.88-.48-1.31H342.88Zm-.88,3.39H405.2l-.47-1.32H342C341.87,391.67,341.76,392.11,341.65,392.55Zm-.85,3.38h65.56l-.45-1.32H341.13Zm-.79,3.38h67.47c-.15-.44-.29-.88-.43-1.32H340.32C340.21,398.43,340.1,398.87,340,399.31Zm-.77,3.38h69.31c-.13-.43-.27-.87-.41-1.31H339.53C339.43,401.82,339.33,402.26,339.24,402.69Zm-.74,3.38h71.08c-.12-.43-.25-.87-.39-1.31H338.78C338.69,405.2,338.59,405.64,338.5,406.07Zm-.7,3.38h72.79c-.13-.44-.25-.87-.39-1.31H338.07Zm-.67,3.39h74.43c-.12-.43-.25-.87-.37-1.32h-73.8C337.3,412,337.22,412.4,337.13,412.84Zm-.63,3.38h76l-.36-1.32H336.74C336.66,415.35,336.58,415.78,336.5,416.22Zm-.61,3.38h77.5c-.11-.44-.23-.87-.35-1.32H336.13Q336,419,335.89,419.6Zm-.56,3.38h78.92l-.33-1.31H335.54Zm-.53,3.38h80.28c-.1-.43-.21-.86-.32-1.31H335C334.93,425.5,334.87,425.93,334.8,426.36Zm-.48,3.39h81.54q-.14-.64-.3-1.32H334.5Q334.4,429.11,334.32,429.75Zm-.44,3.38H416.6c-.09-.42-.18-.86-.28-1.32H334C334,432.27,333.93,432.71,333.88,433.13Zm-.37,3.38h83.76c-.08-.41-.16-.85-.25-1.32H333.65C333.59,435.66,333.55,436.1,333.51,436.51Zm-.2,3.38h84.43c0-.29-.05-.73-.13-1.31H333.35C333.33,439.1,333.31,439.54,333.31,439.89Z" style="opacity:0.1"></path><polygon points="442.64 500 320.69 500 333.01 388.37 436.73 388.37 442.64 500" style="fill:#455a64"></polygon><polygon points="442.64 500 432.83 500 427.32 388.37 436.73 388.37 442.64 500" style="fill:#37474f"></polygon></g><g id="freepik--character-1--inject-30"><path d="M134,363.24c-4.7.57-9.2-7.11-10.85-12.65-.13-.43.88-4.45,1.93-9.41.62-3,1.25-6.38,1.59-9.5l19,6.92a49.92,49.92,0,0,0-3.22,11.76,7,7,0,0,0,0,1.29,1.46,1.46,0,0,1,0,.21C142.62,354.34,138.57,362.68,134,363.24Z" style="fill:#f7a9a0"></path><path d="M142.49,351.66v.2a11.81,11.81,0,0,1-2-.11c-10.59-1.42-12.45-14.62-12.77-19.7l18,6.55a49.61,49.61,0,0,0-3.21,11.76A6.29,6.29,0,0,0,142.49,351.66Z" style="fill:#263238"></path><path d="M119,306.25c-2.09,8.43,2.42,29,8.6,34,9,7.28,23,7.27,29-3.35,5.84-10.31-.19-36.24-7-40.74C139.48,289.55,122.05,293.8,119,306.25Z" style="fill:#f7a9a0"></path><path d="M155.21,308s.61,5-2.59,6.64c-.25.13-10,24.73-27.68,23.39,0,0-13.72-14.62-10.74-28.41,1.92-8.92,7.9-11.62,7.9-11.62s12.1-11.54,26.72-6.51S160.59,307.2,155.21,308Z" style="fill:#263238"></path><path d="M114.53,354.88C76,381.59,50.92,422.56,53.55,435c2.79,13.2,39.08-16.63,40.38-19.44,2.28-4.92,21-31.15,30.34-50.19C134,345.48,124.85,347.73,114.53,354.88Z" style="fill:#f7a9a0"></path><path d="M81.69,411.22C69.9,414.48,52.47,424,53.55,435,54.73,447,87,447.65,87,447.65Z" style="fill:#f7a9a0"></path><path d="M132.06,408.76c.44,4.25-10.12,4.46-10.12,4.46a7.88,7.88,0,0,1,3.61,3.95c1.1,3.06-3.2,6.12-3.2,6.12a9.81,9.81,0,0,1,3.15,4.79c.76,3-3.15,6.74-3.15,6.74a8.51,8.51,0,0,1,.12,5.95c-2,5.09-10.23,6.6-15.44,7.62s-21-1-24-1.06l-6.82-33.42s22.09-11.21,28.4-11.54C109.92,402.1,131.38,402.27,132.06,408.76Z" style="fill:#f7a9a0"></path><path d="M121.84,413.1c-5.72-1.06-11.68-.75-17.42-.39a.1.1,0,1,0,0,.19c5.71-.42,11.67.68,17.39.48C122,413.38,122,413.13,121.84,413.1Z" style="fill:#263238"></path><path d="M122.15,422.88a15,15,0,0,0-4,.17q-2.09.24-4.17.54c-2.79.41-5.56.88-8.32,1.43-.12,0-.11.22,0,.2,2.77-.4,5.55-.76,8.34-1l4.19-.4a17.87,17.87,0,0,0,3.93-.52A.2.2,0,0,0,122.15,422.88Z" style="fill:#263238"></path><path d="M122.24,434.83a10.48,10.48,0,0,0-3.56.35l-3.79.61c-2.53.4-5.07.79-7.61,1.1a.1.1,0,0,0,0,.2c2.59-.3,5.18-.57,7.76-.89,1.27-.15,2.54-.32,3.81-.49a10.06,10.06,0,0,0,3.4-.75C122.32,434.93,122.29,434.84,122.24,434.83Z" style="fill:#263238"></path><path d="M90.45,450.56l4.48-36.79s27.09-39.11,31.62-52.09,2.06-18.43-19.72-1.88c-22.26,16.93-43.82,44.82-53,63.31-2.76,5.56-3.7,12.92.94,16.81C65.23,448.69,90.45,450.56,90.45,450.56Z" style="fill:#38E0BE"></path><path d="M97.84,380.68c.26.07.52.1.78.16a1.56,1.56,0,0,0,.87-.09,1.61,1.61,0,0,0,1-1.48,1.18,1.18,0,0,1,.59-1,1.56,1.56,0,0,1,.65-.2c.27-.05.52-.08.78-.15a6.74,6.74,0,0,0-.78-.16,1.51,1.51,0,0,0-.86.06,1.59,1.59,0,0,0-1,1.46,1.21,1.21,0,0,1-.56,1,1.35,1.35,0,0,1-.64.22A7.2,7.2,0,0,0,97.84,380.68ZM76,405.18c.26.07.52.1.78.16a1.47,1.47,0,0,0,.87-.09,1.61,1.61,0,0,0,1-1.48,1.22,1.22,0,0,1,.59-1,1.56,1.56,0,0,1,.66-.19c.26-.06.52-.09.78-.16-.26-.07-.52-.11-.78-.16a1.55,1.55,0,0,0-.87.06,1.59,1.59,0,0,0-1,1.46,1.23,1.23,0,0,1-.55,1.05,1.56,1.56,0,0,1-.65.21C76.55,405.08,76.29,405.11,76,405.18Zm39.42-51.27c.26.07.52.1.78.16a1.48,1.48,0,0,0,.87-.09,1.6,1.6,0,0,0,1-1.48,1.07,1.07,0,0,1,.06-.35c-.23.12-.46.26-.7.4a1.22,1.22,0,0,1-.56,1,1.43,1.43,0,0,1-.64.21C116,353.81,115.71,353.84,115.45,353.91ZM63.12,418.53c.26.07.52.1.78.15a1.47,1.47,0,0,0,.87-.08,1.6,1.6,0,0,0,1-1.48,1.21,1.21,0,0,1,.59-1,1.6,1.6,0,0,1,.66-.2,7.2,7.2,0,0,0,.78-.16c-.26-.07-.52-.1-.78-.15a1.55,1.55,0,0,0-.87.06,1.58,1.58,0,0,0-1,1.45,1.21,1.21,0,0,1-.56,1,1.43,1.43,0,0,1-.64.22A7.2,7.2,0,0,0,63.12,418.53Zm23.14,16.22c.26.07.52.1.78.16a1.56,1.56,0,0,0,.87-.09,1.6,1.6,0,0,0,1-1.48,1.23,1.23,0,0,1,.59-1,1.65,1.65,0,0,1,.66-.2c.26-.05.52-.08.78-.15a7.2,7.2,0,0,0-.78-.16,1.51,1.51,0,0,0-.86.06,1.57,1.57,0,0,0-1,1.46,1.21,1.21,0,0,1-.56,1,1.39,1.39,0,0,1-.64.22A7.2,7.2,0,0,0,86.26,434.75Zm-16,9.69c.26.07.52.1.78.15a1.55,1.55,0,0,0,.87-.08,1.61,1.61,0,0,0,1-1.48,1.17,1.17,0,0,1,.59-1,1.56,1.56,0,0,1,.65-.2,7.2,7.2,0,0,0,.78-.16c-.26-.07-.52-.1-.78-.15A1.55,1.55,0,0,0,72.24,443a1.21,1.21,0,0,1-.56,1.05,1.35,1.35,0,0,1-.64.22A7.2,7.2,0,0,0,70.26,444.44Zm33.54-47.83c.14.23.3.44.44.66a1.55,1.55,0,0,0,.66.57,1.42,1.42,0,0,0,.64.14l.5-.76a1.31,1.31,0,0,1-1,.15,1.5,1.5,0,0,1-.61-.32A7.57,7.57,0,0,0,103.8,396.61Zm-29.18-4.75a1.29,1.29,0,0,1,.68-.05,1.38,1.38,0,0,1,.6.31c.22.14.43.3.67.43-.14-.23-.3-.44-.44-.66a1.5,1.5,0,0,0-.68-.55,1.39,1.39,0,0,0-.33-.1C75,391.45,74.78,391.65,74.62,391.86Zm9.18-6.77c.13.23.29.44.44.66a1.46,1.46,0,0,0,.65.57,1.6,1.6,0,0,0,1.76-.3,1.21,1.21,0,0,1,1.13-.35,1.51,1.51,0,0,1,.61.3c.22.15.43.31.66.44-.13-.23-.29-.44-.44-.66a1.49,1.49,0,0,0-.67-.56,1.63,1.63,0,0,0-1.74.36,1.2,1.2,0,0,1-1.14.3,1.47,1.47,0,0,1-.6-.32C84.24,385.38,84,385.22,83.8,385.09Zm-8.15,39.06a1.56,1.56,0,0,0,1.46,1,1.23,1.23,0,0,1,1,.56,1.43,1.43,0,0,1,.22.65,7.2,7.2,0,0,0,.16.78c.07-.26.1-.52.16-.78a1.55,1.55,0,0,0-.09-.87,1.59,1.59,0,0,0-1.48-1,1.2,1.2,0,0,1-1-.59,1.56,1.56,0,0,1-.2-.66c-.05-.26-.08-.52-.15-.78a7.2,7.2,0,0,0-.16.78A1.55,1.55,0,0,0,75.65,424.15Zm-22.06,1a1.6,1.6,0,0,0,1.46,1,1.24,1.24,0,0,1,1.05.55,1.43,1.43,0,0,1,.21.65c.06.26.09.52.16.78.07-.26.11-.52.16-.78a1.55,1.55,0,0,0-.08-.87,1.62,1.62,0,0,0-1.49-1,1.17,1.17,0,0,1-1-.59,1.43,1.43,0,0,1-.2-.66c-.06-.26-.09-.52-.16-.78-.07.26-.1.52-.16.78A1.64,1.64,0,0,0,53.59,425.19Zm48.66-61.73a1.6,1.6,0,0,0,1.46,1,1.22,1.22,0,0,1,1.05.55,1.43,1.43,0,0,1,.21.65c.06.26.09.52.16.78a7.2,7.2,0,0,0,.16-.78,1.54,1.54,0,0,0-.08-.87,1.61,1.61,0,0,0-1.49-1,1.19,1.19,0,0,1-1-.59.75.75,0,0,1-.07-.12ZM90.81,396a1.61,1.61,0,0,0,1.46,1,1.23,1.23,0,0,1,1,.55,1.56,1.56,0,0,1,.22.65c0,.26.08.52.15.78a7.2,7.2,0,0,0,.16-.78,1.55,1.55,0,0,0-.08-.87,1.62,1.62,0,0,0-1.49-1,1.17,1.17,0,0,1-1-.59,1.43,1.43,0,0,1-.2-.66c0-.26-.09-.52-.16-.78-.07.26-.1.52-.16.78A1.74,1.74,0,0,0,90.81,396ZM64,406.14a1.58,1.58,0,0,0,.79.23,1.22,1.22,0,0,1,1,.55,1.43,1.43,0,0,1,.21.65c.06.26.09.52.16.78a7.2,7.2,0,0,0,.16-.78,1.54,1.54,0,0,0-.08-.87,1.62,1.62,0,0,0-1.49-1,1.13,1.13,0,0,1-.45-.09Zm50-21.44,0,.07c.11-.17.22-.34.32-.51a1.6,1.6,0,0,1-.1-.43c0-.26-.08-.52-.15-.78a7.2,7.2,0,0,0-.16.78A1.55,1.55,0,0,0,114,384.7Zm1-16.07c.14.24.3.45.44.67a1.5,1.5,0,0,0,.68.55,1.6,1.6,0,0,0,1.74-.36,1.21,1.21,0,0,1,1.13-.3,1.53,1.53,0,0,1,.61.33c.22.14.43.31.66.44a7.57,7.57,0,0,0-.44-.66,1.54,1.54,0,0,0-2.41-.27,1.22,1.22,0,0,1-1.14.35,1.38,1.38,0,0,1-.6-.31C115.43,368.93,115.22,368.77,115,368.63ZM88.28,445c.14.24.3.45.44.67A1.56,1.56,0,0,0,91,446l.1-.85a1.29,1.29,0,0,0-.42.28,1.22,1.22,0,0,1-1.14.35,1.38,1.38,0,0,1-.6-.31C88.72,445.28,88.52,445.12,88.28,445Zm-4.65-31.41c.13.23.29.44.44.66a1.55,1.55,0,0,0,.67.56,1.63,1.63,0,0,0,1.74-.36,1.2,1.2,0,0,1,1.14-.3,1.41,1.41,0,0,1,.6.32c.23.15.43.31.67.44-.14-.23-.3-.44-.44-.66a1.55,1.55,0,0,0-.66-.57A1.58,1.58,0,0,0,86,414a1.24,1.24,0,0,1-1.14.35,1.57,1.57,0,0,1-.61-.3A7.57,7.57,0,0,0,83.63,413.57Zm-21.47,19c.13.23.29.44.44.66a1.55,1.55,0,0,0,.67.56A1.63,1.63,0,0,0,65,433.4a1.2,1.2,0,0,1,1.14-.3,1.41,1.41,0,0,1,.6.32c.23.15.43.31.67.44-.14-.23-.3-.44-.44-.66a1.62,1.62,0,0,0-.66-.57,1.58,1.58,0,0,0-1.75.3,1.24,1.24,0,0,1-1.14.35,1.57,1.57,0,0,1-.61-.3A7.57,7.57,0,0,0,62.16,432.54Z" style="fill:#fff"></path><path d="M115,383.52c-3.54,4.7-6.81,9.61-10,14.56-1.56,2.41-8.68,12.35-9.8,15-.05.11.12.21.19.12,1.82-2.15,9-12,10.59-14.52q1.25-2,2.51-4c.88-.83,1.75-1.68,2.55-2.6a39.23,39.23,0,0,0,3.2-4.07c0-.08-.06-.17-.12-.1-1.18,1.27-2.28,2.61-3.46,3.88L109.56,393c2-3.07,3.88-6.16,5.73-9.29C115.41,383.51,115.12,383.34,115,383.52Z" style="fill:#263238"></path><path d="M148,353.11c39.37,25.46,65.76,65.59,63.53,78.15-2.36,13.29-39.6-15.36-41-18.12-2.44-4.85-22-30.46-31.94-49.19C128.24,344.35,137.48,346.3,148,353.11Z" style="fill:#f7a9a0"></path><path d="M182.67,408.36c11.89,2.88,29.62,11.8,28.89,22.9-.78,12-33.05,13.69-33.05,13.69Z" style="fill:#f7a9a0"></path><path d="M132.25,407.53c-.31,4.26,10.26,4.13,10.26,4.13a7.88,7.88,0,0,0-3.49,4.07c-1,3.09,3.4,6,3.4,6a9.74,9.74,0,0,0-3,4.88c-.66,3.06,3.36,6.64,3.36,6.64a8.53,8.53,0,0,0,.07,5.95c2.17,5,10.44,6.27,15.69,7.12s20.91-1.66,23.95-1.84l5.73-33.62s-22.44-10.49-28.75-10.61C154.17,400.16,132.72,401,132.25,407.53Z" style="fill:#f7a9a0"></path><path d="M142.61,411.54c5.67-1.24,11.64-1.13,17.39-1a.1.1,0,0,1,0,.2c-5.72-.24-11.64,1.05-17.36,1A.14.14,0,0,1,142.61,411.54Z" style="fill:#263238"></path><path d="M142.61,421.32a15,15,0,0,1,4,.05c1.4.11,2.79.24,4.19.4,2.79.32,5.58.7,8.35,1.16.13,0,.13.22,0,.2-2.79-.31-5.58-.58-8.37-.77-1.4-.1-2.8-.18-4.2-.26a18.07,18.07,0,0,1-3.95-.39A.2.2,0,0,1,142.61,421.32Z" style="fill:#263238"></path><path d="M142.91,433.27a10.46,10.46,0,0,1,3.56.23c1.27.17,2.54.34,3.81.49,2.55.32,5.09.63,7.64.85a.1.1,0,0,1,0,.2c-2.59-.21-5.19-.39-7.78-.63l-3.82-.37a9.88,9.88,0,0,1-3.42-.64A.07.07,0,0,1,142.91,433.27Z" style="fill:#263238"></path><path d="M175.18,448l-5.66-36.62s-28.33-38.22-33.29-51-2.65-18.35,19.65-2.51c22.8,16.19,45.25,43.37,55,61.56,2.94,5.47,4.11,12.79-.4,16.83C200.33,445.29,175.18,448,175.18,448Z" style="fill:#38E0BE"></path><path d="M169.81,379.64a7.2,7.2,0,0,0,.78.16,1.55,1.55,0,0,0,.87-.08,1.6,1.6,0,0,0,1-1.49,1.2,1.2,0,0,1,.6-1,1.42,1.42,0,0,1,.65-.2c.26-.06.52-.09.78-.16-.26-.07-.52-.1-.78-.16a1.71,1.71,0,0,0-.86.06,1.61,1.61,0,0,0-1,1.46,1.21,1.21,0,0,1-.56,1,1.39,1.39,0,0,1-.64.21C170.33,379.54,170.07,379.57,169.81,379.64ZM143.63,354.5c.26.07.52.11.78.16a1.47,1.47,0,0,0,.87-.09,1.61,1.61,0,0,0,1-1.48,1.19,1.19,0,0,1,.59-1L147,352l-.53-.31a1.59,1.59,0,0,0-.89,1.4,1.23,1.23,0,0,1-.56,1.05,1.39,1.39,0,0,1-.64.21C144.15,354.4,143.89,354.43,143.63,354.5Zm29.09,63.81c.26.07.52.1.78.16a1.56,1.56,0,0,0,.87-.09,1.6,1.6,0,0,0,1-1.48,1.23,1.23,0,0,1,.59-1,1.65,1.65,0,0,1,.66-.2c.26-.05.52-.08.78-.15a7.2,7.2,0,0,0-.78-.16,1.55,1.55,0,0,0-.87.06,1.58,1.58,0,0,0-1,1.46,1.21,1.21,0,0,1-.56,1,1.43,1.43,0,0,1-.64.22A7.2,7.2,0,0,0,172.72,418.31Zm24.24.22c.26.07.52.1.78.15a1.56,1.56,0,0,0,.87-.08,1.6,1.6,0,0,0,1-1.48,1.2,1.2,0,0,1,.6-1,1.56,1.56,0,0,1,.65-.2,7.2,7.2,0,0,0,.78-.16c-.26-.07-.52-.1-.78-.15a1.55,1.55,0,0,0-1.89,1.51,1.21,1.21,0,0,1-.56,1,1.39,1.39,0,0,1-.64.22A7.2,7.2,0,0,0,197,418.53Zm-1.39-19.15c.26.07.52.1.78.16a1.56,1.56,0,0,0,.87-.09,1.3,1.3,0,0,0,.38-.22c-.11-.15-.22-.3-.35-.45a1.32,1.32,0,0,1-.26.22,1.39,1.39,0,0,1-.64.22C196.09,399.27,195.83,399.31,195.57,399.38Zm-20.33,38.34c.26.07.52.1.78.16a1.56,1.56,0,0,0,.87-.09,1.61,1.61,0,0,0,1-1.48,1.18,1.18,0,0,1,.59-1,1.56,1.56,0,0,1,.65-.2c.26,0,.52-.08.78-.15a7.2,7.2,0,0,0-.78-.16,1.51,1.51,0,0,0-.86.06,1.59,1.59,0,0,0-1,1.46,1.21,1.21,0,0,1-.56,1,1.35,1.35,0,0,1-.64.22A7.2,7.2,0,0,0,175.24,437.72Zm-29.37-71.38c.13.23.29.44.44.66a1.52,1.52,0,0,0,.65.57,1.6,1.6,0,0,0,1.76-.3,1.22,1.22,0,0,1,1.14-.35,1.47,1.47,0,0,1,.6.3c.23.15.43.31.67.44-.13-.23-.3-.44-.44-.66a1.52,1.52,0,0,0-.68-.56,1.63,1.63,0,0,0-1.74.36,1.19,1.19,0,0,1-1.13.3,1.5,1.5,0,0,1-.61-.32A7.57,7.57,0,0,0,145.87,366.34Zm40,40a1.57,1.57,0,0,0,1.45,1,1.21,1.21,0,0,1,1.05.56,1.39,1.39,0,0,1,.22.64,7.2,7.2,0,0,0,.16.78c.07-.26.1-.52.15-.78a1.47,1.47,0,0,0-.08-.87,1.6,1.6,0,0,0-1.48-1,1.21,1.21,0,0,1-1-.59,1.65,1.65,0,0,1-.2-.66c-.05-.26-.08-.52-.15-.78a7.2,7.2,0,0,0-.16.78A1.51,1.51,0,0,0,185.83,406.31Zm-1.69,19.77a1.57,1.57,0,0,0,1.46,1,1.24,1.24,0,0,1,1.05.56,1.51,1.51,0,0,1,.21.64c.06.26.09.52.16.78.07-.26.1-.52.16-.78a1.48,1.48,0,0,0-.09-.87,1.6,1.6,0,0,0-1.48-1,1.24,1.24,0,0,1-1-.59,1.83,1.83,0,0,1-.2-.66c0-.26-.08-.52-.15-.78-.07.26-.11.52-.16.78A1.51,1.51,0,0,0,184.14,426.08Zm23.42-1.27a1.59,1.59,0,0,0,1.46,1,1.21,1.21,0,0,1,1,.56,1.35,1.35,0,0,1,.22.64,7.2,7.2,0,0,0,.16.78c.07-.26.1-.52.15-.78a1.47,1.47,0,0,0-.08-.87,1.61,1.61,0,0,0-1.48-1,1.17,1.17,0,0,1-1-.59,1.56,1.56,0,0,1-.2-.65c-.05-.26-.08-.52-.15-.78a7.2,7.2,0,0,0-.16.78A1.51,1.51,0,0,0,207.56,424.81ZM161,364.58a1.59,1.59,0,0,0,1.46,1,1.21,1.21,0,0,1,1,.56,1.39,1.39,0,0,1,.22.64,7.2,7.2,0,0,0,.16.78c.07-.26.1-.52.16-.78a1.56,1.56,0,0,0-.09-.87,1.6,1.6,0,0,0-1.48-1,1.21,1.21,0,0,1-1-.6,1.56,1.56,0,0,1-.2-.65c-.05-.26-.08-.52-.15-.78a7.2,7.2,0,0,0-.16.78A1.51,1.51,0,0,0,161,364.58Zm21.67,23.75a1.58,1.58,0,0,0,1.46,1,1.21,1.21,0,0,1,1,.56,1.43,1.43,0,0,1,.22.64c.05.26.09.52.16.78.07-.26.1-.52.16-.78a1.56,1.56,0,0,0-.09-.87,1.6,1.6,0,0,0-1.48-1,1.24,1.24,0,0,1-1-.59,1.56,1.56,0,0,1-.2-.66c0-.26-.08-.52-.15-.78a7.2,7.2,0,0,0-.16.78A1.55,1.55,0,0,0,182.67,388.33Zm-32.62-9.18a1.59,1.59,0,0,0,1.45,1,1.21,1.21,0,0,1,1.05.56,1.39,1.39,0,0,1,.22.64,7.2,7.2,0,0,0,.16.78c.07-.26.1-.52.15-.78a1.47,1.47,0,0,0-.08-.87,1.61,1.61,0,0,0-1.48-1,1.17,1.17,0,0,1-1-.59,1.56,1.56,0,0,1-.2-.65,7.2,7.2,0,0,0-.16-.78c-.07.26-.1.52-.15.78A1.51,1.51,0,0,0,150.05,379.15Zm44,55.25a7.74,7.74,0,0,0,.44.67,1.55,1.55,0,0,0,2.41.19A1.22,1.22,0,0,1,198,435a1.44,1.44,0,0,1,.6.33c.22.14.43.3.67.44-.14-.24-.3-.44-.44-.67a1.69,1.69,0,0,0-.66-.57,1.6,1.6,0,0,0-1.76.31,1.21,1.21,0,0,1-1.13.35,1.42,1.42,0,0,1-.61-.31C194.47,434.7,194.26,434.54,194,434.4Zm-20.55-35c.13.23.3.44.44.66a1.52,1.52,0,0,0,.68.56,1.63,1.63,0,0,0,1.74-.36,1.19,1.19,0,0,1,1.13-.3,1.5,1.5,0,0,1,.61.32,7.57,7.57,0,0,0,.66.44c-.13-.23-.29-.44-.44-.66a1.56,1.56,0,0,0-2.41-.27,1.22,1.22,0,0,1-1.14.35,1.47,1.47,0,0,1-.6-.3C173.92,399.64,173.72,399.48,173.48,399.35ZM183,445.68c.13.23.29.44.44.66a1.8,1.8,0,0,0,.26.3c1.15-.22,2.38-.48,3.66-.76a.78.78,0,0,0-.2-.11,1.6,1.6,0,0,0-1.76.3,1.21,1.21,0,0,1-1.13.35,1.51,1.51,0,0,1-.61-.3C183.44,446,183.23,445.81,183,445.68Zm-21.75-57.32a7.74,7.74,0,0,0,.44.67,1.53,1.53,0,0,0,.67.55,1.59,1.59,0,0,0,1.74-.36,1.22,1.22,0,0,1,1.14-.3,1.44,1.44,0,0,1,.6.33c.22.14.43.31.67.44-.14-.24-.3-.44-.44-.66a1.64,1.64,0,0,0-.66-.58,1.59,1.59,0,0,0-1.75.31,1.24,1.24,0,0,1-1.14.35,1.42,1.42,0,0,1-.61-.31C161.69,388.66,161.48,388.5,161.25,388.36Z" style="fill:#fff"></path><path d="M148.5,381.75c3.69,4.59,7.12,9.39,10.47,14.23,1.63,2.36,9.08,12.06,10.28,14.68.05.1-.11.21-.19.12-1.89-2.09-9.39-11.74-11.05-14.17l-2.64-3.87c-.91-.81-1.8-1.63-2.63-2.52a38.24,38.24,0,0,1-3.33-4c0-.07.06-.16.12-.1,1.22,1.23,2.36,2.54,3.58,3.77l1.12,1.13c-2-3-4.08-6-6-9.1A.18.18,0,0,1,148.5,381.75Z" style="fill:#263238"></path><path d="M172.14,436.32s-82.95.13-83.07,0c-1-1.38,13.79-66.67,33.33-84.42,8.76-8,20.27-4.66,25.14,5.81C162,388.66,173.25,435.22,172.14,436.32Z" style="fill:#38E0BE"></path><path d="M161.25,425.74a7.57,7.57,0,0,0,.44.66,1.49,1.49,0,0,0,.67.56,1.63,1.63,0,0,0,1.74-.36,1.2,1.2,0,0,1,1.14-.3,1.53,1.53,0,0,1,.6.32c.22.15.43.31.66.44-.13-.23-.29-.44-.44-.66a1.52,1.52,0,0,0-.65-.57,1.58,1.58,0,0,0-1.76.31,1.23,1.23,0,0,1-1.13.34,1.51,1.51,0,0,1-.61-.3C161.69,426,161.48,425.87,161.25,425.74Zm-31.76,7.62c.13.23.3.44.44.66a1.59,1.59,0,0,0,.68.56,1.61,1.61,0,0,0,1.73-.36,1.21,1.21,0,0,1,1.14-.3,1.5,1.5,0,0,1,.61.32,7.57,7.57,0,0,0,.66.44c-.13-.23-.3-.44-.44-.66a1.52,1.52,0,0,0-.65-.57,1.6,1.6,0,0,0-1.76.3,1.22,1.22,0,0,1-1.14.35,1.47,1.47,0,0,1-.6-.3C129.93,433.65,129.73,433.49,129.49,433.36Zm-31.95-8.83c.13.24.29.44.44.67a1.55,1.55,0,0,0,2.41.19,1.2,1.2,0,0,1,1.14-.3,1.53,1.53,0,0,1,.6.32c.23.15.43.31.67.45-.14-.24-.3-.45-.44-.67a1.69,1.69,0,0,0-.66-.57,1.59,1.59,0,0,0-1.75.31,1.23,1.23,0,0,1-1.14.34,1.34,1.34,0,0,1-.61-.3C98,424.83,97.78,424.66,97.54,424.53Zm20.24-10.27a7.74,7.74,0,0,0,.44.67,1.54,1.54,0,0,0,.67.55,1.59,1.59,0,0,0,1.74-.36,1.2,1.2,0,0,1,1.14-.3,1.57,1.57,0,0,1,.6.33c.22.14.43.3.66.44-.13-.24-.29-.44-.44-.67a1.55,1.55,0,0,0-2.41-.26,1.21,1.21,0,0,1-1.13.35,1.42,1.42,0,0,1-.61-.31C118.22,414.56,118,414.4,117.78,414.26Zm32.36,2a7.57,7.57,0,0,0,.44.66,1.55,1.55,0,0,0,.67.56,1.59,1.59,0,0,0,1.74-.36,1.2,1.2,0,0,1,1.14-.3,1.53,1.53,0,0,1,.6.32c.23.15.43.31.67.44-.14-.23-.3-.44-.44-.66a1.69,1.69,0,0,0-.66-.57,1.57,1.57,0,0,0-1.75.31,1.23,1.23,0,0,1-1.14.34,1.34,1.34,0,0,1-.61-.3C150.58,416.57,150.38,416.4,150.14,416.27ZM136,387.7c.13.24.29.44.44.67a1.48,1.48,0,0,0,.67.55,1.59,1.59,0,0,0,1.74-.36,1.2,1.2,0,0,1,1.14-.3,1.57,1.57,0,0,1,.6.33c.22.14.43.3.66.44a7.74,7.74,0,0,0-.44-.67,1.66,1.66,0,0,0-.65-.57,1.6,1.6,0,0,0-1.76.31,1.21,1.21,0,0,1-1.13.34,1.29,1.29,0,0,1-.61-.3C136.48,388,136.27,387.84,136,387.7ZM115,368.63c.14.24.3.45.44.67a1.5,1.5,0,0,0,.68.55,1.6,1.6,0,0,0,1.74-.36,1.21,1.21,0,0,1,1.13-.3,1.53,1.53,0,0,1,.61.33c.22.14.43.31.66.44a7.57,7.57,0,0,0-.44-.66,1.54,1.54,0,0,0-2.41-.27,1.22,1.22,0,0,1-1.14.35,1.38,1.38,0,0,1-.6-.31C115.43,368.93,115.22,368.77,115,368.63ZM147.31,431a1.59,1.59,0,0,0,1.46,1,1.23,1.23,0,0,1,1,.56,1.39,1.39,0,0,1,.21.64c.06.26.09.52.16.78.07-.26.11-.52.16-.78a1.55,1.55,0,0,0-.08-.87,1.62,1.62,0,0,0-1.49-1,1.17,1.17,0,0,1-1-.59,1.42,1.42,0,0,1-.2-.65c-.06-.26-.09-.52-.16-.78-.07.26-.1.52-.16.78A1.61,1.61,0,0,0,147.31,431ZM114,384.7a1.58,1.58,0,0,0,1.46,1,1.21,1.21,0,0,1,1,.56,1.43,1.43,0,0,1,.22.64,7.2,7.2,0,0,0,.16.78c.07-.26.1-.52.16-.78a1.56,1.56,0,0,0-.09-.87,1.6,1.6,0,0,0-1.48-1,1.23,1.23,0,0,1-1-.59,1.6,1.6,0,0,1-.2-.66c0-.26-.08-.52-.15-.78a7.2,7.2,0,0,0-.16.78A1.55,1.55,0,0,0,114,384.7Zm36.09-5.55a1.59,1.59,0,0,0,1.45,1,1.21,1.21,0,0,1,1.05.56,1.39,1.39,0,0,1,.22.64,7.2,7.2,0,0,0,.16.78c.07-.26.1-.52.15-.78a1.47,1.47,0,0,0-.08-.87,1.61,1.61,0,0,0-1.48-1,1.17,1.17,0,0,1-1-.59,1.56,1.56,0,0,1-.2-.65,7.2,7.2,0,0,0-.16-.78c-.07.26-.1.52-.15.78A1.51,1.51,0,0,0,150.05,379.15Zm12.34,26.47a1.57,1.57,0,0,0,1.46,1,1.21,1.21,0,0,1,1,.56,1.39,1.39,0,0,1,.22.64c0,.26.09.52.16.78.07-.26.1-.52.16-.78a1.3,1.3,0,0,0,0-.44c-.05-.19-.1-.38-.16-.58a1.6,1.6,0,0,0-1.41-.82,1.23,1.23,0,0,1-1-.59,1.65,1.65,0,0,1-.2-.66c0-.26-.08-.52-.15-.78a7.2,7.2,0,0,0-.16.78A1.51,1.51,0,0,0,162.39,405.62ZM137.17,404a1.59,1.59,0,0,0,1.46,1,1.21,1.21,0,0,1,1.05.56,1.43,1.43,0,0,1,.22.64,6.74,6.74,0,0,0,.16.78c.07-.26.1-.51.15-.78a1.52,1.52,0,0,0-.08-.86,1.6,1.6,0,0,0-1.49-1,1.21,1.21,0,0,1-1-.59,1.43,1.43,0,0,1-.2-.66,7.2,7.2,0,0,0-.16-.78c-.07.26-.1.52-.15.78A1.63,1.63,0,0,0,137.17,404ZM131,358.25a1.59,1.59,0,0,0,1.46,1,1.22,1.22,0,0,1,1,.55,1.43,1.43,0,0,1,.22.65c.05.26.09.52.16.78.07-.26.1-.52.16-.78a1.56,1.56,0,0,0-.09-.87,1.61,1.61,0,0,0-1.48-1,1.19,1.19,0,0,1-1-.59,1.56,1.56,0,0,1-.2-.66c0-.26-.08-.52-.15-.78a7.2,7.2,0,0,0-.16.78A1.54,1.54,0,0,0,131,358.25ZM103.8,396.61c.14.23.3.44.44.66a1.55,1.55,0,0,0,.66.57,1.58,1.58,0,0,0,1.75-.3,1.23,1.23,0,0,1,1.14-.35,1.57,1.57,0,0,1,.61.3,7.57,7.57,0,0,0,.66.44c-.13-.23-.29-.44-.44-.66a1.54,1.54,0,0,0-2.41-.2,1.21,1.21,0,0,1-1.14.3,1.5,1.5,0,0,1-.61-.32A7.57,7.57,0,0,0,103.8,396.61Zm42.07-30.27c.13.23.29.44.44.66a1.52,1.52,0,0,0,.65.57,1.6,1.6,0,0,0,1.76-.3,1.22,1.22,0,0,1,1.14-.35,1.47,1.47,0,0,1,.6.3c.23.15.43.31.67.44-.13-.23-.3-.44-.44-.66a1.52,1.52,0,0,0-.68-.56,1.63,1.63,0,0,0-1.74.36,1.19,1.19,0,0,1-1.13.3,1.5,1.5,0,0,1-.61-.32A7.57,7.57,0,0,0,145.87,366.34Zm-45.4,47.23c.26.07.52.1.78.16a1.56,1.56,0,0,0,.87-.09,1.6,1.6,0,0,0,1-1.48,1.21,1.21,0,0,1,.6-1,1.56,1.56,0,0,1,.65-.2c.26-.05.52-.08.78-.15a7.2,7.2,0,0,0-.78-.16,1.51,1.51,0,0,0-.86.06,1.59,1.59,0,0,0-1,1.46,1.21,1.21,0,0,1-.56,1,1.39,1.39,0,0,1-.64.22A7.2,7.2,0,0,0,100.47,413.57ZM89.53,432.29a1.76,1.76,0,0,1,.6-.17c.26-.05.52-.08.78-.15a7.2,7.2,0,0,0-.78-.16,1.65,1.65,0,0,0-.51,0Zm32.53-32.24a7.2,7.2,0,0,0,.78.16,1.56,1.56,0,0,0,.87-.08,1.61,1.61,0,0,0,1-1.49,1.2,1.2,0,0,1,.6-1,1.42,1.42,0,0,1,.65-.2c.26-.06.52-.09.78-.16-.26-.07-.52-.1-.78-.16a1.56,1.56,0,0,0-1.89,1.52,1.23,1.23,0,0,1-.56,1.05,1.39,1.39,0,0,1-.64.21C122.58,400,122.32,400,122.06,400.05ZM135,421.25c.26.07.52.11.78.16a1.56,1.56,0,0,0,.87-.08,1.62,1.62,0,0,0,1-1.49,1.24,1.24,0,0,1,.59-1,1.6,1.6,0,0,1,.66-.19c.26-.06.52-.09.78-.16-.26-.07-.52-.1-.78-.16a1.64,1.64,0,0,0-.87.06,1.58,1.58,0,0,0-1,1.46,1.23,1.23,0,0,1-.56,1.05,1.43,1.43,0,0,1-.64.21C135.47,421.15,135.21,421.18,135,421.25Zm14.18-21.44c.26.07.52.1.78.15a1.56,1.56,0,0,0,.87-.08,1.6,1.6,0,0,0,1-1.48,1.21,1.21,0,0,1,.59-1,1.56,1.56,0,0,1,.66-.2,7.2,7.2,0,0,0,.78-.16c-.26-.07-.52-.1-.78-.15a1.63,1.63,0,0,0-.87.05,1.6,1.6,0,0,0-1,1.46,1.21,1.21,0,0,1-.56,1.05,1.43,1.43,0,0,1-.64.22A7.2,7.2,0,0,0,149.13,399.81Zm-5.5-45.31c.26.07.52.11.78.16a1.47,1.47,0,0,0,.87-.09,1.17,1.17,0,0,0,.34-.2l-.33-.44a1.16,1.16,0,0,1-.24.2,1.39,1.39,0,0,1-.64.21C144.15,354.4,143.89,354.43,143.63,354.5Zm-27.88,74.87c.26.07.52.1.78.15a1.47,1.47,0,0,0,.87-.08,1.61,1.61,0,0,0,1-1.48,1.17,1.17,0,0,1,.59-1,1.56,1.56,0,0,1,.66-.2,7.2,7.2,0,0,0,.78-.16c-.26-.07-.52-.1-.78-.15a1.54,1.54,0,0,0-.87.06,1.59,1.59,0,0,0-1,1.45,1.23,1.23,0,0,1-.55,1.05,1.43,1.43,0,0,1-.65.22A7.2,7.2,0,0,0,115.75,429.37Zm14.39-51.47c.26.07.52.1.78.15a1.47,1.47,0,0,0,.87-.08,1.61,1.61,0,0,0,1-1.48,1.17,1.17,0,0,1,.59-1,1.56,1.56,0,0,1,.65-.2,7.2,7.2,0,0,0,.78-.16c-.26-.07-.52-.1-.78-.15a1.51,1.51,0,0,0-.86.06,1.59,1.59,0,0,0-1,1.45,1.21,1.21,0,0,1-.56,1,1.35,1.35,0,0,1-.64.22A7.2,7.2,0,0,0,130.14,377.9Z" style="fill:#fff"></path><path d="M172.14,436.32a155.71,155.71,0,0,0-2.91-15.89c-1.2-5.25-2.63-10.45-4.1-15.63s-3.17-10.3-4.94-15.38c-.88-2.55-1.83-5.07-2.74-7.6s-1.94-5-3-7.52l5,15.36c1.62,5.13,3.25,10.25,4.71,15.42s3,10.33,4.32,15.53c.67,2.6,1.33,5.21,1.93,7.83S171.62,433.68,172.14,436.32Z" style="fill:#263238"></path><path d="M158.5,385.59c0-1.37-.11-2.72-.22-4.07s-.28-2.7-.55-4c0,1.37.11,2.72.22,4.07S158.23,384.25,158.5,385.59Z" style="fill:#263238"></path><path d="M88.63,436.32q.81-4,1.83-7.93c.63-2.63,1.33-5.25,2.06-7.86,1.45-5.23,3-10.43,4.66-15.58s3.39-10.3,5.19-15.41,3.7-10.2,5.55-15.3c-1.11,2.47-2.19,5-3.26,7.46s-2.06,5-3,7.57c-2,5.07-3.72,10.21-5.42,15.37s-3.15,10.41-4.45,15.69A147.6,147.6,0,0,0,88.63,436.32Z" style="fill:#263238"></path><path d="M103.36,385.59c.26-1.34.4-2.69.55-4s.23-2.7.22-4.07c-.27,1.34-.41,2.69-.56,4S103.35,384.22,103.36,385.59Z" style="fill:#263238"></path><path d="M142.08,295.4c10.78,10.38,6.81,24.38,11.11,32.35,2.62,4.87,11.77,10.38,13.34,15.91,2.57,9.08-5.17,11.85-3.76,16.79,2,7,11.21,7,12.22,18.3s-12,22.55-41.51,24.09-45-10.1-45.47-19.68S97.44,371,98.51,363.9c.69-4.52-5.15-8-5-16.41s8.48-10.63,10-17.66-1.19-24.51,9.75-32.72S136.76,290.28,142.08,295.4Z" style="fill:#263238"></path><path d="M140.75,295.58a24.11,24.11,0,0,1,7,9.12,53,53,0,0,1,3.53,11.76,31.6,31.6,0,0,0,1.88,7,17.75,17.75,0,0,0,3.65,5.08c3,3.05,6.66,5.44,9.32,8.83,2.52,3.2,4.39,7.41,3.07,11.5-.71,2.23-2.31,4-3.36,6.05s-1.49,4.41.13,6.17c1.39,1.5,3.47,2.28,5.07,3.54a18.55,18.55,0,0,1,4,4.39,14.38,14.38,0,0,1,2,11.42c-2.25,9-11.1,13.71-19.19,16.52-1.12.39-2.26.77-3.39,1.15-.17.06-.3-.2-.12-.27,8.12-3.09,17.56-6.72,21.11-15.4a13.38,13.38,0,0,0-.69-11.84A17,17,0,0,0,171,366c-1.53-1.27-3.32-2.1-4.88-3.31a5.38,5.38,0,0,1-2.22-4.95,13.26,13.26,0,0,1,2.52-5.7c1.21-1.86,2.25-3.75,2.22-6a11.8,11.8,0,0,0-2-6c-2.27-3.64-5.79-6.14-8.91-9s-5.6-6.08-6.56-10.28c-.49-2.12-.74-4.29-1.15-6.44a57.3,57.3,0,0,0-1.41-5.89A27.75,27.75,0,0,0,143,297.85a15.5,15.5,0,0,0-2.31-2.12C140.55,295.66,140.66,295.51,140.75,295.58Z" style="fill:#263238"></path><path d="M87.11,376.1A11,11,0,0,1,89.38,372c1.1-1.23,2.39-2.25,3.59-3.38a8.3,8.3,0,0,0,2.62-3.82,8,8,0,0,0-1-5.35,39.14,39.14,0,0,1-2.33-5.26,18.28,18.28,0,0,1,2.77-16.25c1.09-1.58,2.31-3.07,3.41-4.64a23.34,23.34,0,0,0,2.93-5.54c1.57-4.34,2.12-9,3.46-13.39a69.92,69.92,0,0,1,5.52-13c.06-.11.21,0,.15.1a61,61,0,0,0-4.85,11.77c-1.16,3.87-1.74,7.84-2.66,11.76a30.07,30.07,0,0,1-1.82,5.63,31.61,31.61,0,0,1-2.82,4.75c-2.17,3.11-4.4,6.18-5.17,10a18,18,0,0,0,1.26,11.08c1.38,3,3.35,6.33,1.81,9.67-1.31,2.82-4.16,4.39-6.13,6.68a11.6,11.6,0,0,0-2.52,9.15c1.11,8.29,9.1,12.83,16.77,13.68a.19.19,0,0,1,0,.38c-6.69-.47-13.8-3.83-16.58-10.27A14.27,14.27,0,0,1,87.11,376.1Z" style="fill:#263238"></path><path d="M157.53,320.88s-3.28-7.39-6.54-6.34-1.69,11.13,1.52,13.09a3.57,3.57,0,0,0,5.08-1Z" style="fill:#f7a9a0"></path><path d="M151.51,317.42s-.08.06,0,.09c2.24,1.45,3.08,3.95,3.52,6.46a2,2,0,0,0-2.81-1.1.08.08,0,0,0,0,.15,2.21,2.21,0,0,1,2.24,1.22,10.55,10.55,0,0,1,.76,2.15c.07.24.49.2.46-.07a.13.13,0,0,1,0-.06C156.33,323.18,154.77,318.38,151.51,317.42Z" style="fill:#263238"></path><polygon points="76.3 500 198.26 500 185.93 388.37 82.22 388.37 76.3 500" style="fill:#455a64"></polygon><polygon points="76.3 500 86.12 500 91.63 388.37 82.22 388.37 76.3 500" style="fill:#37474f"></polygon></g></svg>