<svg xmlns="http://www.w3.org/2000/svg" viewBox="0 0 750 500"><g id="freepik--background-complete--inject-30"><path d="M329,163.26l-13.13.28-6.66.11c-2.22,0-4.46,0-6.69.06h-.45v-.45l-.05-11.19v-.5h.51l13.24.07c4.41,0,8.82.11,13.24.16h.27v.27c0,1.9-.09,3.79-.13,5.66Zm0,0-.15-5.65c0-1.86-.11-3.71-.13-5.54l.28.28c-4.42.05-8.83.16-13.24.16l-13.24.06.5-.5L303,163.26l-.44-.44c2.18,0,4.35,0,6.54.05l6.58.11Z" style="fill:#ebebeb"></path><path d="M314.25,177.37l-13.12.28-6.66.11c-2.23.05-4.46,0-6.7.06h-.44v-.45l-.06-11.19v-.5h.5l13.24.07c4.42,0,8.83.11,13.24.16h.28v.27c0,1.9-.09,3.79-.13,5.66Zm0,0-.14-5.65c0-1.86-.11-3.71-.13-5.54l.27.28c-4.41,0-8.82.15-13.24.16l-13.24.06.5-.5,0,11.19-.45-.44c2.19,0,4.36,0,6.55,0l6.58.11Z" style="fill:#ebebeb"></path><path d="M343.8,177.37l-13.13.28-6.66.11c-2.22.05-4.46,0-6.69.06h-.45v-.45l-.05-11.19v-.5h.5l13.24.07c4.41,0,8.82.11,13.24.16h.27v.27c0,1.9-.08,3.79-.13,5.66Zm0,0-.14-5.65c-.05-1.86-.12-3.71-.13-5.54l.27.28c-4.42,0-8.83.15-13.24.16l-13.24.06.5-.5-.06,11.19-.44-.44c2.18,0,4.36,0,6.54,0l6.58.11Z" style="fill:#ebebeb"></path><path d="M492.46,397.43l-13.12.28-6.66.11c-2.23.05-4.46,0-6.7.06h-.44v-.45l-.06-11.19v-.5h.5l13.24.07c4.42,0,8.83.11,13.24.16h.28v.27c0,1.9-.09,3.79-.13,5.66Zm0,0-.14-5.65c0-1.86-.11-3.71-.13-5.54l.27.28c-4.41.05-8.82.15-13.24.16l-13.24.06.5-.5-.05,11.19L466,397c2.19,0,4.36,0,6.55.05l6.58.11Z" style="fill:#ebebeb"></path><path d="M477.69,411.54l-13.12.28-6.66.11c-2.23.05-4.47,0-6.7.06h-.44v-.45l-.06-11.19v-.5h.5l13.24.07c4.42,0,8.83.11,13.24.16H478v.27c0,1.9-.09,3.79-.14,5.66Zm0,0-.14-5.65c0-1.86-.11-3.71-.13-5.54l.27.28c-4.41.05-8.82.15-13.24.16l-13.24.06.5-.5,0,11.19-.45-.44c2.18,0,4.36,0,6.55,0l6.58.11Z" style="fill:#ebebeb"></path><path d="M507.24,411.54l-13.13.28-6.66.11c-2.23.05-4.46,0-6.69.06h-.45v-.45l-.05-11.19v-.5h.51l13.24.07c4.41,0,8.82.11,13.24.16h.27v.27c0,1.9-.09,3.79-.13,5.66Zm0,0-.15-5.65c0-1.86-.11-3.71-.13-5.54l.28.28c-4.42.05-8.83.15-13.24.16l-13.24.06.49-.5-.05,11.19-.44-.44c2.18,0,4.35,0,6.54,0l6.58.11Z" style="fill:#ebebeb"></path><path d="M122.13,242.7,109,243l-6.66.11c-2.23,0-4.46,0-6.69.06H95.2v-.45l0-11.19V231h.51l13.24.07c4.41,0,8.82.11,13.24.16h.27v.27c0,1.9-.09,3.79-.13,5.66Zm0,0-.15-5.65c0-1.86-.11-3.71-.13-5.54l.28.28c-4.42.05-8.83.15-13.24.16L95.65,232l.49-.5,0,11.19-.44-.44c2.18,0,4.35,0,6.54.05l6.58.11Z" style="fill:#ebebeb"></path><path d="M689.85,393.92l-13.13.28-6.66.11c-2.22.05-4.46,0-6.69.06h-.45v-.45l0-11.19v-.5h.51l13.24.07c4.41,0,8.82.11,13.24.16h.27v.27c0,1.9-.09,3.79-.13,5.66Zm0,0-.15-5.65c0-1.87-.11-3.71-.13-5.54l.28.27c-4.42.06-8.83.16-13.24.17l-13.24.06.5-.5-.06,11.19-.44-.44c2.18,0,4.35,0,6.54,0l6.58.11Z" style="fill:#ebebeb"></path><path d="M676.61,69.38l-13.13.28-6.66.11c-2.23,0-4.46,0-6.69.06h-.45v-.45l0-11.19v-.5h.51l13.24.06c4.41,0,8.82.12,13.24.17h.27v.27c0,1.9-.09,3.79-.13,5.65Zm0,0-.15-5.65c0-1.87-.11-3.71-.13-5.54l.28.27c-4.42,0-8.83.16-13.24.17l-13.24.06.5-.5-.06,11.19-.44-.45c2.18,0,4.35,0,6.54.06l6.58.11Z" style="fill:#ebebeb"></path><path d="M691.38,83.49l-13.13.28-6.66.11c-2.22.05-4.46,0-6.69.05h-.45v-.45L664.4,72.3v-.5h.5l13.24.06c4.41,0,8.82.12,13.24.17h.27v.27c0,1.9-.08,3.79-.13,5.65Zm0,0-.14-5.65c0-1.87-.12-3.71-.13-5.54l.27.27c-4.42.05-8.83.16-13.24.17l-13.24.06.5-.5-.06,11.19L664.9,83c2.18,0,4.36,0,6.54.06l6.58.11Z" style="fill:#ebebeb"></path><path d="M85.1,69.39,72,69.67l-6.66.11c-2.23,0-4.47,0-6.7.06h-.44v-.45L58.12,58.2v-.5h.5l13.24.07c4.42,0,8.83.11,13.24.16h.28v.27c0,1.9-.09,3.79-.14,5.66Zm0,0L85,63.74c0-1.87-.11-3.71-.13-5.54l.27.27c-4.41.06-8.82.16-13.24.17l-13.24.06.5-.5,0,11.19L58.62,69c2.18,0,4.36,0,6.55,0l6.58.11Z" style="fill:#ebebeb"></path><rect x="63.8" y="116.44" width="212.51" height="9.32" transform="translate(340.12 242.2) rotate(180)" style="fill:#ebebeb"></rect><rect x="255.08" y="125.77" width="9.32" height="30.82" style="fill:#ebebeb"></rect><rect x="255.08" y="125.77" width="9.32" height="9.53" style="fill:#dbdbdb"></rect><rect x="75.71" y="125.77" width="9.32" height="30.82" style="fill:#ebebeb"></rect><rect x="75.71" y="125.77" width="9.32" height="9.53" style="fill:#dbdbdb"></rect><rect x="199.47" y="79.27" width="59.39" height="14.96" transform="translate(315.92 -142.42) rotate(90)" style="fill:#c7c7c7"></rect><rect x="225.91" y="49.66" width="6.53" height="14.96" transform="translate(286.31 -172.03) rotate(90)" style="fill:#dbdbdb"></rect><rect x="227.96" y="62.5" width="2.42" height="14.96" transform="translate(299.15 -159.19) rotate(90)" style="fill:#dbdbdb"></rect><rect x="224.98" y="96.98" width="6.53" height="16.82" transform="translate(333.63 -122.85) rotate(90)" style="fill:#dbdbdb"></rect><rect x="181.82" y="76.58" width="69.28" height="10.45" transform="translate(298.27 -134.66) rotate(90)" style="fill:#dbdbdb"></rect><rect x="203.19" y="63.86" width="26.65" height="6.27" transform="translate(283.51 -149.51) rotate(90)" style="fill:#ebebeb"></rect><rect x="130.54" y="83.16" width="69.28" height="10.45" transform="translate(344.8 35.13) rotate(135.33)" style="fill:#c7c7c7"></rect><rect x="148.24" y="88.78" width="26.65" height="6.27" transform="translate(341.08 43.72) rotate(135.33)" style="fill:#dbdbdb"></rect><rect x="176.06" y="81.27" width="52.63" height="17.75" transform="translate(292.51 -112.23) rotate(90)" style="fill:#a6a6a6"></rect><rect x="199.92" y="99.55" width="4.9" height="17.75" transform="translate(310.8 -93.95) rotate(90)" style="fill:#c7c7c7"></rect><rect x="201.42" y="92.93" width="1.9" height="17.75" transform="translate(304.17 -100.57) rotate(90)" style="fill:#c7c7c7"></rect><rect x="218.05" y="85.6" width="49.46" height="12.26" transform="translate(334.51 -151.05) rotate(90)" style="fill:#a6a6a6"></rect><rect x="240.48" y="102.78" width="4.61" height="12.26" transform="translate(351.69 -133.87) rotate(90)" style="fill:#c7c7c7"></rect><rect x="240.48" y="73.37" width="4.61" height="12.26" transform="translate(322.28 -163.28) rotate(90)" style="fill:#c7c7c7"></rect><rect x="241.89" y="79.72" width="1.79" height="12.26" transform="translate(328.63 -156.93) rotate(90)" style="fill:#c7c7c7"></rect><polygon points="86.14 93.4 87.48 96.92 88.3 99.08 89.63 102.62 94.86 116.45 123.09 116.45 128.33 102.62 129.66 99.08 130.48 96.92 131.82 93.4 121.4 78.22 126.8 68.2 91.14 68.2 96.56 78.22 86.14 93.4" style="fill:#dbdbdb"></polygon><polygon points="86.14 93.4 87.48 96.92 130.48 96.92 131.82 93.4 86.14 93.4" style="fill:#a6a6a6"></polygon><polygon points="88.3 99.08 89.63 102.62 128.33 102.62 129.66 99.08 88.3 99.08" style="fill:#a6a6a6"></polygon></g><g id="freepik--Floor--inject-30"><polygon points="55.82 440.96 135.62 440.72 215.41 440.63 375 440.46 534.59 440.63 614.38 440.71 694.18 440.96 614.38 441.2 534.59 441.29 375 441.46 215.41 441.29 135.62 441.2 55.82 440.96" style="fill:#263238"></polygon></g><g id="freepik--Screen--inject-30"><rect x="282.47" y="74.75" width="406.3" height="275.86" style="fill:#fff"></rect><path d="M689,350.86H282.22V74.5H689Zm-406.31-.5H688.53V75H282.72Z" style="fill:#a6a6a6"></path><rect x="282.47" y="74.52" width="406.3" height="10.88" style="fill:#455a64"></rect><path d="M291.9,80a2.37,2.37,0,1,1-2.37-2.36A2.37,2.37,0,0,1,291.9,80Z" style="fill:#c7c7c7"></path><path d="M301.56,80a2.37,2.37,0,1,1-2.37-2.36A2.37,2.37,0,0,1,301.56,80Z" style="fill:#fff"></path><path d="M311.21,80a2.37,2.37,0,1,1-2.36-2.36A2.37,2.37,0,0,1,311.21,80Z" style="fill:#38E0BE"></path></g><g id="freepik--character-5--inject-30"><rect x="490.44" y="221.75" width="183.97" height="112.47" style="fill:#ebebeb"></rect><path d="M582.55,285.34c-.3,1.06-.69,2.26-1.21,3.64,0,.07-.05.15-.08.23l-.24.66c-.29.76-.58,1.52-.87,2.3-1.34,3.57-2.75,7.32-4.14,11l-1.11,3c-.11.31-.22.61-.34.92l-.12.34-1.35,3.66c-1.25,3.4-2.41,6.61-3.39,9.41a3.62,3.62,0,0,1-.13.35c-1,2.72-1.72,5.05-2.24,6.77s-.82,3-.68,3.25c0,0,0,.11,0,.21a9.66,9.66,0,0,1-1.57,2.24l-.35.4a.31.31,0,0,1-.09.11h0l-.26.3,0,.05H540.08c1.21-2.83,2.68-5.89,4.34-9.08h0c1.26-2.43,2.65-4.94,4.12-7.47l.15-.25c1.6-2.75,3.31-5.53,5.08-8.28l.2-.3.67-1,1.64-2.46.87-1.28.31-.44c.64-.93,1.29-1.86,1.94-2.78l.15-.21c1.73-2.42,3.48-4.76,5.23-7,2.59-3.28,5.17-6.3,7.67-8.92,1.95-2,5.16-4.76,7.57-5.66l.4-.14a4.34,4.34,0,0,1,.66-.14h0l.34,0h.23C583.2,278.9,583.86,280.65,582.55,285.34Z" style="fill:#ad6359"></path><path d="M550.67,307.08l25.54,4.6s6.37-18.1,7.64-28.14c.71-5.63-2.6-5.87-6.76-2.87C562.51,291.14,550.67,307.08,550.67,307.08Z" style="fill:#38E0BE"></path><path d="M561.25,307.64a.48.48,0,0,0-.48.48.48.48,0,1,0,.48-.48Zm8,0a.48.48,0,0,0-.48.48.47.47,0,0,0,.48.48.48.48,0,0,0,.48-.48A.49.49,0,0,0,569.22,307.64Zm8.15,0a.48.48,0,0,0-.18,0,.41.41,0,0,0-.19,0,.31.31,0,0,0-.15.1.4.4,0,0,0-.1.15.37.37,0,0,0,0,.18.48.48,0,0,0,.48.48h.07c.09-.26.18-.53.26-.81A.56.56,0,0,0,577.37,307.68Zm-16.12-12.47a.48.48,0,1,0,.47.48A.47.47,0,0,0,561.25,295.21Zm8,0a.39.39,0,0,0-.29.11.38.38,0,0,0-.18.3s0,0,0,0a.11.11,0,0,0,0,.05.47.47,0,0,0,.48.47.48.48,0,1,0,0-1Zm8,0a.48.48,0,1,0,.48.48A.48.48,0,0,0,577.19,295.21Zm-19.93,6.16a.49.49,0,0,0-.48.48.48.48,0,0,0,1,0A.49.49,0,0,0,557.26,301.37Zm8.42.33a0,0,0,0,0,0,0,.24.24,0,0,0-.06-.11l0,0,0,0v0l0,0h0a.35.35,0,0,0-.14-.06l-.12,0a.49.49,0,0,0-.48.48.47.47,0,0,0,.19.38.24.24,0,0,0,.11.06l.06,0h0a.22.22,0,0,0,.11,0,.33.33,0,0,0,.17,0h0a.38.38,0,0,0,.13-.09.4.4,0,0,0,.1-.15.41.41,0,0,0,0-.19A.4.4,0,0,0,565.68,301.7Zm7.52-.33a.48.48,0,0,0-.47.48.48.48,0,1,0,.95,0A.48.48,0,0,0,573.2,301.37Zm4.15-18.57h0l-.15,0h-.1l-.08,0H577c-.07.08-.12.15-.2.23h0s0,0,0,0h0a.35.35,0,0,0,0,.14.34.34,0,0,0,0,.18h0a.48.48,0,0,0,.92-.19A.47.47,0,0,0,577.35,282.8Zm-4.15,6.14a.47.47,0,0,0-.47.48.48.48,0,1,0,.47-.48Zm8.14,0a.29.29,0,0,0-.16,0,.47.47,0,0,0-.48.48.47.47,0,0,0,.32.45.41.41,0,0,0,.16,0,.48.48,0,0,0,.47-.48A.46.46,0,0,0,581.34,289Z" style="fill:#fff"></path><path d="M576,307.5a171.26,171.26,0,0,0-21.54-4.26s-.07.16,0,.17c5.8,1.49,17.57,3.63,21.52,4.32C576.06,307.75,576.11,307.52,576,307.5Z" style="fill:#263238"></path><path d="M554.09,307.7l22.12,4s6.37-18.1,7.64-28.14c.45-3.61-.74-5-2.75-4.75Z" style="opacity:0.1"></path><path d="M624,334.22H564.58l0-.35h0l0-.12.07-.47.38-2.32s0,0,0,0l1.64-9.93a22.52,22.52,0,0,1-2-3c-.4-.74-.78-1.48-1.11-2.25-.11-.25-.22-.5-.31-.75s-.1-.25-.14-.38a17.82,17.82,0,0,1-.56-1.93c0-.21-.09-.41-.12-.62a.5.5,0,0,0,0-.12,10.85,10.85,0,0,1-.1-2.73h0a6.82,6.82,0,0,1,.1-.79,16,16,0,0,1,1-3c.09-.23.18-.46.29-.69.33-.77.71-1.6,1.13-2.48.13-.28.27-.55.41-.84.83-1.7,1.79-3.54,2.8-5.37a99.61,99.61,0,0,1,5.63-9.15c.3-.42.59-.82.87-1.18v0l.07-.09c.69-.9,1.37-1.73,2-2.47h0s0,0,0,0h0a2.61,2.61,0,0,0,.23-.25h0a28.82,28.82,0,0,1,2.43-2.56s0,0,0,0h0a11.35,11.35,0,0,1,.92-.73.68.68,0,0,1,.18-.13h0c.27-.2.55-.38.84-.56h0a17.29,17.29,0,0,1,11.17-2.31l.21,0a12.3,12.3,0,0,1,5.55,2.35l0,0A11.2,11.2,0,0,1,600,280.3l.11.12a86.15,86.15,0,0,1,13.06,21l.33.72v0c.66,1.45,1.28,2.91,1.88,4.38l.24.6c.54,1.33,1.06,2.67,1.55,4A189.42,189.42,0,0,1,624,334.22Z" style="fill:#38E0BE"></path><path d="M569.22,332.51a.48.48,0,0,0-.48.48.47.47,0,0,0,.48.48.46.46,0,0,0,.2-.05.46.46,0,0,0,.28-.43v0A.49.49,0,0,0,569.22,332.51Zm8,0a.5.5,0,0,0-.44.29.58.58,0,0,0,0,.19.48.48,0,1,0,1,0v0A.49.49,0,0,0,577.19,332.51Zm8,0a.49.49,0,0,0-.48.48.48.48,0,0,0,.48.48.47.47,0,0,0,.48-.48A.48.48,0,0,0,585.16,332.51Zm8,0a.48.48,0,0,0-.47.48.48.48,0,1,0,1,0A.48.48,0,0,0,593.13,332.51Zm8,0a.48.48,0,0,0-.48.48.48.48,0,1,0,.48-.48Zm8,0a.48.48,0,0,0-.48.48.47.47,0,0,0,.48.48.48.48,0,0,0,.48-.48A.49.49,0,0,0,609.08,332.51Zm8,0a.49.49,0,0,0-.48.48.48.48,0,0,0,1,0A.49.49,0,0,0,617.05,332.51Zm-47.83-12.43a.47.47,0,0,0-.48.48.48.48,0,0,0,.48.48.45.45,0,0,0,.35-.16.48.48,0,0,0,.13-.32v0A.48.48,0,0,0,569.22,320.08Zm8.38.23a.49.49,0,0,0-.41-.23.48.48,0,0,0-.48.48.49.49,0,0,0,.44.48h0a.49.49,0,0,0,.48-.48A.52.52,0,0,0,577.6,320.31Zm7.56-.23a.48.48,0,0,0-.48.48.49.49,0,0,0,.48.48.48.48,0,0,0,.48-.48A.47.47,0,0,0,585.16,320.08Zm8,0a.47.47,0,0,0-.47.48.48.48,0,1,0,.47-.48Zm8,0a.47.47,0,0,0-.48.48.48.48,0,1,0,1,0A.47.47,0,0,0,601.11,320.08Zm8,0a.47.47,0,0,0-.48.48.48.48,0,0,0,.48.48.49.49,0,0,0,.48-.48A.48.48,0,0,0,609.08,320.08Zm8,0a.48.48,0,0,0-.48.48.48.48,0,0,0,1,0A.48.48,0,0,0,617.05,320.08Zm-43.39,6.55a.45.45,0,0,0-.46-.38.48.48,0,0,0,0,.95l.12,0a.46.46,0,0,0,.36-.46A.15.15,0,0,0,573.66,326.63Zm7.52-.38a.48.48,0,1,0,.47.47A.47.47,0,0,0,581.18,326.25Zm8,0a.48.48,0,1,0,0,.95.48.48,0,1,0,0-.95Zm8,0a.48.48,0,1,0,.48.47A.48.48,0,0,0,597.12,326.25Zm8,0a.48.48,0,1,0,.48.47A.47.47,0,0,0,605.09,326.25Zm8,0a.48.48,0,1,0,.48.47A.47.47,0,0,0,613.06,326.25Zm8,0a.48.48,0,1,0,.47.47A.47.47,0,0,0,621,326.25Zm-51.82-18.61a.48.48,0,0,0-.48.48.47.47,0,0,0,.48.48.48.48,0,0,0,.48-.48A.49.49,0,0,0,569.22,307.64Zm8.31.14h0a.56.56,0,0,0-.15-.1.34.34,0,0,0-.18,0,.41.41,0,0,0-.19.05.31.31,0,0,0-.15.1.4.4,0,0,0-.1.15.37.37,0,0,0,0,.18.48.48,0,0,0,.48.48h.07a.47.47,0,0,0,.41-.47A.48.48,0,0,0,577.53,307.78Zm7.63-.14a.49.49,0,0,0-.48.48.48.48,0,0,0,.48.48.47.47,0,0,0,.48-.48A.48.48,0,0,0,585.16,307.64Zm8,0a.48.48,0,0,0-.47.48.48.48,0,1,0,1,0A.48.48,0,0,0,593.13,307.64Zm8.33.16a.46.46,0,0,0-.35-.16.49.49,0,0,0-.38.18.51.51,0,0,0-.1.3.48.48,0,1,0,1,0A.53.53,0,0,0,601.46,307.8Zm7.62-.16a.48.48,0,0,0-.48.48.47.47,0,0,0,.48.48.48.48,0,0,0,.48-.48A.49.49,0,0,0,609.08,307.64Zm-43.85,6.17a.48.48,0,0,0-.48.48.49.49,0,0,0,.48.48.48.48,0,0,0,.48-.48A.47.47,0,0,0,565.23,313.81Zm8,0a.47.47,0,0,0-.47.48.48.48,0,1,0,.47-.48Zm8.34.19a.41.41,0,0,0-.36-.19.47.47,0,0,0-.48.48.49.49,0,0,0,.37.47h.11a.48.48,0,0,0,.47-.48A.39.39,0,0,0,581.54,314Zm7.61-.19a.47.47,0,0,0-.48.48.48.48,0,0,0,.48.48.49.49,0,0,0,.48-.48A.48.48,0,0,0,589.15,313.81Zm8,0a.48.48,0,0,0-.48.48.48.48,0,0,0,1,0A.48.48,0,0,0,597.12,313.81Zm8,0a.48.48,0,0,0-.48.48.49.49,0,0,0,.48.48.48.48,0,0,0,.48-.48A.47.47,0,0,0,605.09,313.81Zm8,0a.47.47,0,0,0-.47.48.48.48,0,1,0,.47-.48Zm-43.84-18.6a.39.39,0,0,0-.29.11.38.38,0,0,0-.18.3s0,0,0,0a.11.11,0,0,0,0,.05.47.47,0,0,0,.48.47.48.48,0,1,0,0-1Zm8,0a.48.48,0,1,0,.48.48A.48.48,0,0,0,577.19,295.21Zm8,0a.48.48,0,1,0,0,1,.48.48,0,1,0,0-1Zm8,0a.48.48,0,1,0,.48.48A.47.47,0,0,0,593.13,295.21Zm8,0a.48.48,0,1,0,.47.48A.47.47,0,0,0,601.11,295.21Zm8,0a.48.48,0,1,0,.48.48A.48.48,0,0,0,609.08,295.21Zm-43.4,6.49a0,0,0,0,0,0,0,.24.24,0,0,0-.06-.11l0,0,0,0h0l0,0h0a.35.35,0,0,0-.14-.06c-.14.29-.28.56-.41.84a.24.24,0,0,0,.11.06l.06,0h0a.22.22,0,0,0,.11,0,.33.33,0,0,0,.17,0h0a.38.38,0,0,0,.13-.09.4.4,0,0,0,.1-.15.41.41,0,0,0,0-.19A.4.4,0,0,0,565.68,301.7Zm7.52-.33a.48.48,0,0,0-.47.48.48.48,0,1,0,.95,0A.48.48,0,0,0,573.2,301.37Zm8,0a.48.48,0,0,0-.48.48.48.48,0,1,0,.48-.48Zm8,0a.48.48,0,0,0-.48.48.47.47,0,0,0,.48.48.48.48,0,0,0,.48-.48A.49.49,0,0,0,589.15,301.37Zm8.4.28a.47.47,0,0,0-.43-.28.49.49,0,0,0-.48.48.48.48,0,0,0,.48.48.49.49,0,0,0,.48-.43v0A.46.46,0,0,0,597.55,301.65Zm7.54-.28a.49.49,0,0,0-.48.48.48.48,0,0,0,.48.48.47.47,0,0,0,.48-.48A.48.48,0,0,0,605.09,301.37Zm8.36.74c-.1-.25-.21-.49-.32-.73h-.07a.48.48,0,0,0-.47.48.47.47,0,0,0,.47.48h0a.39.39,0,0,0,.18,0,.42.42,0,0,0,.16-.11s0,0,0,0l0,0Zm-36.1-19.31h0l-.15,0h-.1l-.08,0H577c-.07.08-.12.15-.2.23h0s0,0,0,0h0a.35.35,0,0,0,0,.14.34.34,0,0,0,0,.18h0a.48.48,0,0,0,.92-.19A.47.47,0,0,0,577.35,282.8Zm7.81,0a.49.49,0,0,0-.48.48.48.48,0,0,0,.48.48.47.47,0,0,0,.48-.48A.48.48,0,0,0,585.16,282.77Zm8,0h-.07a.48.48,0,0,0-.47.48.37.37,0,0,0,.07.23.43.43,0,0,0,.4.25.47.47,0,0,0,.48-.48A.47.47,0,0,0,593.2,282.78Zm7.91,0a.48.48,0,0,0-.48.48.48.48,0,1,0,.48-.48Zm-27.91,6.17a.47.47,0,0,0-.47.48.48.48,0,1,0,.47-.48Zm8.14,0a.29.29,0,0,0-.16,0,.47.47,0,0,0-.48.48.47.47,0,0,0,.32.45.41.41,0,0,0,.16,0,.48.48,0,0,0,.47-.48A.46.46,0,0,0,581.34,289Zm7.81,0a.47.47,0,0,0-.48.48.48.48,0,0,0,.48.48.49.49,0,0,0,.48-.48A.48.48,0,0,0,589.15,288.94Zm8,0a.48.48,0,0,0-.48.48.48.48,0,0,0,1,0A.48.48,0,0,0,597.12,288.94Zm8,0a.48.48,0,0,0-.48.48.49.49,0,0,0,.48.48.48.48,0,0,0,.48-.48A.47.47,0,0,0,605.09,288.94ZM589.15,276.5a.48.48,0,0,0-.48.48.47.47,0,0,0,.48.48.48.48,0,0,0,.48-.48A.49.49,0,0,0,589.15,276.5Z" style="fill:#fff"></path><path d="M561.86,308.07a29.58,29.58,0,0,1,3.2-7c1.29-2.35,2.64-4.67,4-7l.15-.25c.23-.73.56-1.45.84-2.16.36-.91.75-1.81,1.1-2.73a0,0,0,1,1,.05,0c-.29.95-.57,1.9-.92,2.83l-.27.73c.47-.76.94-1.53,1.42-2.28.83-1.29,1.69-2.55,2.52-3.84,0,0,.07,0,0,0-1.32,2.25-2.59,4.54-3.91,6.8s-2.61,4.54-3.84,6.84c-.61,1.14-1.21,2.3-1.78,3.46a29.68,29.68,0,0,0-1.48,3.37,10.88,10.88,0,0,0,0,6.93,34.65,34.65,0,0,0,3.56,7.16c.06.09-.08.2-.15.11C563.54,317.41,560.68,313,561.86,308.07Z" style="fill:#263238"></path><path d="M584.57,334.22h-32l.3-.15h0a38.13,38.13,0,0,1,4.64-1.91h0l.5-.17.88-.26a20,20,0,0,1,6.23-.81c.2,0,.74.08,1.53.2l.72.11c.86.13,1.92.31,3.11.51,1.85.3,4,.68,6.27,1.07l.92.17C580,333.38,582.39,333.81,584.57,334.22Z" style="fill:#ad6359"></path><path d="M552.88,334c1.85-1.17,7.07-3.91,12.21-3.15,0,0,0,.09,0,.09-4.24,0-10.28,2.15-12.16,3.13A0,0,0,0,1,552.88,334Z" style="fill:#263238"></path><path d="M574.11,259.85a2.46,2.46,0,0,0,1.81,4.43,2.61,2.61,0,0,0,0,1,2.71,2.71,0,0,0,3,2.08,2.32,2.32,0,0,0,0,.87,2.48,2.48,0,0,0,3,1.85,2.42,2.42,0,0,0,1.37-.88,2.46,2.46,0,0,0,2.91,1.65,2.31,2.31,0,0,0,.93-.45c0,.07,0,.15,0,.22a2.48,2.48,0,0,0,4.69.39,2.44,2.44,0,0,0,2.77,1.36,2.47,2.47,0,0,0,1.82-1.72,2.73,2.73,0,0,0,1.79.19A2.7,2.7,0,0,1,602,270a2.71,2.71,0,0,0,2.1-2.5,2.47,2.47,0,0,0,2.87-2.66,2.65,2.65,0,0,0,1.19,0,2.72,2.72,0,0,0,2-3.26,2.61,2.61,0,0,0-.35-.82,1.63,1.63,0,0,0,.43-.05,2.47,2.47,0,0,0,1.85-3,2.4,2.4,0,0,0-.64-1.17,2.71,2.71,0,0,0,1.79-3.18,2.66,2.66,0,0,0-.73-1.3,2.71,2.71,0,0,0,1.15-2.88,2.66,2.66,0,0,0-1.51-1.85,2.44,2.44,0,0,0-.84-3.55,2.71,2.71,0,0,0-1.87-4.44,2.35,2.35,0,0,0,0-1.18,2.46,2.46,0,0,0-2.63-1.9,2.44,2.44,0,0,0,0-1.17,2.71,2.71,0,0,0-3.25-2,2.76,2.76,0,0,0-.59.22,2.26,2.26,0,0,0-.07-.43,2.7,2.7,0,0,0-3.25-2,2.17,2.17,0,0,0-.63.24,2.51,2.51,0,0,0-.06-.77,27.79,27.79,0,0,1-7.55-1.54,2.75,2.75,0,0,0-1.66,1.16,2.46,2.46,0,0,0-2.72-1.24,2.49,2.49,0,0,0-1.79,1.62,2.4,2.4,0,0,0-2-.43,2.44,2.44,0,0,0-1.89,2.15,2.67,2.67,0,0,0-2.16-.42,2.73,2.73,0,0,0-2.11,2.71,2.49,2.49,0,0,0-.9,0,2.45,2.45,0,0,0-1.84,3,2.55,2.55,0,0,0,.35.81l-.16,0a2.74,2.74,0,0,0-2,3.27,2.59,2.59,0,0,0,.29.73,2.39,2.39,0,0,0-.65.06,2.47,2.47,0,0,0-1.85,2.95,2.51,2.51,0,0,0,1.11,1.55,2.45,2.45,0,0,0,.32,3.91,2.71,2.71,0,0,0,1,5,2.44,2.44,0,0,0-.67,2.3A2.5,2.5,0,0,0,574.11,259.85Z" style="fill:#263238"></path><path d="M592.82,276.48c2.11,1.09,2.16,4-.26,7.25-3.89,5.21-14.82,9.47-14.82,9.47s-.62-10.15,2.74-14.8C582.71,275.31,590.29,275.18,592.82,276.48Z" style="fill:#ad6359"></path><path d="M592.33,278.73c-.38,1-6.29,7.37-11.14,6.56-1.57-.26-.51-9-.51-9l-.07-.66-1-9.22L591,260.94l1.63-.72s.09,2.54.17,5.71c0,.14,0,.29,0,.45s0,.34,0,.51c0,.47,0,1,0,1.44s0,.72,0,1.1v1.15A59.5,59.5,0,0,1,592.33,278.73Z" style="fill:#ad6359"></path><path d="M592.82,265.93a18.59,18.59,0,0,1-12.21,9.75l-1-9.22L591,260.94l1.63-.72S592.74,262.76,592.82,265.93Z" style="fill:#263238"></path><path d="M568.87,250.94c-4.24,15.71,4.69,20,8.08,20.94,3.07.83,13.65,3.25,19.49-11.94s-.12-22.12-7.05-24.38S573.11,235.23,568.87,250.94Z" style="fill:#ad6359"></path><path d="M572.9,248.1a10.63,10.63,0,0,0,1.13,0,1.73,1.73,0,0,0,1.14-.22.58.58,0,0,0,.15-.69,1.43,1.43,0,0,0-1.31-.62,2.1,2.1,0,0,0-1.45.45A.61.61,0,0,0,572.9,248.1Z" style="fill:#263238"></path><path d="M583,250.36c-.36-.13-.68-.3-1-.46a1.76,1.76,0,0,1-1-.67.57.57,0,0,1,.15-.69,1.42,1.42,0,0,1,1.45,0,2.17,2.17,0,0,1,1.14,1A.62.62,0,0,1,583,250.36Z" style="fill:#263238"></path><path d="M580,253.91s.08.07.06.12c-.29,1.07-.44,2.34.44,2.93,0,0,0,.07,0,.06C579.31,256.57,579.54,254.88,580,253.91Z" style="fill:#263238"></path><path d="M581.22,253c1.76.28,1.06,3.79-.57,3.53S579.74,252.78,581.22,253Z" style="fill:#263238"></path><path d="M581.87,253.34c.27.26.5.67.86.78s.81-.17,1.16-.47c0,0,.06,0,.05,0-.12.68-.52,1.31-1.26,1.27s-1-.73-1.06-1.44C581.62,253.4,581.76,253.24,581.87,253.34Z" style="fill:#263238"></path><path d="M574,252.23s-.1,0-.1.08c-.18,1.09-.56,2.32-1.61,2.49,0,0,0,.06,0,.06C573.49,254.92,574,253.29,574,252.23Z" style="fill:#263238"></path><path d="M573.21,250.91c-1.72-.47-2.53,3-.93,3.44S574.66,251.3,573.21,250.91Z" style="fill:#263238"></path><path d="M572.44,251c-.32.12-.67.39-1,.33s-.58-.5-.74-.92c0,0-.05,0-.06,0-.17.66-.11,1.4.5,1.68s1.11-.22,1.43-.85C572.61,251.13,572.56,250.92,572.44,251Z" style="fill:#263238"></path><path d="M578.73,262.7c-.3.22-.62.53-1,.5a2.81,2.81,0,0,1-1.14-.45,0,0,0,0,0-.05.05,1.5,1.5,0,0,0,1.3.8,1.18,1.18,0,0,0,1-.83C578.85,262.71,578.77,262.67,578.73,262.7Z" style="fill:#263238"></path><path d="M574.57,257.54s-.57,1.58-.73,2.35a4.21,4.21,0,0,0,4.28-.39c.08-.06,0-.16-.09-.13a5.63,5.63,0,0,1-3.53.25c0-.23,1.06-2.67.94-2.71a7,7,0,0,0-1.82,0c1.09-3.33,2.7-6.45,3.74-9.77,0-.12-.13-.2-.19-.1a56.69,56.69,0,0,0-4.48,10.36C572.53,257.85,574.24,257.61,574.57,257.54Z" style="fill:#263238"></path><path d="M574.9,260a4.1,4.1,0,0,0,1.36,1.54,1.85,1.85,0,0,0,1.07.28c.83-.06,1-.78,1-1.42a4.38,4.38,0,0,0-.17-1A5.25,5.25,0,0,1,574.9,260Z" style="fill:#263238"></path><path d="M576.26,261.57a1.85,1.85,0,0,0,1.07.28c.83-.06,1-.78,1-1.42A1.87,1.87,0,0,0,576.26,261.57Z" style="fill:#ff99ba"></path><path d="M596.64,259.67a16.8,16.8,0,0,0,5.6-12.43c-.09-7.8-8.63-14.48-18.38-13.5,0,0,12.81,3.2,14.51,10.32S596.64,259.67,596.64,259.67Z" style="fill:#38E0BE"></path><path d="M593.61,260.83c-3-.57-1.56-7.3-1.56-7.3s-11.42-6-9.24-16.17a17.47,17.47,0,0,1-11.37,6.37s3.94-10.65,13.18-10c0,0,11.87-.4,15.09,10S595.59,261.21,593.61,260.83Z" style="fill:#263238"></path><path d="M583,236.62a11.22,11.22,0,0,0-.93,4.66,11.65,11.65,0,0,0,1,4.72,9.27,9.27,0,0,0,.55,1.09l.29.53c.11.17.23.33.35.5s.46.65.72,1l.83.87.42.43.47.38.93.75c.66.44,1.35.85,2,1.24-.6-.53-1.23-1-1.81-1.51l-.84-.82-.42-.4c-.13-.14-.25-.3-.38-.45-.24-.3-.49-.6-.74-.89s-.43-.64-.65-.95l-.32-.48-.27-.51a10.84,10.84,0,0,1-.5-1,13.4,13.4,0,0,1-1.1-4.46,15,15,0,0,1,0-2.32A13.18,13.18,0,0,1,583,236.62Z" style="fill:#263238"></path><path d="M593.68,259.93s4.39-4.37,6.43-2.72-1.88,8.43-4.72,9a2.76,2.76,0,0,1-3.37-2.11Z" style="fill:#ad6359"></path><path d="M598.94,259.13s0,.06,0,.07c-2,.42-3.3,2-4.31,3.65a1.52,1.52,0,0,1,2.31,0,.05.05,0,0,1-.06.09,1.7,1.7,0,0,0-1.94.26,8.51,8.51,0,0,0-1.15,1.32c-.11.15-.4,0-.3-.17l0,0C593.89,261.91,596.34,258.91,598.94,259.13Z" style="fill:#263238"></path><path d="M594,265.17a.66.66,0,1,0,1.31.13.66.66,0,1,0-1.31-.13Z" style="fill:#fff"></path><path d="M563.66,268.44s2-5.67,5.8-4,.83,7,.83,7Z" style="fill:#ff99ba"></path><rect x="554.67" y="267.84" width="7.27" height="42.4" transform="translate(169.41 -204.94) rotate(24.42)" style="fill:#38E0BE"></rect><rect x="562.57" y="269.45" width="8.49" height="1.69" transform="translate(162.43 -210.13) rotate(24.42)" style="fill:#37474f"></rect><rect x="561.8" y="271.15" width="8.49" height="1.69" transform="translate(163.06 -209.66) rotate(24.42)" style="fill:#37474f"></rect><path d="M552.86,309.84l-4.65,3.64-1.53,1.2-.12-1.95-.33-5.9,1.11-.66s.21,1.24.22,1.26l1.11-.65s.21,1.23.21,1.25l1.1-.66s.22,1.25.23,1.27l1.09-.67s.23,1.25.24,1.27l1.09-.67S552.85,309.82,552.86,309.84Z" style="fill:#ebebeb"></path><polygon points="548.21 313.48 546.68 314.68 546.56 312.73 548.21 313.48" style="fill:#37474f"></polygon><path d="M624.92,334.22H568l-.08-.16a8.37,8.37,0,0,1-.58-2.84,31.83,31.83,0,0,1,0-3.57,73.74,73.74,0,0,1,2.74-17.08,16.8,16.8,0,0,1,1.49-3.64c.11-.18.22-.33.32-.47.43-.55.86-.81,1.28-.71l1.74.45c.89.26,1.84.57,2.84.91s2.21.77,3.36,1.21c7.85,2.95,16.85,7.1,18.52,7.62h0c.15,0,.24.06.26,0s0-.06,0-.14a34.07,34.07,0,0,0-.58-4.13c-.19-1.1-.42-2.39-.67-3.82,0-.08,0-.17,0-.25-.31-1.74-.66-3.68-1-5.74,0-.08,0-.16-.05-.25-.59-3.34-1.23-7-1.83-10.63-1.88-11.4.61-13.36,4.24-10.72,2.06,1.51,4.49,4.51,6.69,8.11a181.34,181.34,0,0,1,9.56,18.08l.25.55c.1.23.2.46.31.69s.26.57.38.86c.37.82.72,1.64,1.07,2.47C621.68,319.23,624.42,327.63,624.92,334.22Z" style="fill:#ad6359"></path><path d="M583.52,310.83l-2,3.17-.47.76-3.47,5.55-.45.73-3.49,5.59-.34.55-2.84,4.55L569.7,333l-.28.45-.5.8h-2.27l-1.92-.47h-.07c-1.83-.45-4-1-6.3-1.66L558,332l-.54-.16a36.34,36.34,0,0,1-7.78-3.18,48.77,48.77,0,0,1-5.16-3.42l-.1-.08h0c-2.43-1.93-4.44-4.24-4.49-6.87a7,7,0,0,1,1.81-4.58s-2-4-.49-6.13a8,8,0,0,1,3.82-2.79s-2.45-3.62-.71-5.67a6.5,6.5,0,0,1,3.94-2s-2.75-2.32-.46-4.95c.91-1,3.07-1.38,5.64-1.27a32.9,32.9,0,0,1,7.4,1.31c.76.22,1.48.47,2.16.73a18.39,18.39,0,0,1,1.75.75l.07,0a11.67,11.67,0,0,1,1.46.91c.51.37,1.08.8,1.68,1.3l.15.12.26.21c2.3,1.9,5.06,4.5,7.6,7,.79.77,1.55,1.53,2.27,2.26,1.06,1,2,2,2.82,2.85C582.58,309.84,583.52,310.83,583.52,310.83Z" style="fill:#ad6359"></path><path d="M548.71,296.8c4.74.83,9,3,13.32,4.95a.08.08,0,0,1-.07.15c-4.3-2-8.94-3.08-13.31-4.88A.12.12,0,0,1,548.71,296.8Z" style="fill:#263238"></path><path d="M545.35,304.5a12.69,12.69,0,0,1,3,1.28c1,.53,2.06,1.07,3.08,1.63,2,1.12,4,2.28,6,3.51.09.05,0,.2-.07.15-2-1.11-4.08-2.2-6.16-3.22l-3.13-1.52a14.31,14.31,0,0,1-2.89-1.54A.17.17,0,0,1,545.35,304.5Z" style="fill:#263238"></path><path d="M541.83,313.74a8.8,8.8,0,0,1,2.65,1.29c.92.53,1.84,1.06,2.77,1.58,1.84,1,3.69,2.07,5.57,3,.09.05,0,.2-.07.15-1.91-1-3.84-1.93-5.75-2.92l-2.81-1.48a8.33,8.33,0,0,1-2.42-1.57A.06.06,0,0,1,541.83,313.74Z" style="fill:#263238"></path><path d="M599.88,315.81a27.66,27.66,0,0,1,3.88,3.75,48.52,48.52,0,0,1,3.2,4.08s-.06.07-.09,0c-1.11-1.34-2.39-2.6-3.59-3.9s-2.55-2.52-3.66-3.85C599.55,315.85,599.79,315.74,599.88,315.81Z" style="fill:#263238"></path><path d="M568.59,334.22h-4l-.19-.05-2.25-.63c-1.44-.42-2.88-.84-4.32-1.3l-.29-.09h0L557,332c-.39-.12-.79-.25-1.18-.39-1-.35-2.07-.72-3.09-1.15a27.23,27.23,0,0,1-3-1.48,34,34,0,0,1-5.25-3.74A38.8,38.8,0,0,0,550,328.6a33.58,33.58,0,0,0,6.08,2.32c.75.22,1.49.43,2.24.63h0c.2.07.39.12.59.17l.38.11c1,.29,2.06.56,3.09.83l2.37.61.35.08,2.87.71Z" style="fill:#263238"></path><path d="M623.61,310.88l-25.93.89S594,293,594.15,282.83c.1-5.68,3.41-5.43,7.1-1.87C614.17,293.41,623.61,310.88,623.61,310.88Z" style="fill:#38E0BE"></path><path d="M601.46,307.8a.46.46,0,0,0-.35-.16.49.49,0,0,0-.38.18.51.51,0,0,0-.1.3.48.48,0,1,0,1,0A.53.53,0,0,0,601.46,307.8Zm7.62-.16a.48.48,0,0,0-.48.48.47.47,0,0,0,.48.48.48.48,0,0,0,.48-.48A.49.49,0,0,0,609.08,307.64Zm8,0a.47.47,0,0,0-.28.09.49.49,0,0,0-.2.39.48.48,0,0,0,.48.48h.1a.48.48,0,0,0,.38-.47A.49.49,0,0,0,617.05,307.64Zm-15.94-12.43a.48.48,0,1,0,.47.48A.47.47,0,0,0,601.11,295.21Zm8,0a.48.48,0,1,0,.48.48A.48.48,0,0,0,609.08,295.21Zm-11.53,6.44a.47.47,0,0,0-.43-.28.49.49,0,0,0-.48.48.48.48,0,0,0,.48.48.49.49,0,0,0,.48-.43v0A.46.46,0,0,0,597.55,301.65Zm7.54-.28a.49.49,0,0,0-.48.48.48.48,0,0,0,.48.48.47.47,0,0,0,.48-.48A.48.48,0,0,0,605.09,301.37Zm8,0h-.07a.48.48,0,0,0-.47.48.47.47,0,0,0,.47.48h0a.39.39,0,0,0,.18,0,.42.42,0,0,0,.16-.11s0,0,0,0a0,0,0,0,0,0,0h0a.38.38,0,0,0,.08-.25A.47.47,0,0,0,613.13,301.38Zm-12-18.61a.48.48,0,0,0-.48.48.48.48,0,1,0,.48-.48Zm-4,6.17a.48.48,0,0,0-.48.48.48.48,0,0,0,1,0A.48.48,0,0,0,597.12,288.94Zm8,0a.48.48,0,0,0-.48.48.49.49,0,0,0,.48.48.48.48,0,0,0,.48-.48A.47.47,0,0,0,605.09,288.94Z" style="fill:#fff"></path><path d="M598.44,307.66a172.82,172.82,0,0,1,21.93-1.13s0,.17,0,.17c-6,.65-17.91,1.08-21.92,1.2C598.39,307.9,598.37,307.67,598.44,307.66Z" style="fill:#263238"></path><path d="M594.17,292.49c.29,1.12.57,2.25.84,3.38,0-.14,0-.28,0-.42-.16-1.57-.32-3.15-.43-4.73,0,0,.06,0,.06,0,.78,5.52,2.95,19.44,3.08,21,.12,0,1.3,0,1.58,0,.06,0,0,.09,0,.09s-1.92.23-1.93.2c-.77-2.69-2-12.84-2.2-15.09-.4-1.45-.73-2.91-1-4.39C594.14,292.48,594.16,292.47,594.17,292.49Z" style="fill:#263238"></path></g><g id="freepik--character-4--inject-30"><rect x="296.83" y="221.75" width="183.97" height="112.47" style="fill:#dbdbdb"></rect><path d="M330.5,281.66c-1.46-2.59-7.11-15.08-7.9-18.91s-2.28-15,.59-15.91,3.56,2.33,3.56,2.33.12-4.82,3.09-5.47,3.89,4.43,3.89,4.43.49-4.94,3.5-5.38,3.08,4.82,3.08,4.82.23-4.54,2.86-3.85c3.16.82,1.79,9.14,3,13.3.27,1,6.86,18.75,6.86,18.75Z" style="fill:#c95f50"></path><path d="M340.29,247.12c-1,6.12-.37,9,2,14.59,0,.11-.11.2-.17.09-2.84-5.29-4.13-8.75-2.14-14.74C340.1,246.76,340.34,246.83,340.29,247.12Z" style="fill:#263238"></path><path d="M333.82,247.64c-.48,6.45.17,9.54,2.24,15.61a.08.08,0,0,1-.15.06c-2.53-5.78-3.74-9.26-2.42-15.64C333.55,247.38,333.84,247.35,333.82,247.64Z" style="fill:#263238"></path><path d="M326.87,249.48c0,6.27.55,9.7,3.31,15.33a.11.11,0,0,1-.2.11c-3.37-5.47-4.11-9.74-3.3-15.42C326.73,249.11,326.87,249.08,326.87,249.48Z" style="fill:#263238"></path><path d="M354.6,279.33s2.64-7.3,3.1-10.77-2.61-17-5.58-16.5c-3.82.64-3.59,8.8-2.95,12.78,0,0-8.85,1.48-9.95,7.37S354.6,279.33,354.6,279.33Z" style="fill:#c95f50"></path><path d="M351.13,252.58c-3.06,3.1-1.89,8.27-1.57,12.18,0,.3-.2.42-.43.4-3.67.86-8.59,3.15-10.05,6.85a.09.09,0,0,1-.17-.05c1-4.18,5.68-6.82,9.75-7.51-.4-4-1.34-9.25,2.44-11.9A0,0,0,1,1,351.13,252.58Z" style="fill:#263238"></path><path d="M393.33,279.39c-.41,7.43-10.64,34.85-25.81,46.38-2.06,1.57-11.62,4.11-16.33-.7-8.39-8.58-16.48-31-21.25-44.47-.93-2.64,24.64-9.2,26-5.11,1.46,4.52,6.79,21.16,7.26,21.15,1.7-.07,13.18-13.86,21.78-20.82C391,270.88,393.64,273.68,393.33,279.39Z" style="fill:#c95f50"></path><path d="M329.87,288.51,359,280.92s4.39,14.6,4.82,14.28,15.43-16.32,22.16-20.62,8.31-1.18,7.68,6.5-14.27,39.19-25.88,45.06c-5.91,3-13.32,2-15.31.72C346.25,322.93,329.87,288.51,329.87,288.51Z" style="fill:#455a64"></path><path d="M329.87,288.51,359,280.92s4.39,14.6,4.82,14.28,15.43-16.32,22.16-20.62,8.31-1.18,7.68,6.5-14.27,39.19-25.88,45.06c-5.91,3-13.32,2-15.31.72C346.25,322.93,329.87,288.51,329.87,288.51Z" style="fill:#455a64"></path><path d="M364,295.22a47,47,0,0,1,2,6.45c.55,2.21.91,4.44,1.3,6.67,0,.05-.07.06-.08,0-.48-2.2-1.12-4.37-1.69-6.55s-1.27-4.32-1.75-6.52C363.75,295.14,364,295.08,364,295.22Z" style="fill:#263238"></path><path d="M359.91,286.64c-3.42.78-6.79,1.74-10.16,2.72s-6.75,1.94-10.1,3c-1.89.6-3.79,1.19-5.66,1.85-.05,0,0,.1,0,.09,3.41-.78,6.79-1.73,10.16-2.67s6.76-1.94,10.12-3c1.9-.58,3.78-1.18,5.66-1.85C360,286.78,360,286.62,359.91,286.64Z" style="fill:#263238"></path><path d="M393.61,281.08c-.64,7.67-14.27,39.19-25.88,45.06-.4.2-.8.38-1.21.55l25.25-53.86C393.58,273.56,394,276.51,393.61,281.08Z" style="fill:#263238"></path><path d="M438.83,334.22H378.08c.59-6.38,1.45-14.52,2.32-22.16.05-.43.1-.86.14-1.28.9-7.85,1.79-15,2.36-19,.14-1,.26-1.75.36-2.31a45.65,45.65,0,0,1,4-11.64l.25-.49c.07-.14.14-.28.22-.41h0c.52-1,1-1.89,1.51-2.62h0l.37-.54.32-.44h0c.18-.24.35-.44.5-.61l.2-.21a2.19,2.19,0,0,1,.36-.3,15.07,15.07,0,0,1,5-1.9,14.69,14.69,0,0,1,7.3.22,8.18,8.18,0,0,1,1,.36l.33.15a8.87,8.87,0,0,1,1.75,1.1c.42.34.83.68,1.24,1.05s.89.79,1.33,1.21c11.37,10.71,19.83,29.11,25.47,45.48v0l0,.1c0,.07.05.13.07.2,1.39,4.07,2.61,8,3.65,11.66C438.39,332.62,438.62,333.43,438.83,334.22Z" style="fill:#ebebeb"></path><path d="M439.77,334.22H397.93c0-1.94-.09-4-.14-6a1.2,1.2,0,0,0,0-.19h0c0-.73,0-1.45,0-2.17v0c-.2-8.93-.34-17.08-.24-17.73.14-.88,2.69-14.22,4.71-24.75.06-.29.11-.58.17-.87l.24-1.28c.73-3.78,1.35-7,1.71-8.88l.06-.31s0,0,0,0c.09-.45.16-.8.2-1l.08-.39a6.57,6.57,0,0,1,1.38.83,30.85,30.85,0,0,1,3.41,3,94.74,94.74,0,0,1,9.4,11.39C425.06,294.35,431,308.94,435,320c0,0,0,0,0,0a.36.36,0,0,0,0,.09.75.75,0,0,0,0,.16c1.88,5.21,3.3,9.59,4.1,12.12Z" style="fill:#455a64"></path><path d="M390,272.68v0c0,.08-.05.27-.09.55h0c0,.23-.08.52-.13.87-.09.59-.2,1.34-.33,2.21-.09.62-.19,1.3-.29,2-.37,2.45-.82,5.47-1.28,8.62l-.27,1.88c-.06.35-.11.7-.15,1-.61,4.14-1.21,8.27-1.66,11.41-.06.43-.12.85-.17,1.24-.31,2.2-.51,3.73-.54,4.12-.08,1.22-1.44,16.06-2.5,27.52H377c.92-7.08,2-15.1,2.18-16.3.09-.54.33-2.39.65-4.93.05-.43.11-.88.17-1.34.7-5.59,1.69-13.61,2.47-19,.32-2.24.61-4,.82-4.93a47.53,47.53,0,0,1,4-10.17l.24-.47c.07-.13.14-.26.2-.39.58-1.1,1.11-2,1.51-2.72.11-.18.2-.34.3-.49a1.28,1.28,0,0,1,.11-.2l.36-.59Z" style="fill:#455a64"></path><path d="M456,334a0,0,0,0,1,0,0,1.55,1.55,0,0,1-.07.23l-.06.18a1.13,1.13,0,0,0,0-.18h-13c-1.2-.56-2.42-1.18-3.65-1.85l-1-.57c-8-4.51-15.82-10.62-16.5-12a.2.2,0,0,1,0-.14,0,0,0,0,1,0-.05,0,0,0,0,1,0,0l0-.1c.14-.9-1.32-4.83-3.86-10.95,0,0,0,0,0-.05-.77-1.85-1.64-3.9-2.58-6.12l0,0c-1.2-2.81-2.53-5.9-4-9.23,0,0,0,0,0-.05l-1.86-4.3c-4.95-11.42-3.48-14.65-.38-14.43a3.65,3.65,0,0,1,.55.08,13.77,13.77,0,0,1,5.28,2.66C436.12,293.14,458.32,324.56,456,334Z" style="fill:#455a64"></path><path d="M456,334a0,0,0,0,1,0,0,.86.86,0,0,1-.06.23,1.34,1.34,0,0,1-.07.18,1.13,1.13,0,0,0,0-.18H396.81c-1.26-2.79-1.68-4.87-.6-5.32l1.58-.63.13,0c1.08-.42,2.42-.92,3.9-1.46l4.77-1.73h0l.19-.07c5.71-2,12-4.22,14.86-5.16l.74-.24.81-.23a18.89,18.89,0,0,1,2.88-.36c.71,0,1.43,0,2.17,0a32.56,32.56,0,0,1,6.18,1l.61.15c.48.13,1,.27,1.45.42,9.45,2.86,18.47,9,19.42,12.57A2.07,2.07,0,0,1,456,334Z" style="fill:#c95f50"></path><path d="M411.4,334.22H384.24c3.58-2.42,9.57-4.75,13.54-6.15h0c2.35-.83,4-1.34,4-1.34l0,0C402.28,327.11,406.61,330.42,411.4,334.22Z" style="fill:#c95f50"></path><path d="M455.87,334.22H403.48l-5.56-6-.13-.14h0l-1.57-1.7.16-.05,1.38-.42c3.87-1.17,14.35-4.25,23.32-6.17h0l.53-.12,1.62-.33a16.92,16.92,0,0,1,2.85-.31c.71,0,1.43,0,2.17,0a38.27,38.27,0,0,1,5.71.75H434l.38.08.6.14c9.93,2.27,20.32,8,20.92,13.12A3.34,3.34,0,0,1,455.87,334.22Z" style="fill:#455a64"></path><path d="M415.08,334.22h-1c-2.87-3.42-6.87-8.27-7.47-9.19h0l0,0c-.06-.1.07-.16.14-.1l.08.07C407.76,325.87,412.17,330.88,415.08,334.22Z" style="fill:#263238"></path><path d="M436.46,320.45c-2.44-.84-9.26-2.64-15.38-.81-.06,0-.05.11,0,.09,5.14-.87,12.87.16,15.33.81C436.49,320.56,436.53,320.47,436.46,320.45Z" style="fill:#263238"></path><path d="M397.78,328.07l-1.64-1.64-.1-.1.14-.05c2.07-.76,4.13-1.53,6.22-2.21s4.19-1.36,6.29-2c4.22-1.24,8.48-2.38,12.8-3.31l-.37.64c-1.43-4.46-3.05-8.87-4.68-13.27s-3.4-8.75-5.28-13.06c1.13,2.07,2.16,4.18,3.17,6.31s1.91,4.3,2.81,6.47c1.8,4.35,3.4,8.78,4.92,13.24l.18.52-.55.12c-2.14.46-4.28.93-6.41,1.46s-4.25,1.09-6.36,1.67-4.24,1.15-6.35,1.76l-6.33,1.84,0-.15Z" style="fill:#263238"></path><path d="M415.5,302.78a11.09,11.09,0,0,1-1.19-1.29c-.37-.45-.72-.92-1.05-1.4a21.66,21.66,0,0,1-1.8-3,21.11,21.11,0,0,1,2.2,2.72c.33.47.66.95,1,1.45S415.21,302.27,415.5,302.78Z" style="fill:#263238"></path><path d="M392.56,282.18c3.7.64,9.63-5.29,11.84-9.95.15-.32-1.87-12.62-2-15.09,0-.51-15.34,4.69-15.34,4.69a39.58,39.58,0,0,1,2.07,9.43C389.12,271.62,389,281.55,392.56,282.18Z" style="fill:#c95f50"></path><path d="M387,261.83h0c0,.07.13.37.28.85.26.82.67,2.16,1,3.69a28.87,28.87,0,0,1,.76,4.88c0,.11,0,.23,0,.34v0c0,.21,0,.48,0,.8a11,11,0,0,0,1.52,0c8.46-.7,10.69-11.26,11.25-15.29l-.27.06c-.41.09-.94.23-1.58.41l-.49.15c-1,.3-2.24.68-3.51,1.08l-1.26.4-2.68.87-1.06.36-1.09.35-.5.17a1.35,1.35,0,0,1-.24.08l-1.27.43-.6.2a1.78,1.78,0,0,0-.26.1h0Z" style="fill:#263238"></path><path d="M404.27,241.66c1.22,5.64-3,21.29-7.25,24.5-6.11,4.65-15.45,4.36-19.24-2.83-3.68-7,2.22-27.26,6.86-30.11C391.49,229,402.47,233.32,404.27,241.66Z" style="fill:#c95f50"></path><path d="M387.94,249.65s.07.07.05.12c-.34,1-.56,2.28.28,2.91,0,0,0,.07,0,.06C387.14,252.23,387.45,250.58,387.94,249.65Z" style="fill:#263238"></path><path d="M389.2,248.83c1.72.38.85,3.8-.74,3.45S387.76,248.52,389.2,248.83Z" style="fill:#263238"></path><path d="M381.77,248.26s-.1,0-.11.07c-.23,1.07-.68,2.25-1.73,2.36,0,0-.05.06,0,.06C381.13,250.88,381.71,249.31,381.77,248.26Z" style="fill:#263238"></path><path d="M381.1,246.91c-1.67-.56-2.67,2.82-1.12,3.34S382.5,247.38,381.1,246.91Z" style="fill:#263238"></path><path d="M390.84,247.56a13.06,13.06,0,0,1-1.29-.66,2.39,2.39,0,0,1-1.18-.94.75.75,0,0,1,.25-.87,1.85,1.85,0,0,1,1.87.07,2.75,2.75,0,0,1,1.39,1.38A.8.8,0,0,1,390.84,247.56Z" style="fill:#263238"></path><path d="M380.22,244.7a11.53,11.53,0,0,0,1.44,0,2.36,2.36,0,0,0,1.48-.29.74.74,0,0,0,.18-.89,1.81,1.81,0,0,0-1.69-.79,2.72,2.72,0,0,0-1.87.59A.79.79,0,0,0,380.22,244.7Z" style="fill:#263238"></path><path d="M386.41,259.73c-.31.18-.65.46-1.05.39a2.9,2.9,0,0,1-1.07-.56,0,0,0,0,0-.06.05,1.49,1.49,0,0,0,1.2.92,1.18,1.18,0,0,0,1.07-.73C386.53,259.74,386.46,259.7,386.41,259.73Z" style="fill:#263238"></path><path d="M386.11,256.27a3.71,3.71,0,0,1-2.82,1A4.56,4.56,0,0,1,382,257a1,1,0,0,1-.24-.09l-.22-.09a.27.27,0,0,1-.15-.3h0a.49.49,0,0,1,0-.11h0l0-.09c.19-.82.58-2,.58-2-.33.07-2,.37-1.89,0a55.84,55.84,0,0,1,4.18-10.55c.06-.11.23,0,.19.07-.94,3.38-2.46,6.57-3.45,10a6.41,6.41,0,0,1,1.83-.08c.11.06-.81,2.34-.86,2.72,0,0,0,0,0,0a5.16,5.16,0,0,0,4-.21C386.13,256.11,386.19,256.21,386.11,256.27Z" style="fill:#263238"></path><path d="M382.57,256.7a4.42,4.42,0,0,0,1.37,1.77,2,2,0,0,0,1.15.37c.9,0,1.12-.78,1.14-1.48a5,5,0,0,0-.12-1.12A5.73,5.73,0,0,1,382.57,256.7Z" style="fill:#263238"></path><path d="M383.94,258.47a2,2,0,0,0,1.15.37c.9,0,1.12-.78,1.14-1.48A2,2,0,0,0,383.94,258.47Z" style="fill:#ff99ba"></path><path d="M402.3,254.44c-4-.61-3.75-8.05-3.75-8.05s-6.77-2.15-7-7.51c0,0-7.19,3.24-12.09.61s-3-8.32-2.2-9.49,3.28,1.57,3.28,1.57.81-3.26,1.75-3.47,1.6,1.94,1.6,1.94a43.59,43.59,0,0,1,13-.21c6,1.06,8.12,7.59,8.12,7.59s3.13,1.16,3.85,3.57S404.87,254.82,402.3,254.44Z" style="fill:#263238"></path><path d="M400.17,246.68c-5.46-.07-8.5-4.15-8.53-9.4a.05.05,0,0,0-.1,0c-.54,4.81,3.15,10.79,8.65,9.65A.12.12,0,0,0,400.17,246.68Z" style="fill:#263238"></path><path d="M404.88,237.3a.06.06,0,0,0-.05.1c1.4.91,3,1.69,3.9,3.21,1,1.83.44,4-.31,5.77-1.16,2.8-3.21,6.36-6.06,7.69-.17.08,0,.32.12.25,3.39-1.38,5.92-6,6.85-9.38C410.37,241.17,408.3,238.64,404.88,237.3Z" style="fill:#263238"></path><path d="M385.45,239.52a8,8,0,0,1-8.16-1.33c-2.53-2.38-1.46-5.54.16-8.07.08-.13-.09-.3-.2-.18-2,2.14-2.68,5.74-.68,8.12s6.22,3,9.06,1.82C385.86,239.78,385.68,239.42,385.45,239.52Z" style="fill:#263238"></path><path d="M399.63,254.29s4.13-4.75,6.32-3.23-1.28,8.68-4.12,9.41a2.8,2.8,0,0,1-3.57-1.89Z" style="fill:#c95f50"></path><path d="M404.91,253.09s0,.06,0,.07c-2,.58-3.19,2.25-4.09,4a1.54,1.54,0,0,1,2.34-.18s0,.11-.06.1a1.71,1.71,0,0,0-2,.39,8.68,8.68,0,0,0-1.06,1.43c-.11.16-.41,0-.32-.15l0,0C400,256.28,402.25,253.06,404.91,253.09Z" style="fill:#263238"></path><path d="M389.08,272.57l4.11,9.1,11-12.21,3.42,3.62s-10.46,19.09-10.57,18.26l-4.16-7.82-5.27,5.78-.14-13.95Z" style="fill:#ebebeb"></path><path d="M387.16,282.41c0-2.31,0-4.63.2-6.93,0-.08.13-.12.16,0,.55,2.2.3,11,.4,13.12l0,0c.21-.25,4.89-5.1,4.94-5,.89,1.23,3.93,6.92,4.15,7.44,1.65-3,8-14.07,10-16.95.06-.08.19,0,.15.07-1.44,3.19-9.86,18.05-10,18a92,92,0,0,1-4.35-8.26c-.78,1-5.48,6.49-5.51,6.15A73.51,73.51,0,0,1,387.16,282.41Z" style="fill:#263238"></path></g><g id="freepik--character-3--inject-30"><rect x="490.44" y="99.92" width="183.97" height="112.47" style="fill:#dbdbdb"></rect><path d="M587.29,164.35c0,.06,0,.11,0,.17a72.47,72.47,0,0,1-2.23,12.94c-.34,1.35-.72,2.73-1.11,4.11-.91,3.16-1.94,6.38-3,9.58l-.15.44c-.55,1.63-1.12,3.25-1.68,4.86h0c-1.52,4.33-3.07,8.57-4.46,12.52-.17.48-.34,1-.5,1.43s-.23.66-.34,1-.23.67-.34,1H549c.94-1.55,1.86-3.08,2.7-4.5.95-1.62,1.8-3.1,2.48-4.34,3.21-5.86,6.62-11.78,10-17.55h0c.87-1.48,1.75-2.95,2.62-4.4.06-.1.12-.19.17-.29,2.47-4.1,4.92-8.1,7.3-11.93l.66-1.06c1.71-2.75,3.38-5.42,5-8a20.65,20.65,0,0,1,1.22-1.74,9.54,9.54,0,0,1,2.41-2.25C585.85,155,587.76,156.39,587.29,164.35Z" style="fill:#eb9481"></path><path d="M582,198.49,559,182.34s10.2-14.11,19.32-23.57,17.45-9.41,12.32,11.17S582,198.49,582,198.49Z" style="fill:#455a64"></path><path d="M583.32,193.19c-9.22-5.61-18-12.88-19.61-14-.08-.06,0-.17.1-.11,1.53,1.22,12.51,8.45,19.62,14C583.51,193.13,583.41,193.24,583.32,193.19Z" style="fill:#263238"></path><path d="M590.68,169.94c-5.13,20.57-8.7,28.55-8.7,28.55l-18.9-13.31,22.77-32C591.21,151.12,594.31,155.4,590.68,169.94Z" style="opacity:0.1"></path><path d="M622.49,212.39H562.82q.54-2.49,1.12-5.06c1.38-6,2.91-12.29,4.54-18.34h0q.71-2.56,1.42-5c0-.18.1-.36.15-.53,1.55-5.38,3.18-10.43,4.83-14.8a2.33,2.33,0,0,1,.11-.28c2-5.16,4-9.34,5.91-11.91a1.15,1.15,0,0,1,.14-.17,4,4,0,0,1,.4-.42,7.56,7.56,0,0,1,1.69-1.22l.33-.17a13.43,13.43,0,0,1,2.08-.81,17.27,17.27,0,0,1,3.92-.66.11.11,0,0,1,.08,0h0a11.66,11.66,0,0,1,7.56,1.91,4.88,4.88,0,0,1,.55.47c11.64,11.41,13.93,19.74,16.86,27.47,1.17,3.08,2.46,7.34,3.75,12.18.29,1.07.58,2.17.86,3.29.82,3.2,1.64,6.57,2.42,10Q622,210.32,622.49,212.39Z" style="fill:#455a64"></path><polygon points="584.09 177.42 594.18 177.8 593.89 187.43 588.6 190.02 583.73 187.19 584.09 177.42" style="opacity:0.1"></polygon><path d="M619.15,212.39H565.29c.48-1.08,1.11-1.77,1.87-1.9,2-.34,4.81-.79,8-1.29l1.39-.23c8.33-1.34,18.18-3,19.56-4.28.43-.39.22-2-.16-4.69a.06.06,0,0,1,0,0,0,0,0,0,0,0,0c-.21-1.48-.48-3.26-.73-5.33a1.11,1.11,0,0,0,0-.17c-.22-1.92-.42-4.07-.55-6.42a84.45,84.45,0,0,1,.08-10.26,77.89,77.89,0,0,1,1.09-8.87c2.48-13.7,7.26-8.86,10.29-.73,1.9,5.09,5.56,14.85,8.58,24.8l.13.46c.52,1.71,1,3.43,1.47,5.12A97.42,97.42,0,0,1,619.15,212.39Z" style="fill:#eb9481"></path><path d="M576.3,212.39h-32a30.91,30.91,0,0,1,8.63-4.31c.24-.07.48-.14.73-.19a34.93,34.93,0,0,1,12.22-.56,55.89,55.89,0,0,1,9.29,1.87l.76.23.13,1Z" style="fill:#eb9481"></path><path d="M620.88,198.2l-28,2s-1-17.38.1-30.48,7.58-18.31,16.6.88S620.88,198.2,620.88,198.2Z" style="fill:#455a64"></path><path d="M618,193c-10.68,1.55-22.07,1.53-24.06,1.67-.1,0-.09-.14,0-.15,2,0,15-1.45,24.07-1.68C618.14,192.82,618.13,193,618,193Z" style="fill:#263238"></path><path d="M592.57,200.42c-.29-3.48-.4-7.26-.41-10.77,0-1.22,0-2.44.06-3.66-.24-1.33-.32-2.68-.45-4a.09.09,0,0,1,.17,0c.1.75.22,1.5.32,2.25.07-1.67.17-3.35.29-5,0-.05.09-.06.09,0,0,3.48,0,7,.11,10.43s0,7,.2,10.46c0,0,3.33-.21,3.32-.15S592.57,200.45,592.57,200.42Z" style="fill:#263238"></path><path d="M621.3,198.24c-1.15-3.54-2.59-7.29-4-10.74-.5-1.2-1-2.39-1.57-3.57-.31-1.4-.78-2.77-1.2-4.14,0-.12-.21,0-.18.06.21.78.4,1.57.61,2.35q-1.12-2.43-2.34-4.82s-.11,0-.09,0c1.44,3.42,2.81,6.86,4.17,10.3s2.83,6.87,4.08,10.35c0,0-4,.37-4,.43S621.31,198.27,621.3,198.24Z" style="fill:#263238"></path><path d="M582.83,167.22c3.73.68,9.77-5.28,12-10,.15-.32-1.79-12.77-1.92-15.27,0-.52-15.52,4.63-15.52,4.63a40.14,40.14,0,0,1,2,9.54C579.44,156.52,579.23,166.56,582.83,167.22Z" style="fill:#eb9481"></path><path d="M593.92,149.79a18.52,18.52,0,0,1-14.65,4.58,43.78,43.78,0,0,0-1.85-7.77s15.5-5.14,15.52-4.62C593,143.15,593.46,146.52,593.92,149.79Z" style="fill:#263238"></path><path d="M570,121.45s-4.38,3.17-4.09,8.32,2.65,10,3.13,10.19S570,121.45,570,121.45Z" style="fill:#263238"></path><path d="M592.22,122.79c2.62,5.21,2.44,21.6-.86,25.82-4.8,6.11-14,8.19-19.53,2.12-5.37-5.89-4.75-27.24-.93-31.21C576.52,113.67,588.35,115.09,592.22,122.79Z" style="fill:#eb9481"></path><path d="M591.36,148.61c-4.8,6.11-14,8.19-19.53,2.12-2-2.15-3.12-6.35-3.62-11,0,0,1.35,3.32,3.28,3.34a2.55,2.55,0,0,0,2.44-1.82l.8-.26a9.35,9.35,0,0,0,9,1c5.15-2.13,6-8.31,6-8.31l4.23.19C594.11,139.82,593.24,146.2,591.36,148.61Z" style="opacity:0.30000000000000004"></path><path d="M578.09,135.12s.08,0,.08.1c0,1.1.1,2.37,1.09,2.74,0,0,0,.07,0,.06C578,137.85,577.87,136.16,578.09,135.12Z" style="fill:#263238"></path><path d="M579.08,134c1.78-.12,1.89,3.44.25,3.55S577.59,134.07,579.08,134Z" style="fill:#263238"></path><path d="M572,135.48s-.09.06-.08.1c.07,1.11,0,2.38-1,2.78,0,0,0,.07,0,.06C572.12,138.21,572.24,136.52,572,135.48Z" style="fill:#263238"></path><path d="M571,134.36c-1.78-.07-1.81,3.49-.16,3.56S572.47,134.43,571,134.36Z" style="fill:#263238"></path><path d="M580.43,132.3a13.25,13.25,0,0,1-1.39-.45,2.27,2.27,0,0,1-1.34-.72.76.76,0,0,1,.09-.91,1.89,1.89,0,0,1,1.88-.26,2.77,2.77,0,0,1,1.62,1.14A.81.81,0,0,1,580.43,132.3Z" style="fill:#263238"></path><path d="M569.54,132.61a11.24,11.24,0,0,0,1.4-.41,2.35,2.35,0,0,0,1.35-.69.75.75,0,0,0-.07-.92,1.87,1.87,0,0,0-1.87-.29,2.71,2.71,0,0,0-1.64,1.1A.8.8,0,0,0,569.54,132.61Z" style="fill:#263238"></path><path d="M579.74,145.3c-.26.27-.51.63-.91.68a2.88,2.88,0,0,1-1.19-.24,0,0,0,0,0,0,.06,1.48,1.48,0,0,0,1.42.55,1.17,1.17,0,0,0,.84-1A.06.06,0,0,0,579.74,145.3Z" style="fill:#263238"></path><path d="M578.47,142a3.79,3.79,0,0,1-2.45,1.75,5.1,5.1,0,0,1-1.35.11,1.09,1.09,0,0,1-.26,0l-.25,0a.28.28,0,0,1-.22-.24h0a.24.24,0,0,1,0-.12h0v-.1c-.05-.85,0-2.14,0-2.14-.31.16-1.87.93-1.85.48a55.65,55.65,0,0,1,1.08-11.42.1.1,0,0,1,.2,0c0,3.55-.53,7.07-.54,10.63a6.74,6.74,0,0,1,1.75-.6c.12,0-.12,2.5-.07,2.88a.1.1,0,0,0,0,0,5.19,5.19,0,0,0,3.85-1.33C578.44,141.87,578.53,142,578.47,142Z" style="fill:#263238"></path><path d="M575.15,143.45a4.47,4.47,0,0,0,1.83,1.32,2,2,0,0,0,1.22,0c.88-.26.87-1.07.69-1.76a4.8,4.8,0,0,0-.43-1A5.83,5.83,0,0,1,575.15,143.45Z" style="fill:#263238"></path><path d="M577,144.77a2,2,0,0,0,1.22,0c.88-.26.87-1.07.69-1.76A2.08,2.08,0,0,0,577,144.77Z" style="fill:#ff99ba"></path><path d="M593.74,138.54c-2,.6-4.23-5.29-4.87-7.55-.57-2-1.22-8.33-1.32-8.76s-8.54,5.62-13.48,4.18-8.25-5.87-8.32-7.93,6-7.34,11.36-7.61,12.5,6.45,12.5,6.45a24.86,24.86,0,0,1-2.36-3.15c.08-.24,3.51,1.13,4.15,3.57,0,0-.68-3.07-.42-3.12s2.92,2.56,2.33,4.55c0,0,3.08,2.67,3.37,5.6S596,137.83,593.74,138.54Z" style="fill:#263238"></path><path d="M570.56,125.38a16.61,16.61,0,0,0,4.67,1.67,11.08,11.08,0,0,0,5.32-.87,16.72,16.72,0,0,0,4.67-2.77c1.23-1,2.33-2.25,3.65-3.16.33-.22.71.25.51.56a17.81,17.81,0,0,1-9,6.61,10.19,10.19,0,0,1-9.88-2A0,0,0,0,1,570.56,125.38Z" style="fill:#263238"></path><path d="M591,136.32s2.83-5.7,5.37-4.76.94,8.81-1.65,10.25a2.82,2.82,0,0,1-4-.94Z" style="fill:#eb9481"></path><path d="M595.9,133.81s.06.05,0,.07c-1.81,1.07-2.55,3-3,5a1.55,1.55,0,0,1,2.24-.76c.06,0,0,.11,0,.11a1.74,1.74,0,0,0-1.8.88,8.33,8.33,0,0,0-.67,1.67c-.07.18-.39.14-.35-.07v0C591.91,138.17,593.3,134.45,595.9,133.81Z" style="fill:#263238"></path></g><g id="freepik--character-2--inject-30"><rect x="296.83" y="99.92" width="183.97" height="112.47" style="fill:#ebebeb"></rect><path d="M377.75,181.59l7.75,1.66a24.18,24.18,0,0,0,5.2-13.82c.09-1.15,1.52,5.81-1.26,14.67,8.18,1.76,19.31,4.15,29.06,6.14.91-3.78,1.93-7.24,1.93-7.24a42.44,42.44,0,0,0,.19,7.68l3.89.79a151,151,0,0,1,3.81-16.1,53,53,0,0,0,1.73,17.2c6.2,1.2,10.3,1.88,10.09,1.53-7.34-12.54.71-17.43-.16-27.41-1-12-10.49-15.62-8.58-24.1,1.54-6.89,4.8-19.32-3.46-23.67a17.19,17.19,0,0,0-17.66-7c-14.86,2.67-13.44,25.11-15.21,29.28-2.53,6-5.9,7.59-9.46,14.26s-1.25,12.13-1.81,17.07S376.2,181.28,377.75,181.59Z" style="fill:#263238"></path><path d="M440.71,192.62a24.8,24.8,0,0,1-1.85-6.65c-.31-2.25.41-4.35,1.26-6.51a66.62,66.62,0,0,0,2.44-6.63,18.56,18.56,0,0,0,.68-7.28,16.2,16.2,0,0,0-2.57-6.86,43.63,43.63,0,0,0-4.47-5.54,26.22,26.22,0,0,1-4.06-5.5,12.64,12.64,0,0,1-1.31-6.67,11.83,11.83,0,0,0,.53,7,24.1,24.1,0,0,0,3.78,6,54.65,54.65,0,0,1,4.08,5.54,15.43,15.43,0,0,1,2.18,6.19,18,18,0,0,1-.58,6.59c-.55,2.2-1.39,4.35-2.12,6.6a22.87,22.87,0,0,0-.9,3.49,10.51,10.51,0,0,0,.12,3.67A20.16,20.16,0,0,0,440.71,192.62Z" style="fill:#263238"></path><path d="M400.94,118.4a35.37,35.37,0,0,0-3.46,7.92c-.89,2.74-1.64,5.53-2.36,8.31l-1.1,4.14a21.18,21.18,0,0,1-1.39,3.9,23.11,23.11,0,0,1-5.15,6.45,33.3,33.3,0,0,0-3,3.27,20.15,20.15,0,0,0-2.33,3.85,28.22,28.22,0,0,0-1.43,4.21,18.4,18.4,0,0,0-.6,4.43c0,1.5.13,2.94.22,4.35a21.71,21.71,0,0,1-.13,4.19,8.82,8.82,0,0,1-4.76,6.52,9,9,0,0,0,5.64-6.36,21.58,21.58,0,0,0,.46-4.38c0-1.46-.08-2.88,0-4.26a22.8,22.8,0,0,1,2.18-7.95,19.42,19.42,0,0,1,2.17-3.47,30.29,30.29,0,0,1,2.84-3.08c1-1,2.06-2,3-3.2a18.21,18.21,0,0,0,2.42-3.81,23.55,23.55,0,0,0,1.38-4.24c.35-1.41.65-2.82.94-4.23.59-2.81,1.15-5.62,1.81-8.39A41.71,41.71,0,0,1,400.94,118.4Z" style="fill:#263238"></path><path d="M420.17,158a19.45,19.45,0,0,1-1.14,5.83c-.06.19-.13.37-.19.56h0c-.18.53-.35,1.05-.54,1.57a.88.88,0,0,1-.05.15l-.13.39c-.11.32-.22.63-.34.95,0,0,0,0,0,0-1.48,4.22-3.08,8.34-4.75,12.25l-.12.29c-.49,1.15-1,2.28-1.48,3.38-.76,1.68-1.52,3.31-2.29,4.87-.66,1.36-1.33,2.67-2,3.93l-.66,1.22c-1.07,2-2.12,3.77-3.16,5.4l-.33.51a46.46,46.46,0,0,1-3.64,5l-.72.8-.36.37a12.14,12.14,0,0,1-.92.87,9.15,9.15,0,0,1-1.63,1.19,63.87,63.87,0,0,1-8.39,3.16c-1.61.54-3.36,1.09-5.18,1.65h-29.4a69.55,69.55,0,0,1-2-7.22c-.14-.63-.27-1.25-.39-1.87s-.18-1-.25-1.41c-.23-1.34-.4-2.61-.48-3.74-.05-.59-.07-1.14-.07-1.65a9.92,9.92,0,0,1,.15-1.86,2.41,2.41,0,0,1,.51-1.18h0a58.45,58.45,0,0,1,5.88-1.66l7.24-1.83c7.79-2,16.89-4.25,20.77-5.44h0a8.53,8.53,0,0,0,1.86-.7c.49-.4,2.24-2.39,4.74-5.29h0c1.49-1.7,3.22-3.71,5.12-5.91l1.63-1.89h0l1.7-2c.41-.46.81-.93,1.22-1.4,2.84-3.26,5.82-6.64,8.68-9.79,0-.07.11-.13.17-.2l.13-.14,0,0a18.67,18.67,0,0,1,1.32-1.34l.48-.42a11.34,11.34,0,0,1,3.45-2.15,5.39,5.39,0,0,1,2.1-.37,3.12,3.12,0,0,1,2.66,1.65A6.71,6.71,0,0,1,420.17,158Z" style="fill:#f7a9a0"></path><path d="M358.27,212.39H346.48a.39.39,0,0,0-.11-.06,5.19,5.19,0,0,0-3,0l-.27.06H313.23l-.12-.14c-1-1.32-.26-3,1.19-4.68l-.07,0a1.36,1.36,0,0,1-.89-.77c-1.95-3.84,10.55-12.65,15.16-13.6l.36-.06a88.9,88.9,0,0,1,21.36.34c2.59.33,4.17.64,4.17.64a4.19,4.19,0,0,1,.46.55,8.11,8.11,0,0,1,1,1.86c.21.5.4,1.06.58,1.65a36.49,36.49,0,0,1,.85,3.74c.07.46.15.93.22,1.41s.17,1.25.24,1.88c.11.93.2,1.86.27,2.78,0,.19,0,.38,0,.57a2,2,0,0,1,0,.23C358.16,210,358.23,211.25,358.27,212.39Z" style="fill:#f7a9a0"></path><path d="M341.61,205.59a20,20,0,0,0-8.55,2.7,0,0,0,0,1,0,0c-1.44.84-2.8,1.82-4.18,2.75-.68.46-1.37.9-2.06,1.34h-.34a55.92,55.92,0,0,1,6.35-4.48l.25-.14a20.18,20.18,0,0,1,8.54-2.23S341.65,205.58,341.61,205.59Z" style="fill:#263238"></path><path d="M339.91,200.13c-2,.35-3.91.7-5.84,1.2-.6.16-1.19.33-1.77.53h0c-.59.19-1.16.41-1.73.65a26.7,26.7,0,0,0-5.78,3.32q-4.25,3.16-8.28,6.56h-.25c1.51-1.37,3.05-2.7,4.62-4,2.81-2.33,5.68-4.77,9.14-6.07.15-.05.29-.11.44-.15s.57-.21.86-.3a60.11,60.11,0,0,1,8.59-1.79S340,200.13,339.91,200.13Z" style="fill:#263238"></path><path d="M337,195.14c-3.21.29-6,.53-9,1.9a45,45,0,0,0-9.28,6.35c-1.54,1.32-3,2.68-4.5,4.06-.06.06,0,.17.09.11a104.74,104.74,0,0,1,10.62-8.4,20.81,20.81,0,0,1,5.73-2.87,36.34,36.34,0,0,1,6.3-1.13S337,195.14,337,195.14Z" style="fill:#263238"></path><path d="M413.53,184.9l-18.18-12.64s9.1-12.51,16.5-18.18,9.83-.61,8.11,8.31S413.53,184.9,413.53,184.9Z" style="fill:#38E0BE"></path><path d="M418.76,166.3a.91.91,0,0,1-.22-.11h0a1,1,0,0,1-.19-.17l0,0a.83.83,0,0,1-.2-.3,1.13,1.13,0,0,1-.13-.54,1.54,1.54,0,0,0-1-1.44,1.48,1.48,0,0,0-.85-.06l-.78.15a6.74,6.74,0,0,0,.78.16,1.66,1.66,0,0,1,.64.19,1.2,1.2,0,0,1,.58,1,1.6,1.6,0,0,0,.43,1.09,1.61,1.61,0,0,0,.28.24l.07,0,.17.09h0a1.51,1.51,0,0,0,.69.1l.09-.34A2.13,2.13,0,0,1,418.76,166.3Zm-18.37.62c-.06-.25-.09-.51-.16-.76-.07.25-.1.51-.15.76a1.61,1.61,0,0,1-.19.65,1.22,1.22,0,0,1-1,.59,1.59,1.59,0,0,0-.43.06h0c-.31.39-.6.76-.87,1.12l-.26.34h0a2.83,2.83,0,0,0,0,.29c.06.24.09.5.16.74h0a6.26,6.26,0,0,0,.14-.73,1.52,1.52,0,0,1,.22-.64,1.2,1.2,0,0,1,1-.55,1.1,1.1,0,0,0,.31,0,1.55,1.55,0,0,0,1.13-1,1.11,1.11,0,0,0,.09-.43A1.51,1.51,0,0,0,400.39,166.92Zm13.08,9.71a1.26,1.26,0,0,1-.6.3,1.21,1.21,0,0,1-1.12-.34,1.57,1.57,0,0,0-1.73-.3,1.6,1.6,0,0,0-.64.56l0,.06c-.11.17-.24.33-.34.51a.22.22,0,0,0-.05.08l.09-.06c.19-.11.36-.24.53-.36h0a1.53,1.53,0,0,1,.6-.32,1.17,1.17,0,0,1,1.12.3,1.55,1.55,0,0,0,2.38-.19c.15-.23.3-.43.44-.66C413.89,176.33,413.69,176.49,413.47,176.63Z" style="fill:#fff"></path><path d="M398.56,169.64a138.84,138.84,0,0,1,15.35,10.87s-.05.14-.08.12c-4.36-2.71-12.64-8.77-15.4-10.81C398.38,169.78,398.5,169.6,398.56,169.64Z" style="fill:#263238"></path><path d="M396.84,173.31l16.69,11.59s4.7-13.59,6.43-22.51c1.11-5.76.49-9.91-2.08-10.6Z" style="fill:#263238"></path><path d="M454,212.39H398l.3-6.87,0-.36.17-3.91v-.18a26.45,26.45,0,0,1-3.56-9.25,16.5,16.5,0,0,1-.22-2.64h0v0a13.11,13.11,0,0,1,.37-3.16c.05-.2.11-.42.18-.64s.07-.24.11-.37a66.42,66.42,0,0,1,4.33-9.7h0c.56-1.07,1.14-2.16,1.74-3.25l.23-.41c1.54-2.78,3.16-5.54,4.65-8,1-1.65,1.93-3.14,2.74-4.39l.24-.37.23-.36c.51-.78,1-1.44,1.31-1.95l.57-.77.31-.35a14.73,14.73,0,0,1,3-2.17,12.5,12.5,0,0,1,2.88-1.16c.24-.07.47-.12.71-.17h0a12,12,0,0,1,3.7-.19l.26,0,.46.07c3.39.52,6.87,2.48,10,6.17h0s0,0,0,0c.19.22.38.45.56.68q.75.93,1.47,1.95a65,65,0,0,1,5.2,9c.34.68.67,1.38,1,2.08s.76,1.68,1.13,2.53h0c.16.35.31.71.46,1.07,0,.08.07.17.1.26.48,1.12.93,2.25,1.37,3.4A255.9,255.9,0,0,1,454,212.39Z" style="fill:#38E0BE"></path><path d="M432.66,201.44a1.33,1.33,0,0,1-.59.3,1.19,1.19,0,0,1-1.12-.34,1.53,1.53,0,0,0-1.72-.29,1.39,1.39,0,0,0-.65.56c-.15.21-.3.41-.44.64a7.48,7.48,0,0,0,.66-.43,1.57,1.57,0,0,1,.59-.32,1.19,1.19,0,0,1,1.12.3,1.53,1.53,0,0,0,2.38-.19c.14-.22.3-.42.43-.65C433.09,201.14,432.89,201.3,432.66,201.44Zm-33.23,2.85-.08.06a1.32,1.32,0,0,1-.52.23,1.26,1.26,0,0,1-.51,0l0,.57a1.29,1.29,0,0,0,.34,0,1.19,1.19,0,0,0,.36-.09,1.48,1.48,0,0,0,.65-.55c.15-.22.31-.42.44-.65A7.31,7.31,0,0,0,399.43,204.29Zm14-27.66a1.26,1.26,0,0,1-.6.3,1.21,1.21,0,0,1-1.12-.34,1.57,1.57,0,0,0-1.73-.3,1.6,1.6,0,0,0-.64.56l0,.06c-.11.17-.24.33-.34.51a.22.22,0,0,0-.05.08l.09-.06c.19-.11.36-.24.53-.36h0a1.53,1.53,0,0,1,.6-.32,1.17,1.17,0,0,1,1.12.3,1.55,1.55,0,0,0,2.38-.19c.15-.23.3-.43.44-.66C413.89,176.33,413.69,176.49,413.47,176.63ZM432.76,158s0,0,0,0h0a1.46,1.46,0,0,1-.25-.2l-.1-.08h0a0,0,0,0,1,0,0s0,0,0,0l-.06,0-.16-.1-.24-.1a1.56,1.56,0,0,0-.48-.08h0a1.36,1.36,0,0,0-.63.15,1.5,1.5,0,0,0-.65.56c-.14.22-.3.42-.43.65.23-.13.43-.29.66-.43a1.28,1.28,0,0,1,.59-.32,1.18,1.18,0,0,1,1.12.29,1.24,1.24,0,0,0,.22.18h0a1.54,1.54,0,0,0,1,.26h.1Zm3.16,14.34c-.06-.25-.09-.51-.15-.76a6.85,6.85,0,0,0-.16.76,1.66,1.66,0,0,1-.2.65,1.18,1.18,0,0,1-1,.59,1.59,1.59,0,0,0-1.46,1,1.51,1.51,0,0,0-.08.86c.05.25.08.51.15.76a6.85,6.85,0,0,0,.16-.76,1.39,1.39,0,0,1,.21-.64,1.22,1.22,0,0,1,1-.55,1.57,1.57,0,0,0,1.44-1A1.61,1.61,0,0,0,435.92,172.38Zm-22.87,19a7,7,0,0,0-.15-.77c-.07.25-.1.52-.16.77a1.34,1.34,0,0,1-.19.64,1.17,1.17,0,0,1-1,.59,1.59,1.59,0,0,0-1.47,1,1.52,1.52,0,0,0-.08.86c.05.25.09.51.15.76.07-.25.11-.51.16-.76a1.56,1.56,0,0,1,.21-.64,1.22,1.22,0,0,1,1-.55,1.54,1.54,0,0,0,1.3-.74h0a1.23,1.23,0,0,0,.12-.26A1.6,1.6,0,0,0,413.05,191.38ZM445.83,185c-.22.12-.41.28-.63.42a1.72,1.72,0,0,1-.59.32,1.21,1.21,0,0,1-1.12-.3,1.59,1.59,0,0,0-1.72-.36,1.42,1.42,0,0,0-.65.55,7.57,7.57,0,0,0-.44.66c.23-.14.44-.29.65-.44a1.54,1.54,0,0,1,.6-.3,1.21,1.21,0,0,1,1.12.34,1.55,1.55,0,0,0,2.38-.26c.13-.2.28-.39.41-.61l0,0Zm2.54,16.52a1.47,1.47,0,0,1-.63-.21,1.26,1.26,0,0,1-.56-1,1.56,1.56,0,0,0-1-1.43,1.6,1.6,0,0,0-.86-.05c-.25.05-.51.07-.76.14a6.85,6.85,0,0,0,.76.16,1.42,1.42,0,0,1,.65.2,1.18,1.18,0,0,1,.59,1,1.58,1.58,0,0,0,.95,1.47,1.52,1.52,0,0,0,.86.08c.25,0,.52-.09.77-.15C448.89,201.6,448.62,201.56,448.37,201.51Zm-21.05-13.27-.21,0a1.43,1.43,0,0,1-.63-.21,1.18,1.18,0,0,1-.55-1,1.58,1.58,0,0,0-.37-1,1.46,1.46,0,0,0-.64-.46,1.67,1.67,0,0,0-.85-.06c-.25.06-.52.09-.77.16a7,7,0,0,0,.77.15,1.46,1.46,0,0,1,.64.2,1.17,1.17,0,0,1,.58,1,1,1,0,0,0,0,.17,1.59,1.59,0,0,0,1,1.29,1.41,1.41,0,0,0,.85.09l.26-.05a4.64,4.64,0,0,0,.51-.11Zm-12.9,20.84a1.27,1.27,0,0,1-.62-.22,1.19,1.19,0,0,1-.55-1,1.55,1.55,0,0,0-1.87-1.5c-.26.06-.51.09-.77.16.26.07.51.1.77.15a1.72,1.72,0,0,1,.65.2,1.16,1.16,0,0,1,.58,1,1.56,1.56,0,0,0,.95,1.46,1.53,1.53,0,0,0,.86.08,6.71,6.71,0,0,0,.78-.15A5.12,5.12,0,0,0,414.42,209.08Zm-15.36-21.49a1.38,1.38,0,0,1-.62-.21,1.18,1.18,0,0,1-.55-1,1.42,1.42,0,0,0-.08-.45,1.6,1.6,0,0,0-.94-1,1.56,1.56,0,0,0-.85,0,5.57,5.57,0,0,0-.67.12.11.11,0,0,0,0,.05c.24.06.45.09.68.13a1.46,1.46,0,0,1,.65.2,1.22,1.22,0,0,1,.38.37,1,1,0,0,1,.2.63,1.58,1.58,0,0,0,.95,1.46,1.44,1.44,0,0,0,.86.08,7.2,7.2,0,0,0,.78-.16Zm20.1-21.2h-.08a2.13,2.13,0,0,1-.32-.08.91.91,0,0,1-.22-.11h0a1,1,0,0,1-.19-.17l0,0a.83.83,0,0,1-.2-.3,1.13,1.13,0,0,1-.13-.54,1.54,1.54,0,0,0-1-1.44,1.48,1.48,0,0,0-.85-.06l-.78.15a6.74,6.74,0,0,0,.78.16,1.66,1.66,0,0,1,.64.19,1.2,1.2,0,0,1,.58,1,1.6,1.6,0,0,0,.43,1.09,1.61,1.61,0,0,0,.28.24l.07,0,.17.09h0a1.51,1.51,0,0,0,.69.1l.17,0c.25-.06.51-.08.76-.15A6.85,6.85,0,0,0,419.16,166.39Z" style="fill:#fff"></path><path d="M409.49,212.39c0-1.89,0-3.78,0-5.67s.08-3.78.11-5.66l.06.2-.3-.44,0,0-.06-.11v0a27.14,27.14,0,0,1-3.82-9.33,16,16,0,0,1-.16-5.13,44.42,44.42,0,0,1,1.17-4.91c.46-1.61,1-3.19,1.5-4.78s1.14-3.13,1.73-4.69c1.17-3.12,2.34-6.23,3.59-9.32h0l.5-1.17.51-1.18h0v0h0l.06-.13,0,.13h0v0h0l-.83,2.45h0q-1.52,4.76-3.1,9.48l-1.59,4.72c-.48,1.59-1,3.17-1.42,4.77a45.47,45.47,0,0,0-1.09,4.8,14.94,14.94,0,0,0,.08,4.81,29.28,29.28,0,0,0,3.5,9.12l0,0h0l.06.11,0,0,.28.44.06.1v.1c-.13,1.89-.23,3.78-.38,5.66S409.66,210.51,409.49,212.39Z" style="fill:#263238"></path><path d="M406.49,172.87a.92.92,0,0,0,.72,1,.84.84,0,0,0,.92-.79.91.91,0,0,0-.72-1A.83.83,0,0,0,406.49,172.87Z" style="fill:#263238"></path><path d="M403.24,183.14a.92.92,0,0,0,.72,1,.83.83,0,0,0,.92-.78.92.92,0,0,0-.72-1A.83.83,0,0,0,403.24,183.14Z" style="fill:#263238"></path><path d="M403.24,193.47a.91.91,0,0,0,.72,1,.83.83,0,0,0,.92-.78.92.92,0,0,0-.72-1A.84.84,0,0,0,403.24,193.47Z" style="fill:#263238"></path><path d="M406.49,201.86a.92.92,0,0,0,.72,1,.84.84,0,0,0,.92-.79.9.9,0,0,0-.72-1A.83.83,0,0,0,406.49,201.86Z" style="fill:#263238"></path><path d="M407.45,212.39h-1.66s0-.07,0-.11a.83.83,0,0,1,.92-.78A.89.89,0,0,1,407.45,212.39Z" style="fill:#263238"></path><path d="M417,199.66a55.69,55.69,0,0,0-8.24-.91c-1.38,0-2.75,0-4.12.07-.69,0-1.37,0-2.06,0a9.07,9.07,0,0,1-2.14-.19.05.05,0,0,0,0,.1,15,15,0,0,0,2,.51,14.13,14.13,0,0,0,2,.17c1.39.05,2.79,0,4.19.06,2.81.06,5.63.12,8.44.38C417.09,199.9,417.12,199.69,417,199.66Z" style="fill:#263238"></path><path d="M422.9,203.86a59.69,59.69,0,0,0-6.5-2.17c-1.11-.29-2.22-.52-3.34-.72-.54-.1-1.08-.18-1.62-.26s-1.2-.1-1.79-.2c-.06,0-.09.09,0,.1.56.11,1.1.31,1.65.45l1.65.41c1.11.29,2.21.58,3.32.85,2.21.54,4.41,1.1,6.61,1.72A.09.09,0,0,0,422.9,203.86Z" style="fill:#263238"></path><path d="M448.69,212.11l-.51.28h-60.5c-.12-.53-.24-1.08-.35-1.65-1.41-7.17-1.88-16.54-.17-18.08.72-.65,3.7-.85,7.75-.84,1.52,0,3.2.05,5,.1h0c2,.07,4.12.16,6.26.26l1,0,4.95.24.78,0h0c8,.37,14.77.59,15-.35a14.52,14.52,0,0,0-.55-3.68,1.55,1.55,0,0,1-.05-.23c-.25-1.16-.56-2.56-.89-4.14,0-.06,0-.13,0-.2a.13.13,0,0,1,0-.06c-.05-.23-.1-.46-.14-.69-.2-.93-.4-1.91-.6-3a2,2,0,0,1-.05-.24,153.19,153.19,0,0,1-2.27-15.56,27.43,27.43,0,0,1,.06-6.74h0c.07-.36.14-.69.23-1,0-.14.08-.27.13-.4a3.6,3.6,0,0,1,1-1.69h0s.05-.05.08-.05a1.12,1.12,0,0,1,.29-.21c1.74-1,4.29.83,6.24,3.07h0c.3.35.6.71.87,1.08h0c.33.45.64.9.9,1.33,2.14,3.54,4.39,7.6,6.54,11.85l.84,1.67c.36.72.71,1.46,1.06,2.19l0,.07c0,.1.09.2.14.29.52,1.1,1,2.21,1.53,3.31.89,1.95,1.73,3.89,2.5,5.81v0C451,197.68,453.59,209.32,448.69,212.11Z" style="fill:#f7a9a0"></path><path d="M345.81,190.07s-14.32-6.63-14.31-15.48,18.62-14.52,18.63-21.44-8.09-11-8.09-11,12.8,4.4,12.78,13.15S342.54,170,341.36,175.52C339.72,183.25,345.81,190.07,345.81,190.07Z" style="fill:#ebebeb;opacity:0.6000000000000001"></path><path d="M345.1,190.07s14.35-5.17,14.36-12.13S340.88,166.47,340.89,161,349,152.4,349,152.4s-12.81,3.42-12.82,10.3,14.06,11.63,15.06,17.22S345.1,190.07,345.1,190.07Z" style="fill:#ebebeb;opacity:0.6000000000000001"></path><polygon points="352.44 212.34 352.44 212.39 338.81 212.39 338.81 212.32 343.37 212.33 346.37 212.33 352.44 212.34" style="fill:#38E0BE"></polygon><polygon points="352.44 212.34 352.44 212.39 338.81 212.39 338.81 212.32 343.37 212.33 346.37 212.33 352.44 212.34" style="fill:#263238"></polygon><path d="M368.64,206.64a7.71,7.71,0,0,1-7.68,3.28,8.34,8.34,0,0,1-1.39-.4,10,10,0,0,1-1.92-1l1.73-2.57a6.53,6.53,0,0,0,1,.59,4.54,4.54,0,0,0,5.71-1.67c1.87-2.62,2.55-8.62.66-10.93-.13-.17-.67-.44-2.87,0-.41.09-.87.19-1.39.33a5.08,5.08,0,0,1-1.24.27l-.06-1.54-.14-1.54.65-.17a20.21,20.21,0,0,1,3.1-.64c1.61-.16,3.31,0,4.35,1.31C372.25,195.73,371,203.35,368.64,206.64Z" style="fill:#38E0BE"></path><path d="M359.38,205.93a6.53,6.53,0,0,0,1,.59l-.84,3a10,10,0,0,1-1.92-1Z" style="fill:#263238"></path><path d="M364.83,190.65l-.92,3.29c-.41.09-.87.19-1.39.33a5.08,5.08,0,0,1-1.24.27l-.06-1.54-.14-1.54.65-.17A20.21,20.21,0,0,1,364.83,190.65Z" style="fill:#263238"></path><path d="M363.81,186.63s-.16,1.32-.46,3.33l-.15,1c-.13.81-.28,1.7-.44,2.64,0,.22-.08.45-.13.68s0,.27-.07.42h0c0,.15-.05.29-.08.45s-.11.58-.17.87c0,0,0,0,0,0s0,.08,0,.12,0,0,0,0-.05.23-.07.35c-.06.32-.12.64-.2,1a0,0,0,0,0,0,0s0,0,0,0c0,.21-.08.41-.13.62-.29,1.28-.6,2.54-.94,3.74-.13.48-.27,1-.42,1.41-.21.66-.43,1.29-.66,1.87-.12.29-.23.56-.35.81s-.11.25-.17.37a16.14,16.14,0,0,1-1.26,2.17l-.1.15a9.49,9.49,0,0,1-4.75,3.7H338.12a9.61,9.61,0,0,1-5.06-4.1l-.24-.38a16.49,16.49,0,0,1-.86-1.58c-.18-.37-.35-.76-.51-1.19-.09-.21-.17-.43-.25-.65-.14-.38-.28-.79-.41-1.22-.08-.25-.16-.5-.23-.76,0-.11-.07-.23-.11-.35s-.05-.2-.08-.3-.06-.2-.08-.3l-.21-.79c-.23-.86-.43-1.75-.63-2.65l-.27-1.3c0-.09,0-.17-.05-.25a.44.44,0,0,1,0-.1c-.13-.63-.25-1.26-.36-1.87s-.17-1-.25-1.42c-.64-3.71-1-6.61-1-6.61l12.4,0h23.88Z" style="fill:#38E0BE"></path><g style="opacity:0.1"><path d="M329.45,198.12c.28,1.28.58,2.54.92,3.74l30.54,0c.34-1.2.65-2.46.94-3.74Z"></path><path d="M330.79,203.27c.21.67.42,1.3.65,1.87l28.39.05c.23-.58.45-1.21.66-1.87Z"></path><path d="M328.75,194.6c.11.61.23,1.24.36,1.87l33.08.05q.19-.95.36-1.86Z"></path></g><path d="M400.41,192.22l-2,9-1.11,5.14-1.29,6H366.44a6.74,6.74,0,0,1,.14-2l-.3-.23,0,0c-.22-.17-.54-.44-.88-.76a7.5,7.5,0,0,1-1.83-2.59l-.06-.17a1.55,1.55,0,0,1-.07-.31c0-.1,0-.2,0-.29a1.58,1.58,0,0,1,0-.53s0-.05,0-.08a7.67,7.67,0,0,1,1.88-4l0,0,0,0a0,0,0,0,1,0,0,8.49,8.49,0,0,1-1.09-.7l-.05,0a5,5,0,0,1-2-2.67l0-.17a1.21,1.21,0,0,1,0-.19.08.08,0,0,1,0-.08,0,0,0,0,1,0,0,1.71,1.71,0,0,1,0-.45.12.12,0,0,1,0-.08c0-.15.07-.29.11-.43a2.06,2.06,0,0,1,.12-.35s0,0,0,0a6.23,6.23,0,0,1,1.49-2.17l.19-.18c.27-.23.45-.36.45-.36h-.09l-.27,0c-.29,0-.74.07-1.28.09s-1,0-1.52,0c-2.07,0-4.5-.39-5.13-1.79a1.61,1.61,0,0,1-.16-.67c-.07-1.76,1.82-3.27,4.52-4.5a52.47,52.47,0,0,1,16.25-3.7,23,23,0,0,1,7,1.45l.44.15h0c2.12.75,4.31,1.67,6.38,2.61l1.86.88c.81.38,1.59.77,2.32,1.14,2,1,3.7,1.94,4.7,2.5l.5.27.24.14Z" style="fill:#f7a9a0"></path><path d="M364.46,193.33c4.36-1.49,9.06-1.94,13.61-2.33.1,0,.11.14,0,.16-4.49.64-9.07,1.88-13.57,2.39A.12.12,0,0,1,364.46,193.33Z" style="fill:#263238"></path><path d="M365.31,201.23a12.08,12.08,0,0,1,3.12-.33c1.11,0,2.22-.05,3.34-.05,2.22,0,4.45,0,6.67.15.1,0,.12.16,0,.16q-3.33,0-6.66.15-1.67.08-3.33.18a14.34,14.34,0,0,1-3.14,0A.16.16,0,0,1,365.31,201.23Z" style="fill:#263238"></path><path d="M366.67,210.41a8.38,8.38,0,0,1,2.83-.15l3,.05c2,0,4.06,0,6.09,0a.08.08,0,0,1,0,.16c-2.06.06-4.12.16-6.18.21l-3,0a7.93,7.93,0,0,1-2.75-.19A.05.05,0,0,1,366.67,210.41Z" style="fill:#263238"></path><path d="M400.41,192.22c-1.42-.62-2.82-1.28-4.21-1.94l-4.16-2-4.15-2c-1.39-.66-2.79-1.3-4.21-1.9a28.39,28.39,0,0,1,4.43,1.37c1.46.54,2.86,1.19,4.26,1.86s2.76,1.39,4.1,2.17S399.14,191.33,400.41,192.22Z" style="fill:#263238"></path><path d="M366.44,212.39v0s0,0,0,0v0c-.08,0,0,0,0,0h0a3.17,3.17,0,0,1,0-.47,4.17,4.17,0,0,1,0-.5,5.62,5.62,0,0,1,.14-1v0c0-.1,0-.11,0,0l0-.07a.06.06,0,0,0,0,0l.08.13-.41-.21h0c-.08-.05-.09-.07-.05,0h0a8,8,0,0,1-1.75-1.43,5.52,5.52,0,0,1-1.19-2v-.05l-.05-.18,0,.08a1.13,1.13,0,0,1-.08-.28v0a1,1,0,0,1,0-.19v.07a4.34,4.34,0,0,1,0-1.48,6,6,0,0,1,.39-1.39,9,9,0,0,1,1.49-2.4h0l0,0,0,0a.87.87,0,0,1,.12-.14l.15.61a6.62,6.62,0,0,1-1.28-.63l-.06,0,0,0,0,0a5.55,5.55,0,0,1-1.48-1.38,3.8,3.8,0,0,1-.47-.92,3.42,3.42,0,0,1-.18-1v.06a1.76,1.76,0,0,1,0-.19v-.16a1.75,1.75,0,0,1,0-.32l0,.16a.39.39,0,0,1,0-.2l0-.06v.05a2,2,0,0,1,.12-.48v0a2.41,2.41,0,0,1,.21-.54l0,.09V196a.19.19,0,0,1,.07-.13l-.05.06a5.5,5.5,0,0,1,1-1.45q.3-.31.63-.6a6,6,0,0,1,.7-.52,7,7,0,0,0-.61.61c-.19.21-.38.43-.55.66a6.16,6.16,0,0,0-.81,1.46l-.05.06a.16.16,0,0,0,.05-.09h0v0l0,.05a2.23,2.23,0,0,0-.13.46h0v0a1.26,1.26,0,0,0-.06.38V197h0s0,.05,0-.11l0,.16a1.93,1.93,0,0,0,0,.24v.27a2.75,2.75,0,0,0,.21.82,3.51,3.51,0,0,0,.44.75,4.82,4.82,0,0,0,1.34,1.16l0,0a.71.71,0,0,1,.14.1l-.06-.05a6.34,6.34,0,0,0,1.12.53l.53.18-.38.43-.06.06,0,0,0,0,0,0a9.31,9.31,0,0,0-1.37,2.2,5.51,5.51,0,0,0-.37,1.22,3.64,3.64,0,0,0,0,1.23v.07l0,.18,0,.08,0,.18v-.05a6.41,6.41,0,0,0,2.52,3.29h0c.08.05.09.07.05,0h0l0,0,.37.25.09.06v.07a.19.19,0,0,1,0,.1l0-.07c0,.1,0,.11,0,0v0a5.77,5.77,0,0,0-.24.93c0,.16,0,.32-.05.48l0,.47h0s0,0-.05,0v0s0,0,0,0Z" style="fill:#263238"></path><path d="M446.65,178.26l-21.34,5.94s-3.82-15-3.47-24.31,5.81-8,11.58-.94S446.65,178.26,446.65,178.26Z" style="fill:#38E0BE"></path><path d="M435.92,172.38c-.06-.25-.09-.51-.15-.76a6.85,6.85,0,0,0-.16.76,1.66,1.66,0,0,1-.2.65,1.18,1.18,0,0,1-1,.59,1.59,1.59,0,0,0-1.46,1,1.51,1.51,0,0,0-.08.86c.05.25.08.51.15.76a6.85,6.85,0,0,0,.16-.76,1.39,1.39,0,0,1,.21-.64,1.22,1.22,0,0,1,1-.55,1.57,1.57,0,0,0,1.44-1A1.61,1.61,0,0,0,435.92,172.38Zm-3.54-14.65h0a0,0,0,0,1,0,0s0,0,0,0l-.06,0-.16-.1-.24-.1a1.56,1.56,0,0,0-.48-.08h0a1.36,1.36,0,0,0-.63.15,1.5,1.5,0,0,0-.65.56c-.14.22-.3.42-.43.65.23-.13.43-.29.66-.43a1.28,1.28,0,0,1,.59-.32,1.18,1.18,0,0,1,1.12.29l.23.2h0a1.54,1.54,0,0,0,1,.26Z" style="fill:#fff"></path><path d="M425.34,180.05a140.53,140.53,0,0,1,18.17-4.89s.08.14,0,.15c-4.87,1.63-14.82,4.13-18.15,4.95C425.34,180.27,425.28,180.07,425.34,180.05Z" style="fill:#263238"></path><path d="M421.91,171.88s0,0,0,0c.32.75.6,1.5.86,2.27-.24-1.65-.44-3.31-.6-5,0-.06.07-.07.09,0,1,4.9,2.19,9.78,3.12,14.69.54,0,1.07,0,1.6,0a.07.07,0,0,1,0,.14c-.58.1-1.16.24-1.74.39a.28.28,0,0,1-.35-.15,70.76,70.76,0,0,1-1.9-8.57c-.19-.45-.37-.9-.52-1.36A16.62,16.62,0,0,1,421.91,171.88Z" style="fill:#263238"></path><path d="M422.42,154.44c-.18,1.07-4.83,8.29-9.7,8.36-1.59,0-2.09-8.64-2.09-8.64l-.18-.63-2.55-8.83,10.1-7.39,1.46-1s.54,2.46,1.18,5.53l.09.44c0,.17.09.34.12.5.1.46.2.92.29,1.39s.14.7.2,1.08.14.74.21,1.12A59.11,59.11,0,0,1,422.42,154.44Z" style="fill:#f7a9a0"></path><path d="M420.64,141.85a18.42,18.42,0,0,1-10.19,11.68l-2.55-8.83,10.1-7.39,1.46-1S420,138.78,420.64,141.85Z" style="fill:#263238"></path><path d="M394,133c0,16.13,9.67,17.95,13.14,17.94,3.16,0,13.91-.41,15.58-16.46s-5.83-21.14-13.06-21.52S394,116.88,394,133Z" style="fill:#f7a9a0"></path><path d="M396.72,128.42a10.08,10.08,0,0,0,1.09-.24,1.78,1.78,0,0,0,1.08-.45.57.57,0,0,0,0-.7,1.39,1.39,0,0,0-1.41-.33,2.15,2.15,0,0,0-1.32.74A.62.62,0,0,0,396.72,128.42Z" style="fill:#263238"></path><path d="M407.42,128.5a10.23,10.23,0,0,1-1.1-.23,1.8,1.8,0,0,1-1.08-.45.58.58,0,0,1,0-.7,1.44,1.44,0,0,1,1.41-.34,2.15,2.15,0,0,1,1.33.74A.62.62,0,0,1,407.42,128.5Z" style="fill:#263238"></path><path d="M405,132.63s.09.05.08.1c-.05,1.1.07,2.38,1.06,2.76,0,0,0,.07,0,.06C404.91,135.36,404.77,133.66,405,132.63Z" style="fill:#263238"></path><path d="M406,131.49c1.78-.09,1.85,3.47.2,3.56S404.52,131.58,406,131.49Z" style="fill:#263238"></path><path d="M406.72,131.67c.31.2.62.55,1,.58s.75-.35,1-.71c0,0,.06,0,.06,0,0,.68-.22,1.39-.95,1.5s-1.16-.49-1.35-1.17C406.48,131.78,406.59,131.59,406.72,131.67Z" style="fill:#263238"></path><path d="M398.87,132.46s-.09,0-.08.1c.06,1.1-.05,2.38-1,2.77,0,0,0,.07,0,.06C399,135.19,399.11,133.49,398.87,132.46Z" style="fill:#263238"></path><path d="M397.85,131.33c-1.78-.09-1.82,3.48-.17,3.56S399.34,131.4,397.85,131.33Z" style="fill:#263238"></path><path d="M397.11,131.55c-.29.19-.57.53-.91.55s-.67-.37-.92-.74c0,0,0,0,0,0,0,.68.19,1.4.84,1.54s1-.45,1.21-1.13C397.31,131.67,397.22,131.48,397.11,131.55Z" style="fill:#263238"></path><path d="M405.06,141.46c-.25.28-.49.65-.89.71a2.92,2.92,0,0,1-1.2-.2s-.07,0,0,.06a1.49,1.49,0,0,0,1.43.51,1.17,1.17,0,0,0,.81-1A.06.06,0,0,0,405.06,141.46Z" style="fill:#263238"></path><path d="M400.41,137.5s-.21,1.65-.21,2.43c0,.07.19.11.45.12h0a3.7,3.7,0,0,0,3.59-1.41c.05-.07,0-.15-.12-.1a5.58,5.58,0,0,1-3.37,1c-.06-.22.47-2.82.34-2.83a6.94,6.94,0,0,0-1.76.41c.35-3.45,1.25-6.82,1.55-10.26a.1.1,0,0,0-.2,0,56.22,56.22,0,0,0-2.15,11C398.5,138.23,400.1,137.63,400.41,137.5Z" style="fill:#263238"></path><path d="M401.08,139.91a4,4,0,0,0,1.62,1.23,1.78,1.78,0,0,0,1.1.05c.79-.22.8-.94.64-1.57a4.1,4.1,0,0,0-.36-.94A5.25,5.25,0,0,1,401.08,139.91Z" style="fill:#263238"></path><path d="M402.7,141.14a1.78,1.78,0,0,0,1.1.05c.79-.22.8-.94.64-1.57A1.87,1.87,0,0,0,402.7,141.14Z" style="fill:#ff99ba"></path><path d="M422.09,133.7c-2.93.83-4.71-5.89-4.71-5.89s-13-.26-15.65-10.45a17.73,17.73,0,0,1-7.41,10.9s-1.24-11.41,7.42-14.95c0,0,10.55-5.73,18.15,2.19S424.05,133.15,422.09,133.7Z" style="fill:#263238"></path><path d="M401.57,116.6a11.49,11.49,0,0,0,1.27,4.64,11.79,11.79,0,0,0,3,3.82,8.7,8.7,0,0,0,1,.73l.5.36.54.29c.36.18.72.38,1.09.55l1.15.41.57.2.59.13,1.19.26c.79.1,1.6.16,2.39.21-.77-.21-1.56-.34-2.32-.55l-1.13-.36-.56-.18-.54-.23-1.07-.47c-.35-.18-.68-.38-1-.57l-.51-.29-.47-.34c-.3-.24-.64-.43-.92-.7a14.92,14.92,0,0,1-4.76-7.91Z" style="fill:#263238"></path><path d="M420,134.29S423,129,425.41,130s.38,8.56-2.21,9.78a2.73,2.73,0,0,1-3.77-1.14Z" style="fill:#f7a9a0"></path><path d="M424.78,132.16c.05,0,.06.05,0,.07-1.81.92-2.64,2.74-3.18,4.61a1.51,1.51,0,0,1,2.21-.61c.06,0,0,.11,0,.11a1.68,1.68,0,0,0-1.79.74,8.29,8.29,0,0,0-.75,1.56c-.07.18-.38.11-.34-.08l0-.05C420.67,136.13,422.24,132.62,424.78,132.16Z" style="fill:#263238"></path><path d="M410.51,153.81l3.2,7.1,8.59-9.51,2.66,2.82s-8.17,14.88-8.25,14.23l-3.23-6.1-4.12,4.51-.1-10.88Z" style="fill:#38E0BE"></path><path d="M409,161.48c0-1.79,0-3.61.16-5.4,0-.06.1-.1.12,0,.43,1.71.23,8.59.31,10.23l0,0c.17-.2,3.82-4,3.86-3.92.68,1,3.06,5.4,3.22,5.81,1.29-2.37,6.8-11.7,8.35-13.95.05-.06.15,0,.11.06-1.12,2.48-8.23,14.79-8.34,14.77a71.29,71.29,0,0,1-3.38-6.45c-.61.82-4.28,5.06-4.3,4.8A53,53,0,0,1,409,161.48Z" style="fill:#263238"></path></g><g id="freepik--character-1--inject-30"><path d="M101.81,440.78l181.43.78c44.1-34.63,48.65-85.93,17.19-117-19-18.81-43.22-15-66.24-18l-.06,0c-8-1-15.89-2.91-23.36-6.85-23.7-12.51-37.07-42-57-66.82-2.49-3.12-5.08-6.14-7.81-9.06-16.4-17.51-49-18.08-66.12,6.54C36.45,292.88,56.32,386,101.81,440.78Z" style="fill:#dbdbdb"></path><path d="M97.78,297.65c4.75,74.43,90.72,102.22,144.41,79.92,46.68-19.39,31.4-63.64-8-71l-.06,0c-8-1-15.89-2.91-23.36-6.85-23.7-12.51-37.07-42-57-66.82C124.05,217.4,94.3,243.14,97.78,297.65Z" style="fill:#c7c7c7"></path><path d="M254.3,474.34c-2.66-1-62.9-49.12-64-52.41-.43-1.24,6.07-10.43,14.23-21.3,1.77-2.34,3.6-4.76,5.48-7.2C222.14,377.57,235.43,361,235.43,361l40.39,32.09-26.57,31.52-5.83,6.93s14.82,28.75,15.68,32.49S257,475.31,254.3,474.34Z" style="fill:#d3766a"></path><path d="M254.3,474.34c-2.66-1-62.9-49.12-64-52.41-.52-1.52,9.18-14.76,19.71-28.5l39.28,31.2-5.83,6.93s14.82,28.75,15.68,32.49S257,475.31,254.3,474.34Z" style="fill:#fff"></path><path d="M254.3,474.34c-2.66-1-62.9-49.12-64-52.41-.43-1.24,6.07-10.43,14.23-21.3l38.93,30.93s14.82,28.75,15.68,32.49S257,475.31,254.3,474.34Z" style="fill:#38E0BE"></path><path d="M255.37,471.24c-9.9-8.32-50.62-40.93-61-48.4-.09-.07-.13,0-.05.06,9.63,8.46,50.6,40.74,60.94,48.5C255.45,471.57,255.57,471.41,255.37,471.24Z" style="fill:#263238"></path><path d="M257,458.78a10.42,10.42,0,0,0-8-2.36,10.08,10.08,0,0,0-6.56,3.59c0,.06.06.15.12.09a12,12,0,0,1,14.36-1.19A.08.08,0,0,0,257,458.78Z" style="fill:#263238"></path><path d="M246.53,435.69c-4-3.28-9.82-5.6-15-4.3-.2.05-.13.33,0,.36a71.36,71.36,0,0,1,14.61,4.5A.33.33,0,0,0,246.53,435.69Z" style="fill:#263238"></path><path d="M248.68,439.4c-4-3.28-9.82-5.6-15-4.3-.2,0-.13.33,0,.36a71.28,71.28,0,0,1,14.6,4.5A.33.33,0,0,0,248.68,439.4Z" style="fill:#263238"></path><path d="M250.83,443.11c-4-3.28-9.82-5.6-15-4.3-.2.05-.12.33.05.36a71.28,71.28,0,0,1,14.6,4.5A.33.33,0,0,0,250.83,443.11Z" style="fill:#263238"></path><path d="M253,446.82c-4-3.28-9.82-5.6-15-4.3-.2.05-.12.33.05.36a71.47,71.47,0,0,1,14.6,4.5A.33.33,0,0,0,253,446.82Z" style="fill:#263238"></path><path d="M204.57,415.3c-4.54-3.61-10.16,3.45-5.61,7.06S209.13,418.92,204.57,415.3Z" style="fill:#fff"></path><path d="M259.52,428.4c-.69-3.33-4.59-3.73-7.26-3a27.19,27.19,0,0,0-11.93,7.4.14.14,0,0,0,0,.22.63.63,0,0,0,.47.9c4.47.31,9.2,1.2,13.63.13C257.05,433.44,260.17,431.55,259.52,428.4ZM247.7,433c-2.2-.1-4.39-.31-6.59-.33,2.33-1.43,4.59-3,7.06-4.16a28.68,28.68,0,0,1,3.66-1.55c1.94-.63,8.61-.84,5.5,3.88C255.61,433.47,250.32,433.14,247.7,433Z" style="fill:#263238"></path><path d="M229.09,426.29c3.09,3.36,7.52,5.25,11.4,7.48a.63.63,0,0,0,.89-.49c.09,0,.17-.06.15-.16a27.16,27.16,0,0,0-5.8-12.79c-1.8-2.11-5.27-3.94-7.69-1.56S227.29,424.33,229.09,426.29Zm-.6-4.25c0-5.65,5.46-1.77,6.72-.16a27.79,27.79,0,0,1,2.18,3.31,81.11,81.11,0,0,1,3.56,7.4c-1.85-1.22-3.77-2.26-5.66-3.4C233,427.83,228.47,425.16,228.49,422Z" style="fill:#263238"></path><path d="M316.61,331.41c-2.77,21-54.48,81.56-60.45,88.51l-1.36,1.58L212,388.63l.49-.64,37.67-49.32L137.83,338l42.66-33.17s3.46,2,10.65,1c24.8-3.63,80.7-11.67,93.88-11.14C302,295.35,319.15,312.16,316.61,331.41Z" style="fill:#37474f"></path><path d="M263.71,320.34a50.8,50.8,0,0,0-3.89,5c-1.33,1.74-2.68,3.47-4,5.22l0,0c.24-.51.47-1,.71-1.53.84-1.74,1.51-3.54,2.51-5.2.06-.1-.1-.19-.16-.09-1,1.65-2.2,3.21-3.08,5-.41.82-.8,1.65-1.16,2.49-.2.46-.4.92-.58,1.38-.08.22-.18.45-.24.68-.6.81-1.19,1.62-1.76,2.45-1.27,1.84-2.39,3.78-3.67,5.6-.07.1.09.19.16.1,1.29-1.72,2.75-3.31,4.07-5s2.62-3.52,3.88-5.31,2.43-3.52,3.66-5.27a52.3,52.3,0,0,0,3.71-5.41C263.85,320.36,263.77,320.28,263.71,320.34Z" style="fill:#263238"></path><path d="M124.69,285.84c8.43,7.89,21.41,9.55,32.45,8.72,11.26-.86,23.65-3.68,33-10.29a27.4,27.4,0,0,0,9.66-11.43c2.12-5,1.75-9.89-1.84-13.79-2.89-3.14-8.48-4.89-8.95-8.08s1.77-6.08,2-9.25c.48-5.42-2.9-8.95-7-11.83-9.75-6.86-8.93-17.84-15.65-27.13-3.82-5.29-13.83-14.61-28.37-7.64-5.53,2.65-8.74,8.52-10.32,14.36-1.85,6.87,1.34,15.09-1.17,21.8-2.14,5.71-6.27,7.16-8.25,13.12-.85,2.59-1,5.48,2.33,10.82,1.22,1.93,2.65,4.93,2.15,7.5-.7,3.56-4.46,5.69-5.27,9.42C118.38,277.27,121,282.35,124.69,285.84Z" style="fill:#263238"></path><path d="M196.6,274.67c5.11-1.61,6.31-9.2,2.47-12.44-2.44-2.06-5.75-2.7-8.18-4.74-4-3.37-1.43-7.29-.1-11.35,2.87-8.79-3.45-13.54-10-17.78-5-3.22-6.52-7.5-7.62-13.13,0-.09.13-.12.15,0,1,4.12,2.17,8.14,5.54,11,2.73,2.31,6.12,3.68,8.79,6.11,4.48,4.08,5.67,9,3.74,14.69-.55,1.63-1.78,3.56-1.85,5.26-.17,4,3,5.61,6.07,7.13,2.33,1.17,4.91,2.47,6.09,5,1.77,3.77-1,9.63-4.95,10.64C196.52,275,196.4,274.73,196.6,274.67Z" style="fill:#263238"></path><path d="M194.33,279.06c2.92-2.42,6.15-4.7,7.54-8.4,2-5.47-2-8.78-5.76-11.9-1.62-1.34-3-2.7-3.25-4.88-.37-3.27,1.59-6.34,1.51-9.63-.2-7.83-8.4-11.39-13-16.48S174.4,216,172,209.54a.11.11,0,0,1,.21-.08c3.1,8.25,6.75,15.88,13.68,21.58,4.83,4,10,8.28,9,15.19-.24,1.7-1,3.32-1.17,5-.4,3.35.77,5.32,3.22,7.32s5,3.85,5.89,6.95c1.64,6-3.82,10.95-8.21,14A.28.28,0,0,1,194.33,279.06Z" style="fill:#263238"></path><path d="M117.81,270.43c2-4.11,5.86-6.59,4-11.73-1.31-3.53-3.73-6.15-3.6-10.14.1-3.29,1.75-6.09,3.83-8.57,2.63-3.15,5.67-5.83,7.34-9.66,1.83-4.19,2.23-8.82,2.68-13.31,0-.08.17-.08.16,0-.27,6.05-.77,12.28-4.48,17.35-1.94,2.64-4.46,4.8-6.37,7.47-3.43,4.79-2.68,9.34-.1,14.25,1.19,2.26,2.28,4.54,1.58,7.14s-2.75,4.45-4,6.74c-5.44,9.69,6.74,19,15.62,19.2.4,0,.45.62,0,.63-6.61,0-14.38-4.8-16.83-11A10.37,10.37,0,0,1,117.81,270.43Z" style="fill:#263238"></path><path d="M118.84,275c-.55-3.87,1.49-6.39,2.86-9.71,2.14-5.23-1.62-9.44-2.79-14.42a12.57,12.57,0,0,1,1.86-9.56c2.33-3.9,5.64-7,7.37-11.28a25.5,25.5,0,0,0,1.2-14.56c0-.09.11-.1.13,0a24.15,24.15,0,0,1-3.23,19.27c-2.4,3.59-5.89,6.76-6.84,11.22-1,4.73,1.89,8.43,3.2,12.76a10,10,0,0,1-.66,7.76c-.9,1.85-2.09,3.59-2.41,5.69a12.16,12.16,0,0,0,2.13,8.15c4.78,7.55,14.08,11.28,22.36,11.3.29,0,.35.47,0,.47a28.49,28.49,0,0,1-20.29-8.17A16.41,16.41,0,0,1,118.84,275Z" style="fill:#263238"></path><path d="M155.17,257.34c7.5,10.77,33.22,38.72,51,42.77,9.8,2.24,57.16,8.86,63.65,2.95,7.6-6.91,4.07-33-2-33.22-18.44-.73-52.58,2.88-61.1,1-3.86-.85-24.3-14-46.13-24.58C152.36,242.27,150.32,250.39,155.17,257.34Z" style="fill:#d3766a"></path><path d="M257.81,268.41l-3.17,39s-43-.68-55.93-8-34.09-25.9-42.17-38.82-5.37-20,10.4-12S204,269.33,206.78,270,257.81,268.41,257.81,268.41Z" style="fill:#38E0BE"></path><path d="M250.9,271.12a.09.09,0,0,0-.18,0c-.53,2.68-.75,5.43-1.05,8.15s-.59,5.62-.84,8.43c-.5,5.61-1.09,11.25-1.27,16.88a.18.18,0,1,0,.35,0c.85-5.52,1.3-11.14,1.82-16.71.26-2.76.51-5.52.71-8.28S250.94,273.93,250.9,271.12Z" style="fill:#263238"></path><path d="M219.08,304.79c-8.33-1.18-16-2.88-20.37-5.32-13-7.3-34.09-25.9-42.17-38.82-5.23-8.38-5.94-14.29-1.49-15.24Z" style="opacity:0.1"></path><path d="M115.57,333.56l68.32-17.45-6.74-24.67s5.41-7.74,3.11-15.11c-2-6.58-17.63-26.14-20.78-28.75-5.39-4.47-15-6-20.33.27C117.37,273.53,115.57,333.56,115.57,333.56Z" style="fill:#38E0BE"></path><path d="M167.07,288.2a66.91,66.91,0,0,0-9,4.1c-1.44.81-2.83,1.68-4.21,2.58-.68.45-1.38.88-2.09,1.3a10.45,10.45,0,0,1-2.31,1.11.06.06,0,0,0,0,.12,14.66,14.66,0,0,0,4.47-1.7c1.46-.81,2.89-1.68,4.35-2.5,2.93-1.66,5.87-3.32,8.92-4.76C167.32,288.39,167.22,288.14,167.07,288.2Z" style="fill:#263238"></path><path d="M175.72,288.91a75.33,75.33,0,0,0-8,1.74c-1.32.37-2.6.82-3.89,1.3-.61.23-1.22.47-1.82.72s-1.3.63-2,.89a.06.06,0,0,0,0,.12c.64-.23,1.31-.36,2-.55l2-.58c1.31-.38,2.62-.75,3.92-1.15,2.62-.8,5.23-1.57,7.87-2.27C175.92,289.09,175.86,288.89,175.72,288.91Z" style="fill:#263238"></path><path d="M146.1,247.67c.41,1.23,7.16,8.81,12.87,8,1.86-.26.87-10.48.87-10.48l.1-.77,1.37-10.79-13.16-6.81-1.89-.89s-.18,3-.37,6.69l0,.52c0,.21,0,.41,0,.61,0,.55-.07,1.12-.09,1.68s0,.85,0,1.3,0,.89,0,1.34A68.91,68.91,0,0,0,146.1,247.67Z" style="fill:#d3766a"></path><path d="M145.89,232.63a21.81,21.81,0,0,0,14.05,11.8l1.37-10.79-13.16-6.81-1.89-.89S146.08,228.92,145.89,232.63Z" style="fill:#263238"></path><path d="M174.81,214.35c4.88,18.46-5.63,23.47-9.61,24.52-3.62.95-16,3.72-22.8-14.14s.28-26,8.44-28.57S169.94,195.89,174.81,214.35Z" style="fill:#d3766a"></path><path d="M171.52,213.51a11.63,11.63,0,0,1-1.32,0,2.09,2.09,0,0,1-1.34-.28.67.67,0,0,1-.15-.81,1.67,1.67,0,0,1,1.56-.7,2.48,2.48,0,0,1,1.69.57A.72.72,0,0,1,171.52,213.51Z" style="fill:#263238"></path><path d="M158.45,215.37a10.83,10.83,0,0,0,1.22-.51,2.17,2.17,0,0,0,1.14-.75.69.69,0,0,0-.16-.82,1.69,1.69,0,0,0-1.7-.07,2.45,2.45,0,0,0-1.36,1.15A.72.72,0,0,0,158.45,215.37Z" style="fill:#263238"></path><path d="M161.9,218.45s-.08.09-.07.14c.31,1.26.46,2.76-.6,3.43a0,0,0,0,0,0,.07C162.62,221.59,162.4,219.6,161.9,218.45Z" style="fill:#263238"></path><path d="M160.48,217.37c-2.08.28-1.35,4.42.57,4.16S162.22,217.13,160.48,217.37Z" style="fill:#263238"></path><path d="M159.71,217.73c-.32.3-.6.77-1,.89s-1-.23-1.35-.59c-.05,0-.08,0-.07.06.13.8.58,1.56,1.45,1.53s1.22-.83,1.28-1.66C160,217.81,159.84,217.61,159.71,217.73Z" style="fill:#263238"></path><path d="M169.36,216.67s.11,0,.12.1c.17,1.29.59,2.73,1.82,3,0,0,0,.07,0,.07C169.85,219.85,169.32,217.92,169.36,216.67Z" style="fill:#263238"></path><path d="M170.28,215.14c2-.5,2.89,3.61,1,4.07S168.58,215.56,170.28,215.14Z" style="fill:#263238"></path><path d="M171.2,215.23c.37.15.77.48,1.16.43s.7-.58.9-1.06c0,0,.06,0,.07,0,.18.78.09,1.65-.63,2s-1.3-.29-1.65-1C171,215.42,171.05,215.17,171.2,215.23Z" style="fill:#263238"></path><path d="M164.19,229.35c.35.26.71.63,1.19.61a3.46,3.46,0,0,0,1.34-.5s.09,0,.07.06a1.76,1.76,0,0,1-1.55.91,1.38,1.38,0,0,1-1.16-1C164.05,229.35,164.14,229.31,164.19,229.35Z" style="fill:#263238"></path><path d="M168.68,223.73a28.51,28.51,0,0,1,.78,2.76c0,.08-.19.16-.49.24h0a4.35,4.35,0,0,1-4.45-.83c-.08-.07,0-.19.11-.15a6.56,6.56,0,0,0,4.12.39c0-.26-1.17-3.14-1-3.18a7.8,7.8,0,0,1,2.13.08c-1.18-3.91-3-7.6-4.09-11.51,0-.15.16-.23.22-.11a66,66,0,0,1,4.94,12.22C171.05,224.15,169.07,223.82,168.68,223.73Z" style="fill:#263238"></path><path d="M168.39,226.5a4.78,4.78,0,0,1-1.48,1.88,2.1,2.1,0,0,1-1.24.39c-1,0-1.19-.84-1.2-1.59a5.28,5.28,0,0,1,.13-1.19A6.11,6.11,0,0,0,168.39,226.5Z" style="fill:#263238"></path><path d="M166.91,228.38a2.1,2.1,0,0,1-1.24.39c-1,0-1.19-.84-1.2-1.59A2.21,2.21,0,0,1,166.91,228.38Z" style="fill:#ff99ba"></path><path d="M142.58,225.76a7.89,7.89,0,0,0,3.69-6.87,20.78,20.78,0,0,0,7.6-7.64c-.09.41-.69,3.34-1.05,4.83,11.83-3.59,14.54-13.25,14.54-13.25a20.79,20.79,0,0,1,6.11,7.08s-.73-7.42-5.08-12a12,12,0,0,0-11.57-3.71,17.19,17.19,0,0,0-16.1,7C133.82,210.62,142.58,225.76,142.58,225.76Z" style="fill:#263238"></path><path d="M161.78,213.06a22.51,22.51,0,0,1-5.95,3s0,0,0,0a19.06,19.06,0,0,0,8.27-6.33,18.49,18.49,0,0,0,2.2-3.93,12.45,12.45,0,0,0,1.1-4.78.1.1,0,0,1,.19,0,14.8,14.8,0,0,1-.44,4.87,13.24,13.24,0,0,1-2.24,4.29,15.15,15.15,0,0,1-3.13,3" style="fill:#263238"></path><path d="M145.71,225.38s-5.13-5.16-7.54-3.24,2.15,9.91,5.48,10.53a3.24,3.24,0,0,0,4-2.45Z" style="fill:#d3766a"></path><path d="M139.54,224.4c-.06,0,0,.07,0,.08,2.35.51,3.86,2.35,5,4.31a1.79,1.79,0,0,0-2.71,0s0,.13.08.11a2,2,0,0,1,2.27.31,9.51,9.51,0,0,1,1.34,1.56c.13.18.47,0,.36-.2l0-.05C145.44,227.69,142.59,224.16,139.54,224.4Z" style="fill:#263238"></path><path d="M133.5,261c-5.39,30.56-.18,53.44,5,56.28,14,7.63,47.52-7.85,57-10.92,3.83-1.25-13.61-30.5-17.52-28.7-9.2,4.25-22.09,11.47-22.61,11.41-1-.1-2.25-7.9-7.59-30.63C143.46,240,135.7,248.46,133.5,261Z" style="fill:#d3766a"></path><path d="M226,263.13c1,3.84-8.7,5.4-8.7,5.4a7.31,7.31,0,0,1,3.83,3.16c1.4,2.66-2.15,6-2.15,6a9,9,0,0,1,3.51,4c1.09,2.68-2,6.6-2,6.6a7.88,7.88,0,0,1,.89,5.44c-1.19,4.92-8.74,6.86-13.18,9-4.76,2.28-12.63,3.11-16.2,4.72l-15.46-28.33s14.94-15.82,23.47-18.28C204.73,259.47,224.54,257.27,226,263.13Z" style="fill:#d3766a"></path><path d="M217.19,268.44c-5.38-.23-10.8.82-16,1.89a.09.09,0,1,0,0,.18c5.18-1.12,10.79-.89,16-1.81A.13.13,0,0,0,217.19,268.44Z" style="fill:#263238"></path><path d="M218.75,277.36a14.37,14.37,0,0,0-3.61.67c-1.26.33-2.51.68-3.76,1-2.5.74-5,1.53-7.44,2.39-.11,0-.07.22,0,.18,2.49-.73,5-1.42,7.52-2,1.26-.31,2.52-.61,3.79-.9a16.53,16.53,0,0,0,3.53-1A.19.19,0,0,0,218.75,277.36Z" style="fill:#263238"></path><path d="M220.38,288.31a10.12,10.12,0,0,0-3.22.78l-3.4,1.06c-2.27.69-4.54,1.38-6.83,2a.09.09,0,1,0,0,.18c2.33-.61,4.67-1.19,7-1.82l3.42-.94a9.47,9.47,0,0,0,3-1.13A.07.07,0,0,0,220.38,288.31Z" style="fill:#263238"></path><path d="M177,277.36l16.06,34.36s-49.85,14.54-56.62,5.79-6.29-36.28-3.11-55.32,11.74-19.41,15.49-2.19,6,28.08,6.63,28S177,277.36,177,277.36Z" style="fill:#38E0BE"></path><path d="M170.5,282c-.05-.09-.2,0-.17.06.9,2.58,2.1,5.07,3.21,7.57s2.33,5.15,3.54,7.7c2.4,5.09,4.74,10.26,7.43,15.21.12.21.39,0,.31-.17-2.06-5.2-4.51-10.27-6.87-15.34-1.17-2.51-2.36-5-3.58-7.51S172,284.39,170.5,282Z" style="fill:#263238"></path><path d="M166.73,318a21.48,21.48,0,0,0-4.18.7c-1.44.26-2.88.48-4.33.67a80,80,0,0,1-8.46.73c-2.79.07-9.68-.34-11.8-2.26a13.45,13.45,0,0,1-3.6-6.21,90.28,90.28,0,0,1-1.71-9.79,127.88,127.88,0,0,1-.65-21c.08-1.95.2-3.89.34-5.84s.38-4,.44-5.95a.07.07,0,0,0-.13,0,70.35,70.35,0,0,0-1.32,9.6c-.12-2-.36-4-.4-6a.09.09,0,0,0-.18,0c0,2.12-.1,4.24,0,6.36,0,1.19.16,2.37.29,3.55-.16,2.69-.24,5.38-.21,8.08a83.25,83.25,0,0,0,2.47,21.1c.82,3,2.09,5.85,4.82,7.45a17.58,17.58,0,0,0,6.56,1.72A55.3,55.3,0,0,0,159,320c1.33-.25,2.65-.52,4-.82a15.6,15.6,0,0,0,3.77-1C166.83,318.13,166.79,318,166.73,318Z" style="fill:#263238"></path><polygon points="177.64 277.63 177.65 277.64 177.65 277.63 177.64 277.63" style="fill:#263238"></polygon><path d="M176.94,276.71c-3.67,1.84-7.35,3.68-11,5.55L160.53,285c-1.73.9-5,2.68-5,2.68,0-.83-.68-3.23-1-4.77s-.77-3.38-1.2-5.05c-.11-.43-.23-.87-.35-1.3-.08-.81-.15-1.61-.22-2.42-.12-1.3-.24-2.62-.44-3.91,0,0-.06,0-.07,0a17.79,17.79,0,0,0,0,3.72c-.57-2-1.14-4.05-1.74-6.07,0-.06-.12,0-.11,0,.66,3.4,1.35,6.8,2.13,10.17.38,1.64.8,3.27,1.23,4.89a53.12,53.12,0,0,0,1.45,5.21,56,56,0,0,0,5.5-2.42c1.87-.9,3.74-1.81,5.59-2.74,3.61-1.81,7.24-3.64,10.73-5.68a5,5,0,0,0,.26.52c.1.15.22-.11.17-.26S177,276.67,176.94,276.71Z" style="fill:#263238"></path><polygon points="177.65 277.64 177.65 277.64 177.65 277.64 177.65 277.64" style="fill:#263238"></polygon><rect x="176.65" y="304.81" width="71.08" height="3.19" style="fill:#c7c7c7"></rect><polygon points="191.85 304.81 189.42 308 247.73 308 247.73 304.81 191.85 304.81" style="fill:#a6a6a6"></polygon><polygon points="194.9 308 264.17 308 269.94 260.95 200.66 260.95 194.9 308" style="fill:#c7c7c7"></polygon><path d="M228.2,284.47a4.13,4.13,0,0,0,4.14,4.22,4.31,4.31,0,0,0,4.29-4.22,4.12,4.12,0,0,0-4.14-4.21A4.3,4.3,0,0,0,228.2,284.47Z" style="fill:#fff"></path><path d="M269.37,265.5c2.61,4,9.06,8.74,9.95,12.2a4.09,4.09,0,0,1-1.69,4.58s3.73,1.29,4,4.56c.15,1.68-2.41,3.39-2.41,3.39s2.95,1.17,3,4.09c.06,2.33-2.52,3.7-2.52,3.7s2.31,2.43,1.61,4.82c-1.42,4.85-21.24,7.47-25.27.57-1.88-3.21,3-3.59,3-3.59s-7.15-1.15-7.79-5.22,5.72-4.19,5.72-4.19-6.92-1.17-7.16-5.46c-.25-4.47,6.14-3.49,6.14-3.49s-4.81-2.41-4.24-5.73c.94-5.5,12.24.34,16.47-1.27Z" style="fill:#d3766a"></path><path d="M279.38,298.29c.06,0,.1.08,0,.1a34.69,34.69,0,0,1-20.59,1.48c-.21-.05-.22-.43,0-.41A71.07,71.07,0,0,0,279.38,298.29Z" style="fill:#263238"></path><path d="M279.34,290.26a.07.07,0,0,1,0,.14c-6.52,2.49-15.2,3.11-22.56.22-.25-.09-.38-.44-.08-.35C261.77,291.82,273,291.65,279.34,290.26Z" style="fill:#263238"></path><path d="M255.53,281.08c7.16,2.5,14.4,2.44,21.84,1.32.09,0,.1.12,0,.16-3.49,1.54-8.3,1.76-12.06,1.62a20,20,0,0,1-9.9-2.85C255.32,281.26,255.37,281,255.53,281.08Z" style="fill:#263238"></path><path d="M410.46,406.3c-1,2.67-49.32,62.75-52.61,63.87-1.25.44-10.41-6.09-21.25-14.3-2.34-1.77-4.75-3.61-7.19-5.5-15.82-12.22-32.32-25.56-32.32-25.56l32.22-40.28,31.43,26.67,6.91,5.85s28.79-14.73,32.53-15.58S411.45,403.64,410.46,406.3Z" style="fill:#d3766a"></path><path d="M410.46,406.3c-1,2.67-49.32,62.75-52.61,63.87-1.52.52-14.73-9.22-28.44-19.8l31.33-39.17,6.91,5.85s28.79-14.73,32.53-15.58S411.45,403.64,410.46,406.3Z" style="fill:#fff"></path><path d="M410.46,406.3c-1,2.67-49.32,62.75-52.61,63.87-1.25.44-10.41-6.09-21.25-14.3l31-38.82s28.79-14.73,32.53-15.58S411.45,403.64,410.46,406.3Z" style="fill:#38E0BE"></path><path d="M407.36,405.23c-8.34,9.87-41.09,50.48-48.59,60.87-.06.09,0,.13.06,0,8.49-9.6,40.9-50.47,48.7-60.79C407.69,405.15,407.54,405,407.36,405.23Z" style="fill:#263238"></path><path d="M394.91,403.6a10.39,10.39,0,0,0-2.38,8,10.08,10.08,0,0,0,3.56,6.58c.06.05.16-.06.1-.12A12,12,0,0,1,395,403.7.08.08,0,0,0,394.91,403.6Z" style="fill:#263238"></path><path d="M371.79,414c-3.3,4-5.63,9.8-4.35,15,.05.2.33.13.37,0a71.7,71.7,0,0,1,4.53-14.59A.32.32,0,0,0,371.79,414Z" style="fill:#263238"></path><path d="M375.51,411.81c-3.3,4-5.64,9.81-4.36,15,.05.2.34.13.37,0a71.3,71.3,0,0,1,4.54-14.59A.32.32,0,0,0,375.51,411.81Z" style="fill:#263238"></path><path d="M379.23,409.68c-3.3,4-5.64,9.8-4.36,15,.05.2.33.12.37-.05A71.21,71.21,0,0,1,379.78,410,.32.32,0,0,0,379.23,409.68Z" style="fill:#263238"></path><path d="M382.94,407.54c-3.3,4-5.63,9.8-4.35,15,.05.2.33.13.37,0a71.7,71.7,0,0,1,4.53-14.59A.32.32,0,0,0,382.94,407.54Z" style="fill:#263238"></path><path d="M351.26,455.84c-3.62,4.54,3.42,10.18,7.05,5.64S354.9,451.3,351.26,455.84Z" style="fill:#fff"></path><path d="M364.54,400.94c-3.33.68-3.75,4.58-3,7.25a27.08,27.08,0,0,0,7.36,12,.13.13,0,0,0,.21,0,.63.63,0,0,0,.91-.46c.33-4.47,1.23-9.2.17-13.64C369.57,403.42,367.69,400.3,364.54,400.94Zm4.59,11.84c-.11,2.2-.32,4.38-.34,6.58a79.24,79.24,0,0,1-4.15-7.07,29.18,29.18,0,0,1-1.53-3.66c-.63-1.95-.82-8.62,3.89-5.49C369.6,404.86,369.25,410.15,369.13,412.78Z" style="fill:#263238"></path><path d="M362.34,431.36c3.36-3.07,5.27-7.5,7.51-11.38a.63.63,0,0,0-.49-.89.14.14,0,0,0-.16-.15,27.13,27.13,0,0,0-12.8,5.76c-2.12,1.8-4,5.26-1.59,7.69S360.37,433.16,362.34,431.36Zm-4.26.59c-5.65-.05-1.75-5.47-.14-6.73a27.76,27.76,0,0,1,3.32-2.16,81.12,81.12,0,0,1,7.41-3.54c-1.22,1.84-2.27,3.77-3.42,5.65C363.89,427.41,361.2,432,358.08,432Z" style="fill:#263238"></path><path d="M359.06,405.12l-33.53,45.23L212.4,371.85l-10.91-7.57s-3.08,2.08-7.73,4.65c-6.46,3.57-15.93,8.09-24.3,9.32-14.05,2.08-35.22,1.86-47.06-14-10-13.33-6.83-30.72-6.83-30.72L131,326.94s36.5-30.41,60.13-31.32c10-.4,24.66,7.21,38.2,15.16S359.06,405.12,359.06,405.12Z" style="fill:#37474f"></path><path d="M201.49,364.28s-3.08,2.08-7.73,4.65c-8.23-9.84-25.63-27.71-26.16-28.35Z" style="fill:#263238"></path><path d="M144.36,316.76c-2.18,1.52-4.29,3.12-6.44,4.68s-4.3,3-6.31,4.64-4,3.51-5.92,5.34c-.93.88-1.85,1.77-2.75,2.68a25.4,25.4,0,0,0-2.63,2.86c-.07.09.07.21.16.15a30.44,30.44,0,0,0,2.93-2.38l3-2.6c2-1.66,4-3.28,5.91-5s3.75-3.48,5.67-5.16,4.24-3.47,6.38-5.18A0,0,0,0,0,144.36,316.76Z" style="fill:#263238"></path><path d="M351.19,403.5c-2.18,2.35-4.19,4.87-6.22,7.35s-4.06,5-6.07,7.5c-4,5-8.08,10-12,15.1-2.17,2.79-4.31,5.6-6.33,8.5-.09.13.12.28.22.16,4.33-4.75,8.28-9.83,12.29-14.85s8-10.06,12-15.15c2.16-2.79,4.38-5.56,6.37-8.47C351.47,403.53,351.28,403.4,351.19,403.5Z" style="fill:#263238"></path><path d="M265.3,408.43c-5.62-4.43-18.42-13.09-24.26-17.26s-11.61-8.29-17.5-12.3c-1.69-1.15-3.4-2.28-5.1-3.42s-3.48-2.17-5.14-3.35c-.1-.06-.19.1-.09.16,1.53,1.1,3,2.33,4.48,3.47s2.86,2.19,4.31,3.26c2.82,2.09,5.68,4.15,8.53,6.21q8.67,6.27,17.48,12.34c3.34,2.29,13.63,9.06,17,11.24C265.25,408.91,265.5,408.59,265.3,408.43Z" style="fill:#263238"></path><path d="M300.8,361.7c-5.2-4.31-17.06-12.6-22.51-16.59s-11-8.1-16.53-12.1L245.28,321.1c-5.32-3.85-10.62-7.76-16.25-11.17-3.07-1.86-6.23-3.59-9.47-5.15a62.58,62.58,0,0,0-9.8-4,.09.09,0,0,0-.07.17c2.78,1.55,5.69,2.85,8.49,4.35s5.51,3,8.19,4.65c5.58,3.39,10.86,7.23,16.15,11,11,7.91,22,15.85,33,23.65,6.2,4.37,18.55,13.38,25,17.39C300.76,362.16,301,361.85,300.8,361.7Z" style="fill:#263238"></path></g><g id="freepik--speech-bubble-2--inject-30"><path d="M512.05,122.16a22.75,22.75,0,0,0,38,14.4l11.38,1.67-5.7-9.84a22.76,22.76,0,1,0-43.71-6.23Z" style="fill:#fff"></path><path d="M518.86,103.37A22.7,22.7,0,0,1,537.93,97a22.88,22.88,0,0,1,9.71,3.65,23,23,0,0,1,8.53,27.88l0-.39,5.66,9.86.42.73-.83-.13L550,136.88l.27-.08A22.91,22.91,0,0,1,539,142.36a19.69,19.69,0,0,1-3.15.33,22.79,22.79,0,0,1-14.78-4.58,24.64,24.64,0,0,1-2.41-2,27.45,27.45,0,0,1-2.06-2.38,22.9,22.9,0,0,1,2.22-30.33Zm-2.15,30.28a24.33,24.33,0,0,0,2.07,2.35,25.54,25.54,0,0,0,2.4,2,21.27,21.27,0,0,0,5.49,3,22.65,22.65,0,0,0,6.08,1.33,21.66,21.66,0,0,0,3.12,0,18.79,18.79,0,0,0,3.08-.38,22.34,22.34,0,0,0,10.9-5.61l.12-.11.15,0,11.4,1.59-.41.6-5.73-9.82-.11-.19.09-.2a22.85,22.85,0,0,0,1.6-9.92,22.56,22.56,0,0,0-2.89-9.63,23.24,23.24,0,0,0-6.81-7.42,22.37,22.37,0,0,0-9.4-3.72,22.51,22.51,0,0,0-21.15,36.12Z" style="fill:#263238"></path><circle cx="524.75" cy="120.49" r="2.75" style="fill:#263238"></circle><circle cx="534.63" cy="120.49" r="2.75" style="fill:#263238"></circle><path d="M541.75,120.49a2.76,2.76,0,1,0,2.75-2.76A2.75,2.75,0,0,0,541.75,120.49Z" style="fill:#263238"></path></g><g id="freepik--speech-bubble-1--inject-30"><path d="M228.94,193.68a22.75,22.75,0,0,1-38,14.39l-11.39,1.68,5.7-9.85a22.51,22.51,0,0,1-1.56-11,22.76,22.76,0,0,1,45.28,4.74Z" style="fill:#fff"></path><path d="M228.94,193.68a23,23,0,0,1-4.6,11.54,20.53,20.53,0,0,1-4.46,4.4,22.41,22.41,0,0,1-5.49,3.06,22.66,22.66,0,0,1-6.13,1.46,20.84,20.84,0,0,1-3.16.06,18.5,18.5,0,0,1-3.15-.33,22.87,22.87,0,0,1-11.26-5.56l.27.09-11.38,1.74-.83.13.42-.73,5.67-9.86,0,.39a23,23,0,0,1,1.4-20.29,23.42,23.42,0,0,1,7.13-7.59,23.18,23.18,0,0,1,20-2.69,23.25,23.25,0,0,1,8.77,5.38A22.89,22.89,0,0,1,228.94,193.68Zm0,0A22.87,22.87,0,0,0,222,175a23.16,23.16,0,0,0-8.78-5.18,22.72,22.72,0,0,0-10.13-.75,22.27,22.27,0,0,0-9.4,3.71,23.61,23.61,0,0,0-6.81,7.43,22.48,22.48,0,0,0-1.28,19.54l.08.21-.11.18L179.87,210l-.41-.6,11.4-1.6.16,0,.11.1a22.4,22.4,0,0,0,10.9,5.62,20.05,20.05,0,0,0,3.09.37,21.52,21.52,0,0,0,3.11,0,22.29,22.29,0,0,0,6.08-1.34,21.27,21.27,0,0,0,5.49-3,25.54,25.54,0,0,0,2.4-2,24.33,24.33,0,0,0,2.07-2.35A22.86,22.86,0,0,0,228.94,193.68Z" style="fill:#263238"></path><path d="M219,192a2.76,2.76,0,1,1-2.76-2.75A2.77,2.77,0,0,1,219,192Z" style="fill:#263238"></path><path d="M209.11,192a2.76,2.76,0,1,1-2.75-2.75A2.76,2.76,0,0,1,209.11,192Z" style="fill:#263238"></path><path d="M199.24,192a2.76,2.76,0,1,1-2.76-2.75A2.77,2.77,0,0,1,199.24,192Z" style="fill:#263238"></path></g><g id="freepik--Plant--inject-30"><path d="M649.8,371.12a56.68,56.68,0,0,1,1.81,10.23c-.09.17-.08.8,0,.63,0,.56.87.46.87-.09,0-.37,0-.73,0-1.08,2-2.48,4.9-4.05,7.25-6.21a13.67,13.67,0,0,0,4-6.32c1.94-6.71.12-13.82,2.46-20.51,2-5.77,5.64-10.78,8.7-16,3.23-5.53,5.62-11.33,5.86-17.81.19-4.95-.4-11.56-4.18-15.27-4-3.94-9-1-12,2.52-8.88,10.2-13,23.08-14.65,36.26-.92,7.29-1.87,14.63-1.65,22A58.85,58.85,0,0,0,649.8,371.12Z" style="fill:#38E0BE"></path><path d="M651.57,384a126.1,126.1,0,0,1,.24-20.66s0,0,0-.08c-.11-5.58-.56-11.14-.34-16.73a99.76,99.76,0,0,1,2.46-18,.06.06,0,0,1,.11,0,116.33,116.33,0,0,0-1.94,17.56c-.12,3.15-.09,6.31.07,9.46.06,1,.15,2.06.22,3.09h0a110.33,110.33,0,0,1,16.62-44c.11-.18.43,0,.32.2a114.62,114.62,0,0,0-13.52,32.6c4.27-7.92,10.72-14.43,15.51-22a0,0,0,0,1,.07,0c-4.3,8.47-11.4,15.15-15.93,23.49q-1.18,5.1-1.91,10.28a114.17,114.17,0,0,0-1,14.29A163.71,163.71,0,0,0,659.92,359c.06-.14.25,0,.21.09-1.81,5.35-4.25,11.11-7.66,15.66,0,3.38.09,6.77.29,10.15.53,9,2.07,17.91,2.78,26.9a.21.21,0,0,1-.41.05A206.45,206.45,0,0,1,651.57,384Z" style="fill:#263238"></path><path d="M661.15,314.47c0-.06.12,0,.1,0-1.65,4.55-2.58,9.17-3.77,13.84a.17.17,0,0,1-.34-.06A49.31,49.31,0,0,1,661.15,314.47Z" style="fill:#263238"></path><path d="M619.32,333.56a68.21,68.21,0,0,0,3.78,7.79c3,5.38,6.06,10.32,6.62,16.59a38.05,38.05,0,0,0,1.2,8.31,24.53,24.53,0,0,0,3.31,6.51c3.22,4.69,7.23,8.72,10.21,13.58a57.23,57.23,0,0,1,6.79,16.36c.07.32.57.23.5-.08a.11.11,0,0,1,0-.07s0,0,0-.07c.47-13.45-.6-27-4.71-39.89A137.84,137.84,0,0,0,640.52,346a39.25,39.25,0,0,0-8.8-12.65c-2.5-2.26-7.93-6.53-11.5-4.27C618.51,330.17,618.64,331.88,619.32,333.56Z" style="fill:#38E0BE"></path><path d="M632.83,364.05a108.93,108.93,0,0,0,7.82,11.24c1.3,1.7,2.62,3.38,3.92,5.09.62.8,1.3,1.6,1.87,2.47-.36-1.42-.7-2.84-1.06-4.25-1.74-6.79-3.41-13.65-6-20.18a136.51,136.51,0,0,0-9.34-18.31c-.09-.16.16-.27.25-.12,2.84,4.68,5.73,9.34,8.12,14.27a76.62,76.62,0,0,1,3.44,8.47,130.23,130.23,0,0,0-4.58-18.09,0,0,0,0,1,.08,0,62.26,62.26,0,0,1,4.76,18.82v0c.58,1.74,1.11,3.51,1.61,5.28,2.12,7.53,4,15.13,5.71,22.76a81.53,81.53,0,0,0-1.3-14.95c0-.12.15-.14.18,0a47.54,47.54,0,0,1,1.3,15.76c.65,2.9,1.28,5.81,1.9,8.71,1.32,6.2,3,12.51,3.72,18.81a.13.13,0,0,1-.25,0c-.92-3.39-1.48-6.91-2.23-10.35s-1.54-6.88-2.34-10.32q-1.75-7.5-3.64-15c-.83-1.83-2.44-3.45-3.65-5s-2.65-3.37-3.93-5.08a75.39,75.39,0,0,1-6.48-10C632.67,364,632.79,364,632.83,364.05Z" style="fill:#263238"></path><path d="M632.26,358.3a70.34,70.34,0,0,1,7.65,12.15c0,.06-.06.12-.09.06-2.58-4-5.11-8.1-7.68-12.13C632.1,358.31,632.21,358.24,632.26,358.3Z" style="fill:#263238"></path><path d="M689.51,346.31c-1.74,3-3.73,6.61-3,10.22.47,2.28,2.14,4.13,2.44,6.46.68,5.13-4.44,8.53-8.14,11-9.24,6.06-21.91,11.46-23.59,23.83-.06.44-.82.33-.76-.1a.24.24,0,0,1,0-.08s0,0,0-.07a47.54,47.54,0,0,1,.17-18.9c1.38-6.38,4.17-12.11,7.45-17.71,5.56-9.49,11.44-19.2,19.85-26.46,2.33-2,7.09-5.62,8.94-1.09S691.65,342.66,689.51,346.31Z" style="fill:#38E0BE"></path><path d="M681.06,366.42c-6.12,6.63-15.86,10.34-21.13,17.77a74.2,74.2,0,0,1,16.24-30.5.24.24,0,0,0-.34-.34,60.2,60.2,0,0,0-13.27,19.22A85.72,85.72,0,0,1,668.28,358c.08-.18-.17-.33-.27-.16a55.78,55.78,0,0,0-6.16,16.43c-7,16.81-7.59,36.53-6.14,54.25,0,.25.41.26.4,0-.4-14-.17-28.17,3.18-41.81.07-.29.14-.57.22-.85,5.73-8,15.42-11.7,21.66-19.29A.07.07,0,0,0,681.06,366.42Z" style="fill:#263238"></path><path d="M682.48,360.72c-3.22,2.95-6.38,6-9.6,8.92,0,0,0,.08,0,.06a47.31,47.31,0,0,0,9.74-8.78C682.78,360.78,682.61,360.6,682.48,360.72Z" style="fill:#263238"></path><path d="M683,348a101.26,101.26,0,0,1-9.62,13.23c0,.05,0,.13.08.08a46.73,46.73,0,0,0,9.71-13.21A.1.1,0,0,0,683,348Z" style="fill:#263238"></path><polygon points="668.51 440.97 640.36 440.97 644.15 403.09 664.18 403.09 668.51 440.97" style="fill:#455a64"></polygon><polygon points="664.89 409.25 643.53 409.25 644.15 403.09 664.18 403.09 664.89 409.25" style="fill:#263238"></polygon><rect x="641.24" y="398.89" width="26.39" height="6.05" style="fill:#455a64"></rect></g><g id="freepik--Buttons--inject-30"><path d="M457.29,327.77A11.33,11.33,0,1,1,446,316.44,11.33,11.33,0,0,1,457.29,327.77Z" style="fill:#263238"></path><rect x="452.75" y="324.86" width="0.52" height="5.83" style="fill:#fff"></rect><polygon points="452.52 324.86 452.52 330.68 449.83 330 449.05 329.8 449.05 325.74 451.07 325.23 452.52 324.86" style="fill:#fff"></polygon><rect x="438.65" y="323.11" width="10.4" height="9.32" rx="1.47" style="fill:#fff"></rect><path d="M536.62,327.77a11.33,11.33,0,1,1-11.33-11.33A11.33,11.33,0,0,1,536.62,327.77Z" style="fill:#263238"></path><path d="M525.3,335.62a.32.32,0,0,1-.32-.32v-3.74a.32.32,0,0,1,.32-.32.32.32,0,0,1,.32.32v3.74A.32.32,0,0,1,525.3,335.62Z" style="fill:#fff"></path><path d="M527.33,335.62h-4.09a.32.32,0,1,1,0-.64h4.09a.32.32,0,1,1,0,.64Z" style="fill:#fff"></path><path d="M527.92,322.55V328a2.63,2.63,0,0,1-5,1.17,2.56,2.56,0,0,1-.28-1.17v-5.44a2.64,2.64,0,0,1,5.27-.12Z" style="fill:#fff"></path><path d="M525.29,331.88a3.82,3.82,0,0,1-3.83-3.83v-2.29a.32.32,0,1,1,.64,0v2.29a3.2,3.2,0,0,0,3.33,3.19,3.29,3.29,0,0,0,3-3.3v-2.18a.32.32,0,0,1,.32-.32.32.32,0,0,1,.32.32v2.18a3.87,3.87,0,0,1-3.65,3.93Z" style="fill:#fff"></path><path d="M490.92,339.1H480a11.33,11.33,0,0,1-11.33-11.33h0A11.33,11.33,0,0,1,480,316.44h11a11.33,11.33,0,0,1,11.33,11.33h0A11.33,11.33,0,0,1,490.92,339.1Z" style="fill:#38E0BE"></path><g id="freepik--IaQ7Yo--inject-30"><path d="M476.71,327.58a2,2,0,0,1,.35-1c.08-.14.18-.28.27-.41l.6-.6c.23-.16.45-.34.69-.49a8.41,8.41,0,0,1,3.12-1.22,19.92,19.92,0,0,1,7.77,0,8.65,8.65,0,0,1,3.09,1.2c.24.16.47.34.71.51l.58.57a7.06,7.06,0,0,1,.42.69,5.34,5.34,0,0,1,.24.74l-.17,0h-4.91a.18.18,0,0,1-.19-.11,1.7,1.7,0,0,0-1.45-.93,36.54,36.54,0,0,0-4.44,0,1.74,1.74,0,0,0-1.45.93.16.16,0,0,1-.16.12h-5.07Z" style="fill:#fff"></path><path d="M476.71,330.44v-1.85h5c0,.11,0,.24,0,.37v1.47a.56.56,0,0,1-.64.64h-3.74A.56.56,0,0,1,476.71,330.44Z" style="fill:#fff"></path><path d="M489.51,330.47c0-.63,0-1.26,0-1.89h5v.1c0,.59,0,1.17,0,1.76a.56.56,0,0,1-.62.62h-3.78A.54.54,0,0,1,489.51,330.47Z" style="fill:#fff"></path></g></g></svg>